<?xml version="1.0" encoding="UTF-8" standalone="no"?>
<!-- Generator: Adobe Illustrator 27.5.0, SVG Export Plug-In . SVG Version: 6.00 Build 0)  -->

<svg
   version="1.1"
   x="0px"
   y="0px"
   viewBox="0 0 256 256"
   xml:space="preserve"
   id="svg12"
   sodipodi:docname="preferences-kde-connect.svg"
   inkscape:version="1.3.2 (091e20ef0f, 2023-11-25)"
   width="256"
   height="256"
   xmlns:inkscape="http://www.inkscape.org/namespaces/inkscape"
   xmlns:sodipodi="http://sodipodi.sourceforge.net/DTD/sodipodi-0.dtd"
   xmlns:xlink="http://www.w3.org/1999/xlink"
   xmlns="http://www.w3.org/2000/svg"
   xmlns:svg="http://www.w3.org/2000/svg"
   xmlns:rdf="http://www.w3.org/1999/02/22-rdf-syntax-ns#"
   xmlns:cc="http://creativecommons.org/ns#"
   xmlns:a="http://ns.adobe.com/AdobeSVGViewerExtensions/3.0/"
   xmlns:i="http://ns.adobe.com/AdobeIllustrator/10.0/"><defs
   id="defs12"><linearGradient
   id="linearGradient3"
   inkscape:collect="always"><stop
     style="stop-color:#000000;stop-opacity:1;"
     offset="0"
     id="stop5" /><stop
     style="stop-color:#929292;stop-opacity:1;"
     offset="1"
     id="stop6" /></linearGradient><linearGradient
   id="linearGradient20"
   inkscape:collect="always"><stop
     style="stop-color:#bbd4f5;stop-opacity:1;"
     offset="0"
     id="stop20" /><stop
     style="stop-color:#5a9ce9;stop-opacity:1;"
     offset="1"
     id="stop21" /></linearGradient><linearGradient
   id="linearGradient18"
   inkscape:collect="always"><stop
     style="stop-color:#ffffff;stop-opacity:0.67860425;"
     offset="0"
     id="stop18" /><stop
     style="stop-color:#ffffff;stop-opacity:1;"
     offset="0.066095"
     id="stop1" /><stop
     style="stop-color:#ffffff;stop-opacity:0.97231835;"
     offset="0.11113122"
     id="stop3" /><stop
     style="stop-color:#ffffff;stop-opacity:0.82698959;"
     offset="0.22077753"
     id="stop2" /><stop
     style="stop-color:#ffffff;stop-opacity:0.17301038;"
     offset="1"
     id="stop19" /></linearGradient><linearGradient
   id="linearGradient12"
   inkscape:collect="always"><stop
     style="stop-color:#ffffff;stop-opacity:1;"
     offset="0"
     id="stop12" /><stop
     style="stop-color:#9b9b9b;stop-opacity:1;"
     offset="0.13253701"
     id="stop14" /><stop
     style="stop-color:#ffffff;stop-opacity:1;"
     offset="0.4013125"
     id="stop15" /><stop
     style="stop-color:#959595;stop-opacity:1;"
     offset="0.59068555"
     id="stop16" /><stop
     style="stop-color:#ffffff;stop-opacity:1;"
     offset="0.86239809"
     id="stop17" /><stop
     style="stop-color:#bababa;stop-opacity:1;"
     offset="1"
     id="stop13" /></linearGradient>
	
<linearGradient
   inkscape:collect="always"
   xlink:href="#linearGradient12"
   id="linearGradient13"
   x1="178.66075"
   y1="81.152992"
   x2="424"
   y2="300"
   gradientUnits="userSpaceOnUse" /><linearGradient
   inkscape:collect="always"
   xlink:href="#linearGradient18"
   id="linearGradient19"
   x1="293.14694"
   y1="67.723877"
   x2="287.33072"
   y2="329.51126"
   gradientUnits="userSpaceOnUse" /><radialGradient
   inkscape:collect="always"
   xlink:href="#linearGradient20"
   id="radialGradient21"
   cx="342.60822"
   cy="390.92496"
   fx="342.60822"
   fy="390.92496"
   r="112"
   gradientTransform="matrix(1.7715224,-0.5515401,1.5403353,4.9474891,-825.27993,-1215.6448)"
   gradientUnits="userSpaceOnUse" /><linearGradient
   id="linearGradient1"
   inkscape:collect="always"><stop
     style="stop-color:#1d99f3;stop-opacity:1;"
     offset="0"
     id="stop1-7" /><stop
     style="stop-color:#1d99f3;stop-opacity:0.90341461;"
     offset="0.36403584"
     id="stop3-8" /><stop
     style="stop-color:#1d99f3;stop-opacity:0.24705882;"
     offset="0.55070496"
     id="stop4" /><stop
     style="stop-color:#0a73bd;stop-opacity:0.50341463;"
     offset="1"
     id="stop2-6" /></linearGradient><foreignObject
   requiredExtensions="http://ns.adobe.com/AdobeIllustrator/10.0/"
   x="0"
   y="0"
   width="1"
   height="1"
   id="foreignObject5189" /><linearGradient
   id="XMLID_1_"
   gradientUnits="userSpaceOnUse"
   x1="-27.6318"
   y1="16.958"
   x2="116.4178"
   y2="186.7308"><stop
     offset="0"
     style="stop-color:#FFFFFF"
     id="stop5203" /><stop
     offset="1"
     style="stop-color:#8C8CA4"
     id="stop5205" /><a:midPointStop
     offset="0"
     style="stop-color:#FFFFFF"
     id="midPointStop5207" /><a:midPointStop
     offset="0.5"
     style="stop-color:#FFFFFF"
     id="midPointStop5209" /><a:midPointStop
     offset="1"
     style="stop-color:#8C8CA4"
     id="midPointStop5211" /></linearGradient><linearGradient
   id="XMLID_2_"
   gradientUnits="userSpaceOnUse"
   x1="37.8843"
   y1="108.0479"
   x2="85.070702"
   y2="144.5793"><stop
     offset="0"
     style="stop-color:#FFFFFF"
     id="stop5218" /><stop
     offset="1"
     style="stop-color:#545477"
     id="stop5220" /><a:midPointStop
     offset="0"
     style="stop-color:#FFFFFF"
     id="midPointStop5222" /><a:midPointStop
     offset="0.5"
     style="stop-color:#FFFFFF"
     id="midPointStop5224" /><a:midPointStop
     offset="1"
     style="stop-color:#545477"
     id="midPointStop5226" /></linearGradient><linearGradient
   id="XMLID_3_"
   gradientUnits="userSpaceOnUse"
   x1="14.8296"
   y1="66.285599"
   x2="143.8714"
   y2="220.1933"><stop
     offset="0"
     style="stop-color:#FFFFFF"
     id="stop5233" /><stop
     offset="0.178"
     style="stop-color:#FBFBFC"
     id="stop5235" /><stop
     offset="0.367"
     style="stop-color:#EEEEF2"
     id="stop5237" /><stop
     offset="0.5612"
     style="stop-color:#D9D9E1"
     id="stop5239" /><stop
     offset="0.7589"
     style="stop-color:#BBBBC9"
     id="stop5241" /><stop
     offset="0.9575"
     style="stop-color:#9595AB"
     id="stop5243" /><stop
     offset="1"
     style="stop-color:#8C8CA4"
     id="stop5245" /><a:midPointStop
     offset="0"
     style="stop-color:#FFFFFF"
     id="midPointStop5247" /><a:midPointStop
     offset="0.6949"
     style="stop-color:#FFFFFF"
     id="midPointStop5249" /><a:midPointStop
     offset="1"
     style="stop-color:#8C8CA4"
     id="midPointStop5251" /></linearGradient><linearGradient
   id="XMLID_4_"
   gradientUnits="userSpaceOnUse"
   x1="-32.084"
   y1="20.7246"
   x2="111.9758"
   y2="190.5094"><stop
     offset="0"
     style="stop-color:#FFFFFF"
     id="stop5258" /><stop
     offset="1"
     style="stop-color:#8C8CA4"
     id="stop5260" /><a:midPointStop
     offset="0"
     style="stop-color:#FFFFFF"
     id="midPointStop5262" /><a:midPointStop
     offset="0.5"
     style="stop-color:#FFFFFF"
     id="midPointStop5264" /><a:midPointStop
     offset="1"
     style="stop-color:#8C8CA4"
     id="midPointStop5266" /></linearGradient><linearGradient
   id="XMLID_5_"
   gradientUnits="userSpaceOnUse"
   x1="-11.7988"
   y1="48.8242"
   x2="27.841"
   y2="88.464104"><stop
     offset="0"
     style="stop-color:#FFFFFF"
     id="stop5273" /><stop
     offset="1"
     style="stop-color:#545477"
     id="stop5275" /><a:midPointStop
     offset="0"
     style="stop-color:#FFFFFF"
     id="midPointStop5277" /><a:midPointStop
     offset="0.5"
     style="stop-color:#FFFFFF"
     id="midPointStop5279" /><a:midPointStop
     offset="1"
     style="stop-color:#545477"
     id="midPointStop5281" /></linearGradient><linearGradient
   id="XMLID_6_"
   gradientUnits="userSpaceOnUse"
   x1="10.3833"
   y1="70.012199"
   x2="139.4326"
   y2="223.92889"><stop
     offset="0"
     style="stop-color:#FFFFFF"
     id="stop5288" /><stop
     offset="0.178"
     style="stop-color:#FBFBFC"
     id="stop5290" /><stop
     offset="0.367"
     style="stop-color:#EEEEF2"
     id="stop5292" /><stop
     offset="0.5612"
     style="stop-color:#D9D9E1"
     id="stop5294" /><stop
     offset="0.7589"
     style="stop-color:#BBBBC9"
     id="stop5296" /><stop
     offset="0.9575"
     style="stop-color:#9595AB"
     id="stop5298" /><stop
     offset="1"
     style="stop-color:#8C8CA4"
     id="stop5300" /><a:midPointStop
     offset="0"
     style="stop-color:#FFFFFF"
     id="midPointStop5302" /><a:midPointStop
     offset="0.6949"
     style="stop-color:#FFFFFF"
     id="midPointStop5304" /><a:midPointStop
     offset="1"
     style="stop-color:#8C8CA4"
     id="midPointStop5306" /></linearGradient><linearGradient
   id="XMLID_10_"
   gradientUnits="userSpaceOnUse"
   x1="-44.505901"
   y1="31.268999"
   x2="99.549599"
   y2="201.04871"><stop
     offset="0"
     style="stop-color:#FFFFFF"
     id="stop5371" /><stop
     offset="1"
     style="stop-color:#8C8CA4"
     id="stop5373" /><a:midPointStop
     offset="0"
     style="stop-color:#FFFFFF"
     id="midPointStop5375" /><a:midPointStop
     offset="0.5"
     style="stop-color:#FFFFFF"
     id="midPointStop5377" /><a:midPointStop
     offset="1"
     style="stop-color:#8C8CA4"
     id="midPointStop5379" /></linearGradient><linearGradient
   id="XMLID_11_"
   gradientUnits="userSpaceOnUse"
   x1="6.2651"
   y1="95.376999"
   x2="42.928299"
   y2="132.0394"><stop
     offset="0"
     style="stop-color:#FFFFFF"
     id="stop5386" /><stop
     offset="1"
     style="stop-color:#545477"
     id="stop5388" /><a:midPointStop
     offset="0"
     style="stop-color:#FFFFFF"
     id="midPointStop5390" /><a:midPointStop
     offset="0.5"
     style="stop-color:#FFFFFF"
     id="midPointStop5392" /><a:midPointStop
     offset="1"
     style="stop-color:#545477"
     id="midPointStop5394" /></linearGradient><linearGradient
   id="XMLID_12_"
   gradientUnits="userSpaceOnUse"
   x1="-1.4526"
   y1="79.927696"
   x2="127.6068"
   y2="233.8564"><stop
     offset="0"
     style="stop-color:#FFFFFF"
     id="stop5401" /><stop
     offset="0.178"
     style="stop-color:#FBFBFC"
     id="stop5403" /><stop
     offset="0.367"
     style="stop-color:#EEEEF2"
     id="stop5405" /><stop
     offset="0.5612"
     style="stop-color:#D9D9E1"
     id="stop5407" /><stop
     offset="0.7589"
     style="stop-color:#BBBBC9"
     id="stop5409" /><stop
     offset="0.9575"
     style="stop-color:#9595AB"
     id="stop5411" /><stop
     offset="1"
     style="stop-color:#8C8CA4"
     id="stop5413" /><a:midPointStop
     offset="0"
     style="stop-color:#FFFFFF"
     id="midPointStop5415" /><a:midPointStop
     offset="0.6949"
     style="stop-color:#FFFFFF"
     id="midPointStop5417" /><a:midPointStop
     offset="1"
     style="stop-color:#8C8CA4"
     id="midPointStop5419" /></linearGradient><linearGradient
   id="XMLID_13_"
   gradientUnits="userSpaceOnUse"
   x1="3.0678999"
   y1="-9.0937996"
   x2="147.1209"
   y2="160.68311"><stop
     offset="0"
     style="stop-color:#FFFFFF"
     id="stop5426" /><stop
     offset="1"
     style="stop-color:#8C8CA4"
     id="stop5428" /><a:midPointStop
     offset="0"
     style="stop-color:#FFFFFF"
     id="midPointStop5430" /><a:midPointStop
     offset="0.5"
     style="stop-color:#FFFFFF"
     id="midPointStop5432" /><a:midPointStop
     offset="1"
     style="stop-color:#8C8CA4"
     id="midPointStop5434" /></linearGradient><linearGradient
   id="XMLID_14_"
   gradientUnits="userSpaceOnUse"
   x1="85.152802"
   y1="95.459999"
   x2="126.398"
   y2="127.3917"><stop
     offset="0"
     style="stop-color:#FFFFFF"
     id="stop5441" /><stop
     offset="1"
     style="stop-color:#545477"
     id="stop5443" /><a:midPointStop
     offset="0"
     style="stop-color:#FFFFFF"
     id="midPointStop5445" /><a:midPointStop
     offset="0.5"
     style="stop-color:#FFFFFF"
     id="midPointStop5447" /><a:midPointStop
     offset="1"
     style="stop-color:#545477"
     id="midPointStop5449" /></linearGradient><linearGradient
   id="XMLID_15_"
   gradientUnits="userSpaceOnUse"
   x1="45.565899"
   y1="40.521999"
   x2="174.6064"
   y2="194.4281"><stop
     offset="0"
     style="stop-color:#FFFFFF"
     id="stop5456" /><stop
     offset="0.178"
     style="stop-color:#FBFBFC"
     id="stop5458" /><stop
     offset="0.367"
     style="stop-color:#EEEEF2"
     id="stop5460" /><stop
     offset="0.5612"
     style="stop-color:#D9D9E1"
     id="stop5462" /><stop
     offset="0.7589"
     style="stop-color:#BBBBC9"
     id="stop5464" /><stop
     offset="0.9575"
     style="stop-color:#9595AB"
     id="stop5466" /><stop
     offset="1"
     style="stop-color:#8C8CA4"
     id="stop5468" /><a:midPointStop
     offset="0"
     style="stop-color:#FFFFFF"
     id="midPointStop5470" /><a:midPointStop
     offset="0.6949"
     style="stop-color:#FFFFFF"
     id="midPointStop5472" /><a:midPointStop
     offset="1"
     style="stop-color:#8C8CA4"
     id="midPointStop5474" /></linearGradient><linearGradient
   id="XMLID_16_"
   gradientUnits="userSpaceOnUse"
   x1="-2.6997001"
   y1="-4.2065001"
   x2="141.3607"
   y2="165.5789"><stop
     offset="0"
     style="stop-color:#FFFFFF"
     id="stop5481" /><stop
     offset="1"
     style="stop-color:#8C8CA4"
     id="stop5483" /><a:midPointStop
     offset="0"
     style="stop-color:#FFFFFF"
     id="midPointStop5485" /><a:midPointStop
     offset="0.5"
     style="stop-color:#FFFFFF"
     id="midPointStop5487" /><a:midPointStop
     offset="1"
     style="stop-color:#8C8CA4"
     id="midPointStop5489" /></linearGradient><linearGradient
   id="XMLID_17_"
   gradientUnits="userSpaceOnUse"
   x1="6.4976001"
   y1="2.7890999"
   x2="45.450901"
   y2="53.657299"><stop
     offset="0"
     style="stop-color:#FFFFFF"
     id="stop5496" /><stop
     offset="1"
     style="stop-color:#545477"
     id="stop5498" /><a:midPointStop
     offset="0"
     style="stop-color:#FFFFFF"
     id="midPointStop5500" /><a:midPointStop
     offset="0.5"
     style="stop-color:#FFFFFF"
     id="midPointStop5502" /><a:midPointStop
     offset="1"
     style="stop-color:#545477"
     id="midPointStop5504" /></linearGradient><linearGradient
   id="XMLID_18_"
   gradientUnits="userSpaceOnUse"
   x1="39.694801"
   y1="45.435101"
   x2="168.74631"
   y2="199.35429"><stop
     offset="0"
     style="stop-color:#FFFFFF"
     id="stop5511" /><stop
     offset="0.178"
     style="stop-color:#FBFBFC"
     id="stop5513" /><stop
     offset="0.367"
     style="stop-color:#EEEEF2"
     id="stop5515" /><stop
     offset="0.5612"
     style="stop-color:#D9D9E1"
     id="stop5517" /><stop
     offset="0.7589"
     style="stop-color:#BBBBC9"
     id="stop5519" /><stop
     offset="0.9575"
     style="stop-color:#9595AB"
     id="stop5521" /><stop
     offset="1"
     style="stop-color:#8C8CA4"
     id="stop5523" /><a:midPointStop
     offset="0"
     style="stop-color:#FFFFFF"
     id="midPointStop5525" /><a:midPointStop
     offset="0.6949"
     style="stop-color:#FFFFFF"
     id="midPointStop5527" /><a:midPointStop
     offset="1"
     style="stop-color:#8C8CA4"
     id="midPointStop5529" /></linearGradient><linearGradient
   id="XMLID_26_"
   gradientUnits="userSpaceOnUse"
   x1="87.285599"
   y1="38.3564"
   x2="133.974"
   y2="102.5532"><stop
     offset="0"
     style="stop-color:#FFFFFF"
     id="stop5671" /><stop
     offset="0.178"
     style="stop-color:#FBFBFC"
     id="stop5673" /><stop
     offset="0.367"
     style="stop-color:#EEEEF2"
     id="stop5675" /><stop
     offset="0.5612"
     style="stop-color:#D9D9E1"
     id="stop5677" /><stop
     offset="0.7589"
     style="stop-color:#BBBBC9"
     id="stop5679" /><stop
     offset="0.9575"
     style="stop-color:#9595AB"
     id="stop5681" /><stop
     offset="1"
     style="stop-color:#8C8CA4"
     id="stop5683" /><a:midPointStop
     offset="0"
     style="stop-color:#FFFFFF"
     id="midPointStop5685" /><a:midPointStop
     offset="0.6949"
     style="stop-color:#FFFFFF"
     id="midPointStop5687" /><a:midPointStop
     offset="1"
     style="stop-color:#8C8CA4"
     id="midPointStop5689" /></linearGradient><linearGradient
   id="XMLID_27_"
   gradientUnits="userSpaceOnUse"
   x1="17.856899"
   y1="-44.930698"
   x2="165.97391"
   y2="136.72211"><stop
     offset="0"
     style="stop-color:#FFFFFF"
     id="stop5696" /><stop
     offset="1"
     style="stop-color:#545477"
     id="stop5698" /><a:midPointStop
     offset="0"
     style="stop-color:#FFFFFF"
     id="midPointStop5700" /><a:midPointStop
     offset="0.5"
     style="stop-color:#FFFFFF"
     id="midPointStop5702" /><a:midPointStop
     offset="1"
     style="stop-color:#545477"
     id="midPointStop5704" /></linearGradient><linearGradient
   id="XMLID_19_"
   gradientUnits="userSpaceOnUse"
   x1="-31.7554"
   y1="-1.9076999"
   x2="120.8373"
   y2="116.2285"><stop
     offset="0"
     style="stop-color:#FFFFFF"
     id="stop5538" /><stop
     offset="1"
     style="stop-color:#545477"
     id="stop5540" /><a:midPointStop
     offset="0"
     style="stop-color:#FFFFFF"
     id="midPointStop5542" /><a:midPointStop
     offset="0.5"
     style="stop-color:#FFFFFF"
     id="midPointStop5544" /><a:midPointStop
     offset="1"
     style="stop-color:#545477"
     id="midPointStop5546" /></linearGradient><linearGradient
   id="XMLID_20_"
   gradientUnits="userSpaceOnUse"
   x1="45.810101"
   y1="42.015598"
   x2="129.8167"
   y2="162.52499"><stop
     offset="0"
     style="stop-color:#FFFFFF"
     id="stop5553" /><stop
     offset="1"
     style="stop-color:#545477"
     id="stop5555" /><a:midPointStop
     offset="0"
     style="stop-color:#FFFFFF"
     id="midPointStop5557" /><a:midPointStop
     offset="0.5"
     style="stop-color:#FFFFFF"
     id="midPointStop5559" /><a:midPointStop
     offset="1"
     style="stop-color:#545477"
     id="midPointStop5561" /></linearGradient><linearGradient
   id="XMLID_21_"
   gradientUnits="userSpaceOnUse"
   x1="42.556599"
   y1="44.0425"
   x2="168.849"
   y2="194.6709"><stop
     offset="0"
     style="stop-color:#FFFFFF"
     id="stop5568" /><stop
     offset="0.178"
     style="stop-color:#FBFBFC"
     id="stop5570" /><stop
     offset="0.367"
     style="stop-color:#EEEEF2"
     id="stop5572" /><stop
     offset="0.5612"
     style="stop-color:#D9D9E1"
     id="stop5574" /><stop
     offset="0.7589"
     style="stop-color:#BBBBC9"
     id="stop5576" /><stop
     offset="0.9575"
     style="stop-color:#9595AB"
     id="stop5578" /><stop
     offset="1"
     style="stop-color:#8C8CA4"
     id="stop5580" /><a:midPointStop
     offset="0"
     style="stop-color:#FFFFFF"
     id="midPointStop5582" /><a:midPointStop
     offset="0.6949"
     style="stop-color:#FFFFFF"
     id="midPointStop5584" /><a:midPointStop
     offset="1"
     style="stop-color:#8C8CA4"
     id="midPointStop5586" /></linearGradient><linearGradient
   id="XMLID_22_"
   gradientUnits="userSpaceOnUse"
   x1="108.6812"
   y1="115.5"
   x2="3.5592"
   y2="10.3774"><stop
     offset="0"
     style="stop-color:#FFFFFF"
     id="stop5593" /><stop
     offset="1"
     style="stop-color:#545477"
     id="stop5595" /><a:midPointStop
     offset="0"
     style="stop-color:#FFFFFF"
     id="midPointStop5597" /><a:midPointStop
     offset="0.5"
     style="stop-color:#FFFFFF"
     id="midPointStop5599" /><a:midPointStop
     offset="1"
     style="stop-color:#545477"
     id="midPointStop5601" /></linearGradient><radialGradient
   id="XMLID_23_"
   cx="73.556198"
   cy="-50.892601"
   r="71.316704"
   fx="73.556198"
   fy="-50.892601"
   gradientTransform="matrix(1.0203,0,0,0.9713,-34.4618,106.232)"
   gradientUnits="userSpaceOnUse"><stop
     offset="0"
     style="stop-color:#FFFFFF"
     id="stop5610" /><stop
     offset="0.1629"
     style="stop-color:#FFB300"
     id="stop5612" /><stop
     offset="0.7921"
     style="stop-color:#CA6D00"
     id="stop5614" /><a:midPointStop
     offset="0"
     style="stop-color:#FFFFFF"
     id="midPointStop5616" /><a:midPointStop
     offset="0.5"
     style="stop-color:#FFFFFF"
     id="midPointStop5618" /><a:midPointStop
     offset="0.1629"
     style="stop-color:#FFB300"
     id="midPointStop5620" /><a:midPointStop
     offset="0.5"
     style="stop-color:#FFB300"
     id="midPointStop5622" /><a:midPointStop
     offset="0.7921"
     style="stop-color:#CA6D00"
     id="midPointStop5624" /></radialGradient><radialGradient
   id="XMLID_24_"
   cx="100.8198"
   cy="-4.1992002"
   r="50.325001"
   fx="100.0182"
   fy="0.40669999"
   gradientTransform="matrix(1.0203,0,0,0.9713,-34.4618,106.232)"
   gradientUnits="userSpaceOnUse"><stop
     offset="0"
     style="stop-color:#FFFFFF"
     id="stop5631" /><stop
     offset="0.4326"
     style="stop-color:#FFF000"
     id="stop5633" /><stop
     offset="1"
     style="stop-color:#FF9200"
     id="stop5635" /><a:midPointStop
     offset="0"
     style="stop-color:#FFFFFF"
     id="midPointStop5637" /><a:midPointStop
     offset="0.5"
     style="stop-color:#FFFFFF"
     id="midPointStop5639" /><a:midPointStop
     offset="0.4326"
     style="stop-color:#FFF000"
     id="midPointStop5641" /><a:midPointStop
     offset="0.5"
     style="stop-color:#FFF000"
     id="midPointStop5643" /><a:midPointStop
     offset="1"
     style="stop-color:#FF9200"
     id="midPointStop5645" /></radialGradient><linearGradient
   id="XMLID_25_"
   gradientUnits="userSpaceOnUse"
   x1="71.038101"
   y1="49.013699"
   x2="71.038101"
   y2="93.170898"><stop
     offset="0.0000000"
     style="stop-color:#ffffff;stop-opacity:1.0000000;"
     id="stop5652" /><stop
     offset="1.0000000"
     style="stop-color:#ffffff;stop-opacity:0.0000000;"
     id="stop5654" /><a:midPointStop
     offset="0"
     style="stop-color:#FFFFFF"
     id="midPointStop5656" /><a:midPointStop
     offset="0.5"
     style="stop-color:#FFFFFF"
     id="midPointStop5658" /><a:midPointStop
     offset="1"
     style="stop-color:#000000"
     id="midPointStop5660" /></linearGradient><linearGradient
   inkscape:collect="always"
   xlink:href="#linearGradient1"
   id="linearGradient2"
   x1="134.10109"
   y1="37.708851"
   x2="213.38533"
   y2="172.88962"
   gradientUnits="userSpaceOnUse" /><linearGradient
   inkscape:collect="always"
   xlink:href="#linearGradient3"
   id="linearGradient6"
   x1="461.65405"
   y1="464.76425"
   x2="187.24858"
   y2="391.78647"
   gradientUnits="userSpaceOnUse" /></defs><sodipodi:namedview
   id="namedview12"
   pagecolor="#ffffff"
   bordercolor="#000000"
   borderopacity="0.25"
   inkscape:showpageshadow="2"
   inkscape:pageopacity="0.0"
   inkscape:pagecheckerboard="0"
   inkscape:deskcolor="#d1d1d1"
   inkscape:current-layer="svg12" />

<g
   id="g12"
   transform="matrix(0.49385774,0,0,0.49385774,-20.955816,-19.988953)">
		<path
   style="fill:url(#linearGradient13);fill-opacity:1"
   d="M 388,553.5 H 212 c -19.882,0 -36,-16.118 -36,-36 v -435 c 0,-19.882 16.118,-36 36,-36 h 176 c 19.882,0 36,16.118 36,36 v 435 c 0,19.882 -16.118,36 -36,36 z"
   id="path1" />
		<path
   d="m 212.36,549.54 c -17.645,0 -32,-14.355 -32,-32 v -435 c 0,-17.645 14.355,-32 32,-32 h 176 c 17.645,0 32,14.355 32,32 v 435 c 0,17.645 -14.355,32 -32,32 z"
   id="path2"
   style="fill:#ffffff;fill-opacity:1" />
		<path
   style="fill:url(#radialGradient21);fill-opacity:1"
   d="m 412,82.5 v 435 c 0,13.23 -10.77,24 -24,24 H 212 c -5.67,0 -10.89,-1.98 -15,-5.28 -5.48,-4.4 -9,-11.16 -9,-18.72 v -435 c 0,-13.23 10.77,-24 24,-24 h 39 c 1.49,0 2.72,1.08 2.95,2.5 0.04,0.16 0.05,0.33 0.05,0.5 v 3 c 0,7.18 5.82,13 13,13 h 66 c 7.18,0 13,-5.82 13,-13 v -3 c 0,-1.66 1.34,-3 3,-3 h 39 c 6.12,0 11.7,2.3 15.94,6.08 4.94,4.39 8.06,10.8 8.06,17.92 z"
   id="path3"
   sodipodi:nodetypes="ssssssssscsssssssscs" />
		<circle
   style="fill:#1e1e1e"
   cx="266.37399"
   cy="65.425003"
   r="3.721"
   id="circle3" />
		<path
   style="fill:#1e1e1e"
   d="m 309.967,69.146 h -19.935 c -2.055,0 -3.721,-1.666 -3.721,-3.721 v 0 c 0,-2.055 1.666,-3.721 3.721,-3.721 h 19.935 c 2.055,0 3.721,1.666 3.721,3.721 v 0 c 0,2.055 -1.666,3.721 -3.721,3.721 z"
   id="path4" /><path
   style="fill:url(#linearGradient19);fill-opacity:0.678604"
   d="m 390.71397,64.49436 c 11.15805,1.89114 13.75951,5.845044 15.1619,17.491848 L 405.34212,260.45787 C 329.35938,88.284923 246.185,480.30991 192.99973,260.79047 l 0.42991,-164.966745 c 0.004,-1.512872 -3.13108,-24.906313 13.88078,-32.159387 z"
   id="path6"
   sodipodi:nodetypes="ccccscc" /><path
   id="path17"
   style="fill:#15a6ff;fill-opacity:1"
   d="m 212.35938,50.539062 c -17.64499,0 -32,14.355018 -32,32 V 517.53906 c 0,17.64498 14.35501,32 32,32 h 176 c 17.64498,0 32,-14.35502 32,-32 V 82.539062 c 0,-17.644982 -14.35502,-32 -32,-32 z m 199.7242,29.949552 c 1.13779,109.169946 7.8e-4,417.075826 0.001,436.363116 -8e-5,4.82182 -5.15245,24.46068 -22.59516,24.46758 -63.39496,0.025 -128.41242,-1.93055 -166.00924,0.31583 -20.98095,1.2536 -36.12683,-8.07165 -36.05921,-25.86241 0.17959,-47.24509 -0.75032,-289.34051 -0.50294,-434.286856 0.0178,-10.432611 12.94617,-22.395217 19.03631,-22.313345 6.17609,0.08303 28.27561,-0.808648 42.10851,-0.72502 13.83291,0.08363 5.37988,-1.574296 5.48003,5.459397 0.0225,1.579823 2.33008,3.974294 2.33008,8.247322 0,3.651262 7.63066,5.362123 19.24004,5.271923 5.80468,-0.0451 50.88333,0.0629 56.32332,-0.135207 5.43999,-0.198107 13.22015,-2.31296 13.22015,-6.675445 0,-4.284621 1.79555,-5.317227 1.7847,-6.363869 -0.0205,-1.978223 1.20219,-6.372639 7.70731,-6.372639 6.7845,0 19.15927,0.712616 24.12808,0.481988 22.49907,-1.0443 33.63383,5.519663 33.80692,22.127635 z"
   sodipodi:nodetypes="sssssssssscssssssssssssssss" />
		
		
		
		
		<g
   id="g7">
			<path
   d="m 388,46.5 c 19.882,0 36,16.118 36,36 v 435 c 0,19.882 -16.118,36 -36,36 H 212 c -19.882,0 -36,-16.118 -36,-36 v -435 c 0,-19.882 16.118,-36 36,-36 h 176 m 0,-4 H 212 c -22.056,0 -40,17.944 -40,40 v 435 c 0,22.056 17.944,40 40,40 h 176 c 22.056,0 40,-17.944 40,-40 v -435 c 0,-22.056 -17.944,-40 -40,-40 z"
   id="path7"
   style="fill:url(#linearGradient6);fill-opacity:1" />
		</g>
		<path
   style="fill:none;stroke:#000000;stroke-width:2;stroke-miterlimit:10"
   d="m 212,549.5 c -17.645,0 -32,-14.355 -32,-32 v -435 c 0,-17.645 14.355,-32 32,-32 h 176 c 17.645,0 32,14.355 32,32 v 435 c 0,17.645 -14.355,32 -32,32 z"
   id="path8" />
		<path
   style="fill:none;stroke:#000000;stroke-width:2;stroke-miterlimit:10"
   d="m 412,82.5 v 435 c 0,13.23 -10.77,24 -24,24 H 212 c -13.23,0 -24,-10.77 -24,-24 v -435 c 0,-13.23 10.77,-24 24,-24 h 39 c 1.66,0 3,1.34 3,3 v 3 c 0,7.18 5.82,13 13,13 h 66 c 7.18,0 13,-5.82 13,-13 v -3 c 0,-1.66 1.34,-3 3,-3 h 39 c 13.23,0 24,10.77 24,24 z"
   id="path9" />
		<path
   style="fill:none;stroke:#000000;stroke-width:2;stroke-miterlimit:10"
   d="m 251,58.5 c 1.66,0 3,1.34 3,3 v 3 c 0,7.18 5.82,13 13,13 h 66 c 7.18,0 13,-5.82 13,-13 v -3 c 0,-1.66 1.34,-3 3,-3"
   id="path10" />
		<rect
   x="170"
   y="148.5"
   width="2.4159999"
   height="19"
   id="rect10" />
		<rect
   x="170"
   y="186.5"
   width="2.4159999"
   height="37"
   id="rect11" />
		<rect
   x="427.58301"
   y="197.533"
   width="2.4159999"
   height="58.966999"
   id="rect12" />
		<circle
   style="fill:none;stroke:#000000;stroke-width:2;stroke-miterlimit:10"
   cx="266.37399"
   cy="65.425003"
   r="3.721"
   id="circle12" />
		<path
   style="fill:none;stroke:#000000;stroke-width:2;stroke-miterlimit:10"
   d="m 309.967,69.146 h -19.935 c -2.055,0 -3.721,-1.666 -3.721,-3.721 v 0 c 0,-2.055 1.666,-3.721 3.721,-3.721 h 19.935 c 2.055,0 3.721,1.666 3.721,3.721 v 0 c 0,2.055 -1.666,3.721 -3.721,3.721 z"
   id="path12" />
	</g>
<metadata
   id="metadata1"><rdf:RDF><cc:License
       rdf:about="http://creativecommons.org/publicdomain/zero/1.0/"><cc:permits
         rdf:resource="http://creativecommons.org/ns#Reproduction" /><cc:permits
         rdf:resource="http://creativecommons.org/ns#Distribution" /><cc:permits
         rdf:resource="http://creativecommons.org/ns#DerivativeWorks" /></cc:License><cc:Work
       rdf:about=""><cc:license
         rdf:resource="http://creativecommons.org/publicdomain/zero/1.0/" /></cc:Work></rdf:RDF></metadata><g
   style="overflow:visible"
   id="g1"
   transform="matrix(0.44431105,0,0,0.44431105,70.449375,63.705213)"><g
     id="g8044"
     transform="matrix(1.7221272,0,0,1.7221272,7,1.005657)"><path
       i:knockout="Off"
       d="M 76.877,146.09 H 62.823 l -4.618,-22.212 24.078,0.099 z"
       id="path5214"
       style="fill:url(#XMLID_1_)"
       inkscape:connector-curvature="0" /><path
       i:knockout="Off"
       d="m 57.209,123.064 c -0.246,0.3 -0.343,0.695 -0.264,1.076 l 4.619,22.211 c 0.124,0.596 0.651,1.024 1.259,1.024 h 14.054 c 0.592,0 1.108,-0.405 1.249,-0.981 l 5.405,-22.113 c 0.094,-0.382 0.008,-0.785 -0.236,-1.097 -0.242,-0.31 -0.613,-0.492 -1.008,-0.494 L 58.21,122.591 c -0.388,-10e-4 -0.755,0.173 -1.001,0.473 z m 2.579,2.106 c 2.569,0.012 18.223,0.074 20.859,0.086 -0.637,2.602 -4.374,17.891 -4.779,19.548 -1.6,0 -10.345,0 -11.999,0 -0.358,-1.728 -3.55,-17.077 -4.081,-19.634 z"
       id="path5229"
       style="fill:url(#XMLID_2_)"
       inkscape:connector-curvature="0" /><path
       i:knockout="Off"
       d="m 74.381,144.805 -9.347,0.008 -2.801,-22.167 15.756,0.322 z"
       id="path5254"
       style="fill:url(#XMLID_3_)"
       inkscape:connector-curvature="0" /><path
       i:knockout="Off"
       d="M 1.286,82.479 V 68.425 L 23.499,63.806 23.4,87.885 Z"
       id="path5269"
       style="fill:url(#XMLID_4_)"
       inkscape:connector-curvature="0" /><path
       i:knockout="Off"
       d="M 23.235,62.547 1.024,67.166 C 0.428,67.29 0,67.816 0,68.425 V 82.48 c 0,0.593 0.405,1.108 0.98,1.249 l 22.113,5.404 c 0.382,0.096 0.786,0.008 1.097,-0.234 0.311,-0.244 0.493,-0.615 0.495,-1.01 L 24.784,63.811 C 24.785,63.424 24.612,63.056 24.311,62.81 24.01,62.565 23.615,62.468 23.235,62.547 Z m -1.03,2.843 C 22.194,67.959 22.13,83.614 22.12,86.248 19.519,85.611 4.23,81.874 2.573,81.469 c 0,-1.6 0,-10.344 0,-11.998 C 4.3,69.112 19.649,65.92 22.205,65.39 Z"
       id="path5284"
       style="fill:url(#XMLID_5_)"
       inkscape:connector-curvature="0" /><path
       i:knockout="Off"
       d="M 2.571,79.982 2.564,70.636 24.73,67.834 24.41,83.589 Z"
       id="path5309"
       style="fill:url(#XMLID_6_)"
       inkscape:connector-curvature="0" /><g
       id="g5311"><linearGradient
         id="XMLID_7_"
         gradientUnits="userSpaceOnUse"
         x1="93.561996"
         y1="28.6411"
         x2="144.77319"
         y2="101.8489"><stop
           offset="0"
           style="stop-color:#FFFFFF"
           id="stop5315" /><stop
           offset="1"
           style="stop-color:#8C8CA4"
           id="stop5317" /><a:midPointStop
           offset="0"
           style="stop-color:#FFFFFF"
           id="midPointStop5319" /><a:midPointStop
           offset="0.5"
           style="stop-color:#FFFFFF"
           id="midPointStop5321" /><a:midPointStop
           offset="1"
           style="stop-color:#8C8CA4"
           id="midPointStop5323" /></linearGradient><path
         i:knockout="Off"
         d="M 138.293,81.105 V 67.05 l -22.212,-4.618 0.099,24.078 z"
         id="path5326"
         inkscape:connector-curvature="0"
         style="fill:url(#XMLID_7_)" /><linearGradient
         id="XMLID_8_"
         gradientUnits="userSpaceOnUse"
         x1="77.356903"
         y1="27.0415"
         x2="154.33949"
         y2="104.024"><stop
           offset="0"
           style="stop-color:#FFFFFF"
           id="stop5330" /><stop
           offset="1"
           style="stop-color:#545477"
           id="stop5332" /><a:midPointStop
           offset="0"
           style="stop-color:#FFFFFF"
           id="midPointStop5334" /><a:midPointStop
           offset="0.5"
           style="stop-color:#FFFFFF"
           id="midPointStop5336" /><a:midPointStop
           offset="1"
           style="stop-color:#545477"
           id="midPointStop5338" /></linearGradient><path
         i:knockout="Off"
         d="m 115.268,61.436 c -0.301,0.246 -0.474,0.614 -0.473,1 l 0.1,24.079 c 0.002,0.395 0.184,0.765 0.494,1.009 0.312,0.244 0.715,0.328 1.098,0.235 l 22.111,-5.406 c 0.576,-0.14 0.981,-0.655 0.981,-1.247 V 67.05 c 0,-0.608 -0.428,-1.135 -1.024,-1.259 l -22.211,-4.618 c -0.38,-0.08 -0.775,0.017 -1.076,0.263 z m 21.739,6.661 c 0,1.653 0,10.399 0,11.997 -1.657,0.406 -16.946,4.143 -19.547,4.779 -0.011,-2.635 -0.075,-18.29 -0.087,-20.858 2.557,0.531 17.908,3.723 19.634,4.082 z"
         id="path5341"
         inkscape:connector-curvature="0"
         style="fill:url(#XMLID_8_)" /><linearGradient
         id="XMLID_9_"
         gradientUnits="userSpaceOnUse"
         x1="94.669403"
         y1="43.753399"
         x2="171.6541"
         y2="122.1128"><stop
           offset="0"
           style="stop-color:#FFFFFF"
           id="stop5345" /><stop
           offset="0.178"
           style="stop-color:#FBFBFC"
           id="stop5347" /><stop
           offset="0.367"
           style="stop-color:#EEEEF2"
           id="stop5349" /><stop
           offset="0.5612"
           style="stop-color:#D9D9E1"
           id="stop5351" /><stop
           offset="0.7589"
           style="stop-color:#BBBBC9"
           id="stop5353" /><stop
           offset="0.9575"
           style="stop-color:#9595AB"
           id="stop5355" /><stop
           offset="1"
           style="stop-color:#8C8CA4"
           id="stop5357" /><a:midPointStop
           offset="0"
           style="stop-color:#FFFFFF"
           id="midPointStop5359" /><a:midPointStop
           offset="0.6949"
           style="stop-color:#FFFFFF"
           id="midPointStop5361" /><a:midPointStop
           offset="1"
           style="stop-color:#8C8CA4"
           id="midPointStop5363" /></linearGradient><path
         i:knockout="Off"
         d="m 137.008,78.609 0.008,-9.347 -22.166,-2.803 0.322,15.757 z"
         id="path5366"
         inkscape:connector-curvature="0"
         style="fill:url(#XMLID_9_)" /></g><path
       i:knockout="Off"
       d="m 25.81,130.626 -9.938,-9.938 12.441,-18.972 16.956,17.096 z"
       id="path5382"
       style="fill:url(#XMLID_10_)"
       inkscape:connector-curvature="0" /><path
       i:knockout="Off"
       d="m 28.182,100.438 c -0.385,0.039 -0.734,0.249 -0.946,0.574 l -12.44,18.971 c -0.334,0.51 -0.265,1.184 0.167,1.615 l 9.937,9.938 c 0.419,0.418 1.071,0.498 1.578,0.191 l 19.458,-11.814 c 0.336,-0.205 0.561,-0.552 0.608,-0.942 0.048,-0.392 -0.086,-0.784 -0.363,-1.063 L 29.224,100.812 c -0.272,-0.277 -0.656,-0.414 -1.042,-0.374 z m 0.335,3.312 c 1.81,1.824 12.833,12.938 14.688,14.811 -2.289,1.389 -15.742,9.557 -17.2,10.441 -1.131,-1.131 -7.314,-7.314 -8.483,-8.482 0.967,-1.477 9.562,-14.588 10.995,-16.77 z"
       id="path5397"
       style="fill:url(#XMLID_11_)"
       inkscape:connector-curvature="0" /><path
       i:knockout="Off"
       d="m 24.954,127.953 -6.615,-6.604 13.691,-17.655 10.914,11.369 z"
       id="path5422"
       style="fill:url(#XMLID_12_)"
       inkscape:connector-curvature="0" /><path
       i:knockout="Off"
       d="m 124.704,121.245 -9.938,9.938 -18.972,-12.44 17.096,-16.956 z"
       id="path5437"
       style="fill:url(#XMLID_13_)"
       inkscape:connector-curvature="0" /><path
       i:knockout="Off"
       d="M 111.983,100.873 94.887,117.83 c -0.275,0.271 -0.412,0.656 -0.374,1.041 0.04,0.387 0.251,0.734 0.575,0.947 l 18.971,12.439 c 0.509,0.335 1.184,0.266 1.615,-0.166 l 9.938,-9.938 c 0.42,-0.42 0.498,-1.07 0.19,-1.576 l -11.813,-19.459 c -0.205,-0.336 -0.553,-0.562 -0.943,-0.609 -0.392,-0.048 -0.784,0.087 -1.063,0.364 z m 0.653,2.977 c 1.392,2.287 9.559,15.74 10.442,17.2 -1.131,1.131 -7.314,7.313 -8.482,8.483 -1.477,-0.969 -14.587,-9.564 -16.77,-10.996 1.825,-1.809 12.939,-12.832 14.81,-14.687 z"
       id="path5452"
       style="fill:url(#XMLID_14_)"
       inkscape:connector-curvature="0" /><path
       i:knockout="Off"
       d="m 122.03,122.101 -6.604,6.615 -17.655,-13.692 11.368,-10.914 z"
       id="path5477"
       style="fill:url(#XMLID_15_)"
       inkscape:connector-curvature="0" /><path
       i:knockout="Off"
       d="M 16.749,31.732 26.687,21.794 45.659,34.235 28.563,51.191 Z"
       id="path5492"
       style="fill:url(#XMLID_16_)"
       inkscape:connector-curvature="0" /><path
       i:knockout="Off"
       d="m 25.777,20.886 -9.938,9.938 c -0.419,0.419 -0.497,1.07 -0.19,1.577 l 11.814,19.458 c 0.205,0.337 0.552,0.563 0.942,0.609 0.392,0.048 0.784,-0.086 1.063,-0.363 L 46.563,35.148 c 0.276,-0.273 0.413,-0.656 0.374,-1.042 -0.039,-0.386 -0.25,-0.735 -0.575,-0.946 L 27.392,20.718 c -0.51,-0.333 -1.184,-0.264 -1.615,0.168 z m 1.079,2.558 c 1.475,0.968 14.587,9.564 16.77,10.996 -1.825,1.81 -12.939,12.833 -14.81,14.688 -1.39,-2.288 -9.557,-15.741 -10.443,-17.2 1.131,-1.131 7.313,-7.315 8.483,-8.484 z"
       id="path5507"
       style="fill:url(#XMLID_17_)"
       inkscape:connector-curvature="0" /><path
       i:knockout="Off"
       d="M 19.422,30.876 26.026,24.26 43.681,37.953 32.314,48.868 Z"
       id="path5532"
       style="fill:url(#XMLID_18_)"
       inkscape:connector-curvature="0" /><path
       i:knockout="Off"
       d="m 120.17,77.049 c 0,27.581 -22.358,49.939 -49.94,49.939 -27.58,0 -49.938,-22.358 -49.938,-49.939 0,-27.582 22.358,-49.938 49.938,-49.938 27.582,-0.001 49.94,22.356 49.94,49.938 z"
       id="path5549"
       style="fill:url(#XMLID_19_)"
       inkscape:connector-curvature="0" /><path
       i:knockout="Off"
       d="m 118.023,77.049 c 0,26.396 -21.396,47.791 -47.793,47.791 -26.394,0 -47.79,-21.395 -47.79,-47.791 0,-26.395 21.396,-47.791 47.79,-47.791 26.397,0 47.793,21.396 47.793,47.791 z"
       id="path5564"
       style="fill:url(#XMLID_20_)"
       inkscape:connector-curvature="0" /><path
       i:knockout="Off"
       d="m 116.015,77.049 c 0,25.287 -20.498,45.785 -45.785,45.785 -25.286,0 -45.783,-20.498 -45.783,-45.785 0,-25.287 20.498,-45.784 45.783,-45.784 25.287,0 45.785,20.497 45.785,45.784 z"
       id="path5589"
       style="fill:url(#XMLID_21_)"
       inkscape:connector-curvature="0" /><path
       i:knockout="Off"
       d="m 110.505,77.049 c 0,22.243 -18.031,40.273 -40.275,40.273 -22.242,0 -40.273,-18.03 -40.273,-40.273 0,-22.242 18.031,-40.273 40.273,-40.273 22.244,-0.001 40.275,18.031 40.275,40.273 z"
       id="path5604"
       style="fill:url(#XMLID_22_)"
       inkscape:connector-curvature="0" /><path
       i:knockout="Off"
       d="m 70.229,116.125 c 21.481,0 38.905,-17.58 38.905,-39.146 0,-21.424 -17.424,-39.005 -38.905,-39.005 -21.329,0 -38.901,17.582 -38.901,39.005 0,21.566 17.572,39.146 38.901,39.146 z"
       id="path5627"
       style="clip-rule:evenodd;fill:url(#XMLID_23_);fill-rule:evenodd"
       inkscape:connector-curvature="0" /><path
       i:knockout="Off"
       d="m 70.229,114.207 c 20.426,0 36.997,-16.715 36.997,-37.223 0,-20.376 -16.57,-37.095 -36.997,-37.095 -20.281,0 -36.992,16.719 -36.992,37.095 0,20.508 16.711,37.223 36.992,37.223 z"
       id="path5648"
       style="clip-rule:evenodd;fill:url(#XMLID_24_);fill-rule:evenodd"
       inkscape:connector-curvature="0" /><path
       i:knockout="Off"
       a:adobe-blending-mode="screen"
       d="m 99.891,63.315 c 0,11.501 -12.918,20.825 -28.853,20.825 -15.936,0 -28.853,-9.324 -28.853,-20.825 0,-11.501 12.917,-20.824 28.853,-20.824 15.935,0 28.853,9.323 28.853,20.824 z"
       id="path5663"
       style="clip-rule:evenodd;fill:url(#XMLID_25_);fill-rule:evenodd"
       inkscape:connector-curvature="0" /><path
       d="M 61.469,104.492 V 32.026 l 24.305,-2.327 -0.258,16.358 8.979,-12.211 16.904,14.834 -1.32,3.325 7.983,12.01 -2.526,29.167 -30.02,-34.972 v 42.663 z"
       id="path5667"
       style="opacity:0.15;fill:#010101"
       inkscape:connector-curvature="0" /><path
       i:knockout="Off"
       d="M 58.676,103.074 V 3.011 L 82.981,0.684 82.723,44.64 114.785,1.719 l 25.856,5.946 -33.355,42.921 33.096,45.508 -25.338,8.015 -32.32,-47.317 v 42.662 z"
       id="path5692"
       style="fill:url(#XMLID_26_)"
       inkscape:connector-curvature="0" /><path
       d="M 151.04557,2.5942773 109.67083,6.555112 V 176.924 l 40.93718,-6.1632 V 98.123294 L 205.63556,178.68789 248.77498,165.03798 192.42804,87.558441 249.21639,14.48032 205.19801,4.3598476 150.60898,77.434923 Z"
       style="display:none;overflow:visible;fill:url(#linearGradient2);fill-opacity:0.780533;stroke-width:6.92183"
       id="path1-8"
       inkscape:label="kmodern"
       transform="matrix(0.5806772,0,0,0.5806772,-4.0647404,-0.58396209)" /><path
       i:knockout="Off"
       d="M 82.915,0 58.611,2.327 c -0.353,0.034 -0.622,0.33 -0.622,0.684 v 100.063 c 0,0.2 0.087,0.391 0.238,0.521 0.152,0.131 0.354,0.189 0.551,0.159 l 24.047,-3.62 c 0.337,-0.051 0.585,-0.34 0.585,-0.682 0,0 0,-36.438 0,-40.436 2.318,3.395 31.064,45.479 31.064,45.479 0.172,0.25 0.486,0.359 0.775,0.268 l 25.34,-8.015 c 0.211,-0.065 0.376,-0.23 0.445,-0.44 0.022,-0.07 0.033,-0.143 0.033,-0.215 0,-0.143 -0.045,-0.285 -0.131,-0.404 0,0 -32.195,-44.27 -32.792,-45.09 0.622,-0.801 33.038,-42.513 33.038,-42.513 0.096,-0.123 0.145,-0.271 0.145,-0.422 0,-0.079 -0.014,-0.156 -0.039,-0.23 -0.08,-0.222 -0.266,-0.388 -0.494,-0.44 L 114.937,1.048 c -0.265,-0.061 -0.541,0.04 -0.704,0.259 0,0 -28.501,38.156 -30.812,41.249 0.023,-3.792 0.246,-41.87 0.246,-41.87 0,-0.194 -0.081,-0.379 -0.223,-0.509 C 83.301,0.045 83.11,-0.019 82.915,0 Z m -0.626,1.44 c -0.007,1.469 -0.252,43.198 -0.252,43.198 0,0.297 0.188,0.56 0.468,0.654 0.282,0.094 0.594,-0.001 0.77,-0.241 0,0 31.266,-41.857 31.793,-42.562 0.81,0.185 22.473,5.167 24.371,5.603 -1.271,1.634 -32.695,42.072 -32.695,42.072 -0.096,0.124 -0.145,0.272 -0.145,0.421 0,0.142 0.043,0.284 0.131,0.404 0,0 31.45,43.244 32.536,44.736 -1.658,0.524 -23.04,7.287 -23.942,7.572 -0.565,-0.828 -32.031,-46.895 -32.031,-46.895 -0.17,-0.249 -0.482,-0.358 -0.771,-0.268 -0.287,0.088 -0.483,0.354 -0.483,0.655 0,0 0,40.92 0,42.071 -1.076,0.163 -21.231,3.196 -22.673,3.413 0,-1.562 0,-97.416 0,-98.64 1.141,-0.107 21.539,-2.06 22.923,-2.193 z"
       id="path5707"
       style="display:inline;fill:url(#XMLID_27_)"
       inkscape:connector-curvature="0" /></g></g></svg>
