<?xml version="1.0" encoding="UTF-8" standalone="no"?>
<!-- Created with Inkscape (http://www.inkscape.org/) -->

<svg
   width="256mm"
   height="256mm"
   viewBox="0 0 256 256"
   version="1.1"
   id="svg1"
   inkscape:version="1.3.2 (091e20ef0f, 2023-11-25)"
   sodipodi:docname="application-x-cpio-compressed.svg"
   xmlns:inkscape="http://www.inkscape.org/namespaces/inkscape"
   xmlns:sodipodi="http://sodipodi.sourceforge.net/DTD/sodipodi-0.dtd"
   xmlns:xlink="http://www.w3.org/1999/xlink"
   xmlns="http://www.w3.org/2000/svg"
   xmlns:svg="http://www.w3.org/2000/svg"
   xmlns:rdf="http://www.w3.org/1999/02/22-rdf-syntax-ns#"
   xmlns:cc="http://creativecommons.org/ns#"
   xmlns:dc="http://purl.org/dc/elements/1.1/"
   xmlns:a="http://ns.adobe.com/AdobeSVGViewerExtensions/3.0/">
  <defs
     id="defs1">
    <linearGradient
       inkscape:collect="always"
       xlink:href="#XMLID_9_"
       id="linearGradient40"
       gradientUnits="userSpaceOnUse"
       x1="88.084999"
       y1="92.3545"
       x2="40.494202"
       y2="44.763699"
       gradientTransform="translate(0,28.148591)" />
    <linearGradient
       id="XMLID_9_"
       gradientUnits="userSpaceOnUse"
       x1="88.084999"
       y1="92.3545"
       x2="40.494202"
       y2="44.763699">
      <stop
         offset="0"
         style="stop-color:#744426"
         id="stop20" />
      <stop
         offset="1"
         style="stop-color:#DE972B"
         id="stop21" />
      <a:midPointStop
         offset="0"
         style="stop-color:#744426" />
      <a:midPointStop
         offset="0.5"
         style="stop-color:#744426" />
      <a:midPointStop
         offset="1"
         style="stop-color:#DE972B" />
    </linearGradient>
    <linearGradient
       id="XMLID_8_"
       gradientUnits="userSpaceOnUse"
       x1="85.301804"
       y1="89.571297"
       x2="41.845001"
       y2="46.114498"
       gradientTransform="matrix(1,0,0,0.99211958,0,0.19304653)">
      <stop
         offset="0"
         style="stop-color:#FFE692"
         id="stop18" />
      <stop
         offset="1"
         style="stop-color:#FFFFDC"
         id="stop19" />
      <a:midPointStop
         offset="0"
         style="stop-color:#FFE692" />
      <a:midPointStop
         offset="0.5"
         style="stop-color:#FFE692" />
      <a:midPointStop
         offset="1"
         style="stop-color:#FFFFDC" />
    </linearGradient>
    <linearGradient
       id="XMLID_10_"
       gradientUnits="userSpaceOnUse"
       x1="53.900398"
       y1="108.3457"
       x2="32.1115"
       y2="36.188702">
      <stop
         offset="0"
         style="stop-color:#FFB82D"
         id="stop22" />
      <stop
         offset="1"
         style="stop-color:#FFFFDC"
         id="stop23" />
      <a:midPointStop
         offset="0"
         style="stop-color:#FFB82D" />
      <a:midPointStop
         offset="0.5"
         style="stop-color:#FFB82D" />
      <a:midPointStop
         offset="1"
         style="stop-color:#FFFFDC" />
    </linearGradient>
    <linearGradient
       id="XMLID_12_"
       gradientUnits="userSpaceOnUse"
       x1="62.387699"
       y1="74.371101"
       x2="62.387699"
       y2="36.490002">
      <stop
         offset="0"
         style="stop-color:#FFAC2D"
         id="stop26" />
      <stop
         offset="1"
         style="stop-color:#FFFFDC"
         id="stop27" />
      <a:midPointStop
         offset="0"
         style="stop-color:#FFAC2D" />
      <a:midPointStop
         offset="0.5"
         style="stop-color:#FFAC2D" />
      <a:midPointStop
         offset="1"
         style="stop-color:#FFFFDC" />
    </linearGradient>
    <linearGradient
       id="XMLID_13_"
       gradientUnits="userSpaceOnUse"
       x1="80.295898"
       y1="64.916"
       x2="64.228996"
       y2="48.849098">
      <stop
         offset="0"
         style="stop-color:#744426"
         id="stop28" />
      <stop
         offset="1"
         style="stop-color:#DE972B"
         id="stop29" />
      <a:midPointStop
         offset="0"
         style="stop-color:#744426" />
      <a:midPointStop
         offset="0.5"
         style="stop-color:#744426" />
      <a:midPointStop
         offset="1"
         style="stop-color:#DE972B" />
    </linearGradient>
    <linearGradient
       id="XMLID_14_"
       gradientUnits="userSpaceOnUse"
       x1="73.048798"
       y1="42.361801"
       x2="61.8241"
       y2="39.339401">
      <stop
         offset="0"
         style="stop-color:#744426"
         id="stop30" />
      <stop
         offset="1"
         style="stop-color:#DE972B"
         id="stop31" />
      <a:midPointStop
         offset="0"
         style="stop-color:#744426" />
      <a:midPointStop
         offset="0.5"
         style="stop-color:#744426" />
      <a:midPointStop
         offset="1"
         style="stop-color:#DE972B" />
    </linearGradient>
    <linearGradient
       id="XMLID_11_"
       gradientUnits="userSpaceOnUse"
       x1="37.746269"
       y1="124.71779"
       x2="92.718666"
       y2="143.35857">
      <stop
         offset="0"
         style="stop-color:#FFA221"
         id="stop24" />
      <stop
         offset="1"
         style="stop-color:#FFE192"
         id="stop25" />
      <a:midPointStop
         offset="0"
         style="stop-color:#FFA221" />
      <a:midPointStop
         offset="0.5"
         style="stop-color:#FFA221" />
      <a:midPointStop
         offset="1"
         style="stop-color:#FFE192" />
    </linearGradient>
    <linearGradient
       id="XMLID_4_-3"
       gradientUnits="userSpaceOnUse"
       x1="-3.7275"
       y1="10.6514"
       x2="127.5933"
       y2="10.6514">
      <stop
         offset="0"
         style="stop-color:#B3CAFF"
         id="stop10-5" />
      <stop
         offset="1"
         style="stop-color:#0053BD"
         id="stop11-6" />
      <a:midPointStop
         offset="0"
         style="stop-color:#B3CAFF" />
      <a:midPointStop
         offset="0.5"
         style="stop-color:#B3CAFF" />
      <a:midPointStop
         offset="1"
         style="stop-color:#0053BD" />
    </linearGradient>
  </defs>
  <sodipodi:namedview
     id="base"
     pagecolor="#ffffff"
     bordercolor="#000000"
     borderopacity="0.3"
     inkscape:pageopacity="0.0"
     inkscape:pageshadow="2"
     inkscape:zoom="0.49497475"
     inkscape:cx="738.42151"
     inkscape:cy="633.36565"
     inkscape:document-units="mm"
     inkscape:showpageshadow="2"
     inkscape:pagecheckerboard="0"
     inkscape:deskcolor="#d1d1d1"
     inkscape:current-layer="svg1" />
  <metadata
     id="metadata1">
    <rdf:RDF>
      <cc:Work
         rdf:about="">
        <dc:format>image/svg+xml</dc:format>
        <dc:type
           rdf:resource="http://purl.org/dc/dcmitype/StillImage" />
        <cc:license
           rdf:resource="http://creativecommons.org/publicdomain/zero/1.0/" />
      </cc:Work>
      <cc:License
         rdf:about="http://creativecommons.org/publicdomain/zero/1.0/">
        <cc:permits
           rdf:resource="http://creativecommons.org/ns#Reproduction" />
        <cc:permits
           rdf:resource="http://creativecommons.org/ns#Distribution" />
        <cc:permits
           rdf:resource="http://creativecommons.org/ns#DerivativeWorks" />
      </cc:License>
    </rdf:RDF>
  </metadata>
  <g
     style="overflow:visible"
     id="g65"
     transform="matrix(1.2631678,0,0,1.5583388,-22.16636,-63.213539)"
     inkscape:label="krystalSVG Box">
    <g
       id="g31"
       style="display:inline"
       transform="matrix(2.9143816,0,0,1.1408852,-62.099733,14.347703)">
      <linearGradient
         id="linearGradient2"
         gradientUnits="userSpaceOnUse"
         x1="85.301804"
         y1="89.571297"
         x2="41.845001"
         y2="46.114498"
         gradientTransform="matrix(1,0,0,0.99211958,0,0.19304653)">
        <stop
           offset="0"
           style="stop-color:#FFE692"
           id="stop1" />
        <stop
           offset="1"
           style="stop-color:#FFFFDC"
           id="stop2" />
        <a:midPointStop
           offset="0"
           style="stop-color:#FFE692" />
        <a:midPointStop
           offset="0.5"
           style="stop-color:#FFE692" />
        <a:midPointStop
           offset="1"
           style="stop-color:#FFFFDC" />
      </linearGradient>
      <path
         id="path40"
         style="display:inline;fill:url(#linearGradient40)"
         d="m 66.017629,23.548308 c -0.193125,-0.02238 -0.393154,0.01449 -0.571653,0.112988 L 28.094168,44.245642 c -0.305,0.168 -0.493244,0.489138 -0.493244,0.837138 v 28.147688 8.030703 19.017919 9.13148 27.04863 c 0,0.269 0.111288,0.52332 0.310288,0.70531 l 29.500121,26.95276 c 0.300999,0.275 0.742416,0.32853 1.100415,0.13353 l 37.775354,-20.58434 c 0.309,-0.167 0.499946,-0.49057 0.499946,-0.84057 V 115.77727 106.85978 87.629581 79.811159 51.661758 c 0,-0.268999 -0.113299,-0.52503 -0.312299,-0.70703 L 66.549072,23.789691 c -0.152,-0.136999 -0.338318,-0.219008 -0.531443,-0.241383 z"
         sodipodi:nodetypes="sccsccccsccccsccccsccs" />
      <path
         id="path19-2"
         style="display:inline;fill:url(#XMLID_8_);stroke-width:0.996052"
         d="M 65.907051,24.496722 28.555243,44.920145 v 32.328243 3.567679 19.959493 l -0.0054,0.003 v 35.89421 l 29.500121,26.73876 37.774684,-20.42171 v -23.52717 l 0.0054,-0.003 V 87.133119 83.774296 51.447766 Z" />
      <path
         id="path43"
         style="display:inline;fill:url(#XMLID_10_)"
         d="m 30.477955,46.683442 0.01943,26.283388 -0.004,-0.0034 0.0248,33.99395 0.01072,0.0103 0.01943,26.69767 27.632363,24.47045 -0.02077,-31.49111 c 0,0 -0.0016,-0.15488 -0.01273,-0.37149 l -0.01474,-21.12531 0.0027,0.002 -0.02144,-31.491103 c 0,0 0.01807,-0.868154 -0.241931,-1.972153 -0.259,-1.105999 -1.140626,-1.753025 -1.140626,-1.753025 z" />
      <linearGradient
         id="linearGradient4"
         gradientUnits="userSpaceOnUse"
         x1="88.084999"
         y1="92.3545"
         x2="40.494202"
         y2="44.763699">
        <stop
           offset="0"
           style="stop-color:#744426"
           id="stop3" />
        <stop
           offset="1"
           style="stop-color:#DE972B"
           id="stop4" />
        <a:midPointStop
           offset="0"
           style="stop-color:#744426" />
        <a:midPointStop
           offset="0.5"
           style="stop-color:#744426" />
        <a:midPointStop
           offset="1"
           style="stop-color:#DE972B" />
      </linearGradient>
      <linearGradient
         id="linearGradient6"
         gradientUnits="userSpaceOnUse"
         x1="53.900398"
         y1="108.3457"
         x2="32.1115"
         y2="36.188702">
        <stop
           offset="0"
           style="stop-color:#FFB82D"
           id="stop5" />
        <stop
           offset="1"
           style="stop-color:#FFFFDC"
           id="stop6" />
        <a:midPointStop
           offset="0"
           style="stop-color:#FFB82D" />
        <a:midPointStop
           offset="0.5"
           style="stop-color:#FFB82D" />
        <a:midPointStop
           offset="1"
           style="stop-color:#FFFFDC" />
      </linearGradient>
      <linearGradient
         id="linearGradient8"
         gradientUnits="userSpaceOnUse"
         x1="37.746269"
         y1="124.71779"
         x2="92.718666"
         y2="143.35857">
        <stop
           offset="0"
           style="stop-color:#FFA221"
           id="stop7" />
        <stop
           offset="1"
           style="stop-color:#FFE192"
           id="stop8" />
        <a:midPointStop
           offset="0"
           style="stop-color:#FFA221" />
        <a:midPointStop
           offset="0.5"
           style="stop-color:#FFA221" />
        <a:midPointStop
           offset="1"
           style="stop-color:#FFE192" />
      </linearGradient>
      <linearGradient
         id="linearGradient10"
         gradientUnits="userSpaceOnUse"
         x1="62.387699"
         y1="74.371101"
         x2="62.387699"
         y2="36.490002">
        <stop
           offset="0"
           style="stop-color:#FFAC2D"
           id="stop9" />
        <stop
           offset="1"
           style="stop-color:#FFFFDC"
           id="stop10" />
        <a:midPointStop
           offset="0"
           style="stop-color:#FFAC2D" />
        <a:midPointStop
           offset="0.5"
           style="stop-color:#FFAC2D" />
        <a:midPointStop
           offset="1"
           style="stop-color:#FFFFDC" />
      </linearGradient>
      <path
         fill="url(#XMLID_12_)"
         d="M 65.658,26.496 93.554,52.14 60.884,69.263 c 0,0 -1.26,0.424 -2.066,0.349 -0.807,-0.074 -1.791,-0.889 -1.791,-0.889 L 31.221,45.613 Z"
         id="path27-9"
         style="display:inline;fill:url(#XMLID_12_)" />
      <linearGradient
         id="linearGradient12"
         gradientUnits="userSpaceOnUse"
         x1="80.295898"
         y1="64.916"
         x2="64.228996"
         y2="48.849098">
        <stop
           offset="0"
           style="stop-color:#744426"
           id="stop11" />
        <stop
           offset="1"
           style="stop-color:#DE972B"
           id="stop12" />
        <a:midPointStop
           offset="0"
           style="stop-color:#744426" />
        <a:midPointStop
           offset="0.5"
           style="stop-color:#744426" />
        <a:midPointStop
           offset="1"
           style="stop-color:#DE972B" />
      </linearGradient>
      <path
         opacity="0.8"
         fill="url(#XMLID_13_)"
         d="M 58.992,70.326 64.228,44.488 94.38,52.287 64.985,50.459 Z"
         id="path29-1"
         style="display:inline;fill:url(#XMLID_13_)" />
      <linearGradient
         id="linearGradient14"
         gradientUnits="userSpaceOnUse"
         x1="73.048798"
         y1="42.361801"
         x2="61.8241"
         y2="39.339401">
        <stop
           offset="0"
           style="stop-color:#744426"
           id="stop13" />
        <stop
           offset="1"
           style="stop-color:#DE972B"
           id="stop14" />
        <a:midPointStop
           offset="0"
           style="stop-color:#744426" />
        <a:midPointStop
           offset="0.5"
           style="stop-color:#744426" />
        <a:midPointStop
           offset="1"
           style="stop-color:#DE972B" />
      </linearGradient>
      <path
         opacity="0.7"
         fill="url(#XMLID_14_)"
         d="m 65.009,26.032 -0.78,18.456 -33.272,0.706 31.608,-1.985 z"
         id="path31"
         style="display:inline;fill:url(#XMLID_14_)" />
      <path
         id="path25-2"
         style="display:inline;fill:url(#XMLID_11_)"
         d="M 94.298044,52.748839 60.892855,70.260256 c 0,0 -0.912836,0.646313 -1.180836,1.751312 -0.269,1.104999 -0.247962,1.973865 -0.247962,1.973865 l -0.02077,28.875267 v 0.0325 c -7.41e-4,0.0623 -6.7e-4,0.11984 -6.7e-4,0.11984 l -0.02346,31.48939 0.03954,-0.0205 -0.01743,23.88154 34.831977,-18.73374 0.0248,-33.99225 -0.03887,0.0205 0.01407,-18.915203 0.0034,-4.966333 z" />
    </g>
  </g>
  <text
     xml:space="preserve"
     style="font-weight:bold;font-size:80.7796px;line-height:1;font-family:'Liberation Sans';-inkscape-font-specification:'Liberation Sans Bold';letter-spacing:-0.0702783px;word-spacing:0px;display:none;fill:#0a0a0a;fill-opacity:0.673165;fill-rule:evenodd;stroke-width:6.07718;stroke-linejoin:round"
     x="140.35736"
     y="219.66237"
     id="text1"
     transform="matrix(0.91592666,-0.29519974,0,1.0917905,0,0)"><tspan
       sodipodi:role="line"
       id="tspan1"
       style="font-size:80.7796px;fill:#0a0a0a;fill-opacity:0.673165;stroke-width:6.07717"
       x="140.35736"
       y="219.66237">ZIP</tspan></text>
  <g
     id="text2"
     style="font-weight:bold;font-size:49.2196px;line-height:0.8;font-family:'Liberation Sans';-inkscape-font-specification:'Liberation Sans Bold';letter-spacing:-0.0428211px;word-spacing:0px;fill:#0a0a0a;fill-opacity:0.673165;fill-rule:evenodd;stroke-width:3.70287;stroke-linejoin:round"
     transform="matrix(0.91592664,-0.24245578,0,1.0917905,0,0)"
     aria-label="CPIO&#10;  GZ">
    <path
       d="m 159.78561,178.36419 q 6.41681,0 8.91624,-6.44085 l 6.17649,2.3312 q -1.99474,4.90273 -5.86406,7.30604 -3.84528,2.37926 -9.22867,2.37926 -8.17122,0 -12.64136,-4.61433 -4.44611,-4.63838 -4.44611,-12.9538 0,-8.33945 4.30191,-12.80959 4.30191,-4.47014 12.47313,-4.47014 5.96019,0 9.70933,2.4033 3.74915,2.37927 5.26323,7.01764 l -6.24858,1.70634 q -0.79309,-2.54749 -3.12429,-4.03754 -2.30717,-1.51408 -5.45549,-1.51408 -4.8066,0 -7.30604,2.98009 -2.4754,2.9801 -2.4754,8.72398 0,5.84002 2.5475,8.91625 2.57153,3.07623 7.40217,3.07623 z m 47.54253,-18.04879 q 0,3.26849 -1.49004,5.84002 -1.49005,2.57153 -4.27788,3.98948 -2.76379,1.39391 -6.58504,1.39391 h -8.41155 v 11.92037 h -7.08974 v -33.86251 h 15.21289 q 6.08035,0 9.34884,2.81187 3.29252,2.78783 3.29252,7.90686 z m -7.1378,0.12016 q 0,-5.33533 -6.29665,-5.33533 h -7.33006 v 10.98309 h 7.52233 q 2.93202,0 4.5182,-1.44198 1.58618,-1.46602 1.58618,-4.20578 z m 12.06982,23.02362 v -33.86251 h 7.08974 v 33.86251 z m 46.55718,-17.08747 q 0,5.28727 -2.09087,9.30078 -2.09088,4.01351 -5.98422,6.15245 -3.89335,2.1149 -9.08448,2.1149 -7.97896,0 -12.5212,-4.68643 -4.5182,-4.71047 -4.5182,-12.8817 0,-8.14719 4.5182,-12.71346 4.51821,-4.56627 12.56927,-4.56627 8.05105,0 12.56926,4.61434 4.54224,4.61434 4.54224,12.66539 z m -7.23394,0 q 0,-5.47952 -2.59556,-8.57978 -2.59557,-3.12429 -7.282,-3.12429 -4.75854,0 -7.3541,3.10026 -2.59557,3.07622 -2.59557,8.60381 0,5.57566 2.64363,8.79608 2.66767,3.1964 7.25797,3.1964 4.75854,0 7.33007,-3.1243 2.59556,-3.12429 2.59556,-8.86818 z"
       id="path4" />
    <path
       d="m 187.31389,217.7639 q 2.7638,0 5.35936,-0.79309 2.59557,-0.81712 4.01352,-2.06684 v -4.68644 h -8.26736 v -5.23919 h 14.75627 v 12.4491 q -2.6917,2.76379 -7.01764,4.32594 -4.30191,1.56214 -9.03641,1.56214 -8.26736,0 -12.71346,-4.56627 -4.44611,-4.5903 -4.44611,-13.00185 0,-8.36349 4.47014,-12.8096 4.47014,-4.47014 12.85766,-4.47014 11.92037,0 15.16483,8.82012 l -6.53698,1.9707 q -1.05745,-2.57153 -3.31655,-3.89334 -2.25911,-1.32182 -5.3113,-1.32182 -4.99887,0 -7.59443,3.02816 -2.59557,3.02816 -2.59557,8.67592 0,5.74388 2.66767,8.89221 2.6917,3.12429 7.54636,3.12429 z m 47.51851,5.07096 h -27.18134 v -5.02289 l 18.31316,-23.28799 h -16.48665 v -5.55162 h 24.36947 v 4.92676 l -18.31315,23.38412 h 19.29851 z"
       id="path5" />
  </g>
</svg>
