<?xml version="1.0" encoding="UTF-8" standalone="no"?>
<svg
   version="1.1"
   width="256"
   height="256"
   viewBox="0 0 256 256"
   xml:space="preserve"
   id="svg36"
   sodipodi:docname="image-x-fpx.svg"
   inkscape:version="1.3.2 (091e20ef0f, 2023-11-25)"
   xmlns:inkscape="http://www.inkscape.org/namespaces/inkscape"
   xmlns:sodipodi="http://sodipodi.sourceforge.net/DTD/sodipodi-0.dtd"
   xmlns:xlink="http://www.w3.org/1999/xlink"
   xmlns="http://www.w3.org/2000/svg"
   xmlns:svg="http://www.w3.org/2000/svg"
   xmlns:rdf="http://www.w3.org/1999/02/22-rdf-syntax-ns#"
   xmlns:cc="http://creativecommons.org/ns#"
   xmlns:a="http://ns.adobe.com/AdobeSVGViewerExtensions/3.0/"><sodipodi:namedview
   id="namedview36"
   pagecolor="#ffffff"
   bordercolor="#000000"
   borderopacity="0.25"
   inkscape:showpageshadow="2"
   inkscape:pageopacity="0.0"
   inkscape:pagecheckerboard="0"
   inkscape:deskcolor="#d1d1d1"
   inkscape:zoom="2.0648149"
   inkscape:cx="158.12556"
   inkscape:cy="141.41704"
   inkscape:current-layer="svg36" />
<desc
   id="desc1">Created with Fabric.js 5.2.4</desc>
<defs
   id="defs1">





<linearGradient
   id="SVGID_aigrd1_3"
   gradientUnits="userSpaceOnUse"
   x1="50.8936"
   y1="166.6958"
   x2="123.6106"
   y2="53.465199"
   gradientTransform="matrix(6.99,0,0,6.99,-588.9137,-503.5207)">
<stop
   offset="0%"
   style="stop-color:rgb(255,255,255);stop-opacity: 1"
   id="stop3" />
<stop
   offset="100%"
   style="stop-color:rgb(140,140,140);stop-opacity: 1"
   id="stop4" />
</linearGradient>


<linearGradient
   id="SVGID_aigrd2_4"
   gradientUnits="userSpaceOnUse"
   x1="114.9795"
   y1="16.8501"
   x2="90.170303"
   y2="38.863499"
   gradientTransform="matrix(6.99,0,0,6.99,-588.7956,-503.7452)">
<stop
   offset="0%"
   style="stop-color:rgb(0,0,0);stop-opacity: 1"
   id="stop5" />
<stop
   offset="28.720000000000002%"
   style="stop-color:rgb(255,255,255);stop-opacity: 1"
   id="stop6" />
<stop
   offset="44.68%"
   style="stop-color:rgb(255,255,255);stop-opacity: 1"
   id="stop7" />
<stop
   offset="48.93%"
   style="stop-color:rgb(221,221,221);stop-opacity: 1"
   id="stop8" />
<stop
   offset="56.779999999999994%"
   style="stop-color:rgb(163,163,163);stop-opacity: 1"
   id="stop9" />
<stop
   offset="64.64999999999999%"
   style="stop-color:rgb(113,113,113);stop-opacity: 1"
   id="stop10" />
<stop
   offset="72.34%"
   style="stop-color:rgb(72,72,72);stop-opacity: 1"
   id="stop11" />
<stop
   offset="79.83%"
   style="stop-color:rgb(41,41,41);stop-opacity: 1"
   id="stop12" />
<stop
   offset="87.06%"
   style="stop-color:rgb(18,18,18);stop-opacity: 1"
   id="stop13" />
<stop
   offset="93.92%"
   style="stop-color:rgb(5,5,5);stop-opacity: 1"
   id="stop14" />
<stop
   offset="100%"
   style="stop-color:rgb(0,0,0);stop-opacity: 1"
   id="stop15" />
</linearGradient>


<linearGradient
   id="SVGID_linearGradient85_5"
   gradientUnits="userSpaceOnUse"
   x1="-9.5752001"
   y1="-40.622601"
   x2="111.4338"
   y2="127.9071"
   gradientTransform="matrix(6.99,0,0,6.99,-588.9137,-503.5954)">
<stop
   offset="0%"
   style="stop-color:rgb(255,255,255);stop-opacity: 1"
   id="stop16" />
<stop
   offset="100%"
   style="stop-color:rgb(0,0,0);stop-opacity: 1"
   id="stop17" />
</linearGradient>


<linearGradient
   id="SVGID_linearGradient57_6"
   gradientUnits="userSpaceOnUse"
   x1="-9.5752001"
   y1="-40.622601"
   x2="111.4338"
   y2="127.9071"
   gradientTransform="matrix(6.99,0,0,6.99,-588.9137,-503.5954)">
<stop
   offset="0%"
   style="stop-color:rgb(255,255,255);stop-opacity: 1"
   id="stop18" />
<stop
   offset="100%"
   style="stop-color:rgb(0,0,0);stop-opacity: 1"
   id="stop19" />
</linearGradient>


<linearGradient
   id="SVGID_aigrd5_7"
   gradientUnits="userSpaceOnUse"
   x1="-11.9863"
   y1="-32.7383"
   x2="159.9639"
   y2="185.96539"
   gradientTransform="matrix(6.99,0,0,6.99,-588.9137,-503.5954)">
<stop
   offset="0%"
   style="stop-color:rgb(255,255,255);stop-opacity: 1"
   id="stop20" />
<stop
   offset="100%"
   style="stop-color:rgb(0,0,0);stop-opacity: 1"
   id="stop21" />
</linearGradient>


<linearGradient
   id="SVGID_aigrd6_8"
   gradientUnits="userSpaceOnUse"
   gradientTransform="matrix(6.99,0,0,6.99,-566.0437,-483.2055)"
   x1="54.349602"
   y1="43.6245"
   x2="240.2121"
   y2="328.12881">
<stop
   offset="0%"
   style="stop-color:rgb(255,255,255);stop-opacity: 1"
   id="stop22" />
<stop
   offset="100%"
   style="stop-color:rgb(0,0,0);stop-opacity: 1"
   id="stop23" />
</linearGradient>


<linearGradient
   id="SVGID_aigrd7_9"
   gradientUnits="userSpaceOnUse"
   x1="-21.0117"
   y1="-56.939899"
   x2="129.0739"
   y2="151.3105"
   gradientTransform="matrix(6.99,0,0,6.99,-588.9137,-503.6054)">
<stop
   offset="0%"
   style="stop-color:rgb(255,255,255);stop-opacity: 1"
   id="stop24" />
<stop
   offset="100%"
   style="stop-color:rgb(0,0,0);stop-opacity: 1"
   id="stop25" />
</linearGradient>


<linearGradient
   id="SVGID_aigrd8_10"
   gradientUnits="userSpaceOnUse"
   x1="164.51559"
   y1="191.96629"
   x2="101.1341"
   y2="1.1619999"
   gradientTransform="matrix(6.99,0,0,6.99,-588.8119,-503.5954)">
<stop
   offset="0%"
   style="stop-color:rgb(255,255,255);stop-opacity: 1"
   id="stop26" />
<stop
   offset="100%"
   style="stop-color:rgb(0,0,0);stop-opacity: 1"
   id="stop27" />
</linearGradient>


<linearGradient
   id="SVGID_aigrd9_11"
   gradientUnits="userSpaceOnUse"
   x1="140.9277"
   y1="109.0835"
   x2="114.0488"
   y2="28.167"
   gradientTransform="matrix(6.99,0,0,6.99,-588.7915,-503.6052)">
<stop
   offset="0%"
   style="stop-color:rgb(255,255,255);stop-opacity: 1"
   id="stop28" />
<stop
   offset="100%"
   style="stop-color:rgb(0,0,0);stop-opacity: 1"
   id="stop29" />
</linearGradient>




<linearGradient
   id="SVGID_aigrd10_12"
   gradientUnits="userSpaceOnUse"
   x1="108.9707"
   y1="22.1313"
   x2="113.887"
   y2="17.215099"
   gradientTransform="matrix(6.99,0,0,6.99,-588.8437,-503.7252)">
<stop
   offset="0"
   style="stop-color:#d7e9ff;stop-opacity:1;"
   id="stop30" />
<stop
   offset="47.15%"
   style="stop-color:rgb(137,137,137);stop-opacity: 1"
   id="stop31" />
<stop
   offset="100%"
   style="stop-color:rgb(0,0,0);stop-opacity: 1"
   id="stop32" />
</linearGradient>


<linearGradient
   id="SVGID_aigrd11_13"
   gradientUnits="userSpaceOnUse"
   x1="81.009804"
   y1="52.612801"
   x2="147.9156"
   y2="-19.6299"
   gradientTransform="matrix(6.99,0,0,6.99,-588.8437,-503.7252)">
<stop
   offset="0%"
   style="stop-color:rgb(255,255,255);stop-opacity: 1"
   id="stop33" />
<stop
   offset="100%"
   style="stop-color:rgb(0,0,0);stop-opacity: 1"
   id="stop34" />
</linearGradient>


		
		
		
		
		
		
		
		
		
		
		
		
		
		
<linearGradient
   id="XMLID_1_"
   gradientUnits="userSpaceOnUse"
   x1="63.271"
   y1="34.585899"
   x2="63.271"
   y2="71.583801"><stop
     offset="0"
     style="stop-color:#003DC7"
     id="stop1" /><stop
     offset="1"
     style="stop-color:#4CA4FF"
     id="stop2-8" /><a:midPointStop
     offset="0"
     style="stop-color:#003DC7" /><a:midPointStop
     offset="0.5"
     style="stop-color:#003DC7" /><a:midPointStop
     offset="1"
     style="stop-color:#4CA4FF" /></linearGradient><linearGradient
   id="XMLID_2_"
   gradientUnits="userSpaceOnUse"
   x1="68.250999"
   y1="-3.418"
   x2="68.250999"
   y2="58.083199"><stop
     offset="0"
     style="stop-color:#000051"
     id="stop3-8" /><stop
     offset="1"
     style="stop-color:#58B1FF"
     id="stop4-9" /><a:midPointStop
     offset="0"
     style="stop-color:#000051" /><a:midPointStop
     offset="0.5"
     style="stop-color:#000051" /><a:midPointStop
     offset="1"
     style="stop-color:#58B1FF" /></linearGradient><radialGradient
   id="XMLID_3_"
   cx="73.426804"
   cy="136.78419"
   r="53.151699"
   fx="73.426804"
   fy="136.78419"
   gradientUnits="userSpaceOnUse"><stop
     offset="0"
     style="stop-color:#FFFFFF"
     id="stop5-7" /><stop
     offset="1"
     style="stop-color:#006ACA"
     id="stop6-7" /><a:midPointStop
     offset="0"
     style="stop-color:#FFFFFF" /><a:midPointStop
     offset="0.5"
     style="stop-color:#FFFFFF" /><a:midPointStop
     offset="1"
     style="stop-color:#006ACA" /></radialGradient><radialGradient
   id="XMLID_4_"
   cx="80.670898"
   cy="122.6865"
   r="116.7806"
   fx="80.670898"
   fy="122.6865"
   gradientUnits="userSpaceOnUse"><stop
     offset="0"
     style="stop-color:#CAFFFF"
     id="stop7-6" /><stop
     offset="1"
     style="stop-color:#0090FF"
     id="stop8-4" /><a:midPointStop
     offset="0"
     style="stop-color:#CAFFFF" /><a:midPointStop
     offset="0.5"
     style="stop-color:#CAFFFF" /><a:midPointStop
     offset="1"
     style="stop-color:#0090FF" /></radialGradient><radialGradient
   id="XMLID_5_-3"
   cx="69.948196"
   cy="120.5879"
   r="95.497902"
   fx="69.948196"
   fy="120.5879"
   gradientUnits="userSpaceOnUse"><stop
     offset="0"
     style="stop-color:#FFFFFF"
     id="stop9-0" /><stop
     offset="1"
     style="stop-color:#0095FF"
     id="stop10-3" /><a:midPointStop
     offset="0"
     style="stop-color:#FFFFFF" /><a:midPointStop
     offset="0.5"
     style="stop-color:#FFFFFF" /><a:midPointStop
     offset="1"
     style="stop-color:#0095FF" /></radialGradient><linearGradient
   id="XMLID_6_"
   gradientUnits="userSpaceOnUse"
   x1="63.9995"
   y1="59.084499"
   x2="63.9995"
   y2="145.0817"><stop
     offset="0"
     style="stop-color:#003DC7"
     id="stop11-0" /><stop
     offset="1"
     style="stop-color:#4CA4FF"
     id="stop12-9" /><a:midPointStop
     offset="0"
     style="stop-color:#003DC7" /><a:midPointStop
     offset="0.5"
     style="stop-color:#003DC7" /><a:midPointStop
     offset="1"
     style="stop-color:#4CA4FF" /></linearGradient><radialGradient
   id="XMLID_7_"
   cx="-11.0435"
   cy="-11.376"
   r="103.4305"
   fx="-11.0435"
   fy="-11.376"
   gradientUnits="userSpaceOnUse"><stop
     offset="0"
     style="stop-color:#FFFFFF"
     id="stop13-2" /><stop
     offset="1"
     style="stop-color:#8BCEFF"
     id="stop14-5" /><a:midPointStop
     offset="0"
     style="stop-color:#FFFFFF" /><a:midPointStop
     offset="0.5"
     style="stop-color:#FFFFFF" /><a:midPointStop
     offset="1"
     style="stop-color:#8BCEFF" /></radialGradient><linearGradient
   id="SVGID_SVGID_4__3"
   gradientUnits="userSpaceOnUse"
   gradientTransform="matrix(1,0,0,-1,74,268)"
   x1="-115.2441"
   y1="337.5"
   x2="36.998001"
   y2="337.5">
<stop
   offset="53.849999999999994%"
   style="stop-color:rgb(255,255,255);stop-opacity: 1"
   id="stop5-5" />
<stop
   offset="61.46%"
   style="stop-color:rgb(247,247,247);stop-opacity: 1"
   id="stop6-6" />
<stop
   offset="84.5%"
   style="stop-color:rgb(227,227,227);stop-opacity: 1"
   id="stop7-2" />
<stop
   offset="100%"
   style="stop-color:rgb(219,219,219);stop-opacity: 1"
   id="stop8-9" />
</linearGradient><radialGradient
   id="SVGID_SVGID_5__4"
   gradientUnits="userSpaceOnUse"
   gradientTransform="matrix(1,0,0,-1,74,268)"
   cx="-72.407204"
   cy="294.62991"
   r="90.897903"
   fx="-72.407204"
   fy="294.62991">
<stop
   offset="67.58%"
   style="stop-color:rgb(255,255,255);stop-opacity: 1"
   id="stop9-1" />
<stop
   offset="72.92999999999999%"
   style="stop-color:rgb(247,247,247);stop-opacity: 1"
   id="stop10-2" />
<stop
   offset="89.11%"
   style="stop-color:rgb(227,227,227);stop-opacity: 1"
   id="stop11-7" />
<stop
   offset="100%"
   style="stop-color:rgb(219,219,219);stop-opacity: 1"
   id="stop12-0" />
</radialGradient><radialGradient
   id="SVGID_SVGID_6__5"
   gradientUnits="userSpaceOnUse"
   gradientTransform="matrix(1,0,0,-1,74,268)"
   cx="-78.347702"
   cy="196.5518"
   r="74.675903"
   fx="-78.347702"
   fy="196.5518">
<stop
   offset="67.58%"
   style="stop-color:rgb(255,255,255);stop-opacity: 1"
   id="stop14-9" />
<stop
   offset="72.92999999999999%"
   style="stop-color:rgb(247,247,247);stop-opacity: 1"
   id="stop15-3" />
<stop
   offset="89.11%"
   style="stop-color:rgb(227,227,227);stop-opacity: 1"
   id="stop16-6" />
<stop
   offset="100%"
   style="stop-color:rgb(219,219,219);stop-opacity: 1"
   id="stop17-0" />
</radialGradient><linearGradient
   inkscape:collect="always"
   xlink:href="#linearGradient98"
   id="linearGradient112"
   x1="115.7708"
   y1="189.08882"
   x2="103.00536"
   y2="163.19746"
   gradientUnits="userSpaceOnUse" /><linearGradient
   id="linearGradient98"
   inkscape:collect="always"><stop
     style="stop-color:#00509e;stop-opacity:1;"
     offset="0"
     id="stop113" /><stop
     style="stop-color:#00509e;stop-opacity:0;"
     offset="1"
     id="stop114" /></linearGradient><linearGradient
   inkscape:collect="always"
   xlink:href="#linearGradient98"
   id="linearGradient179"
   gradientUnits="userSpaceOnUse"
   x1="135.82579"
   y1="178.20349"
   x2="135.82579"
   y2="173.02486" /><linearGradient
   id="XMLID_9_"
   gradientUnits="userSpaceOnUse"
   x1="88.084999"
   y1="92.3545"
   x2="40.494202"
   y2="44.763699"><stop
     offset="0"
     style="stop-color:#744426"
     id="stop20-9" /><stop
     offset="1"
     style="stop-color:#DE972B"
     id="stop21-1" /><a:midPointStop
     offset="0"
     style="stop-color:#744426" /><a:midPointStop
     offset="0.5"
     style="stop-color:#744426" /><a:midPointStop
     offset="1"
     style="stop-color:#DE972B" /></linearGradient><linearGradient
   id="XMLID_8_"
   gradientUnits="userSpaceOnUse"
   x1="85.301804"
   y1="89.571297"
   x2="41.845001"
   y2="46.114498"
   gradientTransform="matrix(1,0,0,0.99211958,0,0.19304653)"><stop
     offset="0"
     style="stop-color:#FFE692"
     id="stop18-2" /><stop
     offset="1"
     style="stop-color:#FFFFDC"
     id="stop19-7" /><a:midPointStop
     offset="0"
     style="stop-color:#FFE692" /><a:midPointStop
     offset="0.5"
     style="stop-color:#FFE692" /><a:midPointStop
     offset="1"
     style="stop-color:#FFFFDC" /></linearGradient><linearGradient
   id="XMLID_10_"
   gradientUnits="userSpaceOnUse"
   x1="53.900398"
   y1="108.3457"
   x2="32.1115"
   y2="36.188702"><stop
     offset="0"
     style="stop-color:#FFB82D"
     id="stop22-0" /><stop
     offset="1"
     style="stop-color:#FFFFDC"
     id="stop23-9" /><a:midPointStop
     offset="0"
     style="stop-color:#FFB82D" /><a:midPointStop
     offset="0.5"
     style="stop-color:#FFB82D" /><a:midPointStop
     offset="1"
     style="stop-color:#FFFFDC" /></linearGradient><linearGradient
   id="XMLID_12_"
   gradientUnits="userSpaceOnUse"
   x1="62.387699"
   y1="74.371101"
   x2="62.387699"
   y2="36.490002"><stop
     offset="0"
     style="stop-color:#FFAC2D"
     id="stop26-3" /><stop
     offset="1"
     style="stop-color:#FFFFDC"
     id="stop27-6" /><a:midPointStop
     offset="0"
     style="stop-color:#FFAC2D" /><a:midPointStop
     offset="0.5"
     style="stop-color:#FFAC2D" /><a:midPointStop
     offset="1"
     style="stop-color:#FFFFDC" /></linearGradient><linearGradient
   id="XMLID_13_"
   gradientUnits="userSpaceOnUse"
   x1="80.295898"
   y1="64.916"
   x2="64.228996"
   y2="48.849098"><stop
     offset="0"
     style="stop-color:#744426"
     id="stop28-0" /><stop
     offset="1"
     style="stop-color:#DE972B"
     id="stop29-6" /><a:midPointStop
     offset="0"
     style="stop-color:#744426" /><a:midPointStop
     offset="0.5"
     style="stop-color:#744426" /><a:midPointStop
     offset="1"
     style="stop-color:#DE972B" /></linearGradient><linearGradient
   id="XMLID_14_"
   gradientUnits="userSpaceOnUse"
   x1="73.048798"
   y1="42.361801"
   x2="61.8241"
   y2="39.339401"><stop
     offset="0"
     style="stop-color:#744426"
     id="stop30-2" /><stop
     offset="1"
     style="stop-color:#DE972B"
     id="stop31-6" /><a:midPointStop
     offset="0"
     style="stop-color:#744426" /><a:midPointStop
     offset="0.5"
     style="stop-color:#744426" /><a:midPointStop
     offset="1"
     style="stop-color:#DE972B" /></linearGradient><linearGradient
   id="XMLID_11_"
   gradientUnits="userSpaceOnUse"
   x1="37.746269"
   y1="124.71779"
   x2="92.718666"
   y2="143.35857"><stop
     offset="0"
     style="stop-color:#FFA221"
     id="stop24-1" /><stop
     offset="1"
     style="stop-color:#FFE192"
     id="stop25-8" /><a:midPointStop
     offset="0"
     style="stop-color:#FFA221" /><a:midPointStop
     offset="0.5"
     style="stop-color:#FFA221" /><a:midPointStop
     offset="1"
     style="stop-color:#FFE192" /></linearGradient><linearGradient
   id="XMLID_4_-3"
   gradientUnits="userSpaceOnUse"
   x1="-3.7275"
   y1="10.6514"
   x2="127.5933"
   y2="10.6514"><stop
     offset="0"
     style="stop-color:#B3CAFF"
     id="stop10-5" /><stop
     offset="1"
     style="stop-color:#0053BD"
     id="stop11-6" /><a:midPointStop
     offset="0"
     style="stop-color:#B3CAFF" /><a:midPointStop
     offset="0.5"
     style="stop-color:#B3CAFF" /><a:midPointStop
     offset="1"
     style="stop-color:#0053BD" /></linearGradient></defs>


<g
   transform="matrix(0.26402606,0,0,0.26402606,131.96762,133.05986)"
   id="g36">
<path
   style="visibility:hidden;opacity:0.15;fill:#000000;fill-rule:nonzero;stroke:none;stroke-width:0;stroke-linecap:butt;stroke-linejoin:miter;stroke-miterlimit:4;stroke-dasharray:none;stroke-dashoffset:0"
   vector-effect="non-scaling-stroke"
   d="m 333.3445,-258.3793 -0.72696,-1.92225 c -0.34251,-1.06248 -0.7689,-2.20884 -1.35606,-3.50199 -1.48188,-3.6348 -3.29928,-7.03893 -5.57103,-10.21938 -20.78826,-34.02732 -78.07131,-101.39694 -98.41221,-121.46523 -41.92602,-41.35983 -118.45953,-91.19853 -147.23736,-102.37554 -0.17475,-0.0839 -0.35649,-0.18174 -0.53124,-0.26562 l -4.43865,-2.04807 H 71.24047 70.171 c -28.69395,0 -445.01136,0 -445.01136,0 V 458.21453 H 333.3445 c 0,0 0,-697.37133 0,-714.99312 0,-0.44736 -0.0839,-0.99957 -0.18873,-1.55877 0.0979,-0.021 0.18873,-0.0419 0.18873,-0.0419 z"
   stroke-linecap="round"
   id="path1" /><path
   style="fill:#ffffff;fill-opacity:1;fill-rule:nonzero;stroke:none;stroke-width:0;stroke-linecap:butt;stroke-linejoin:miter;stroke-miterlimit:4;stroke-dasharray:none;stroke-dashoffset:0"
   vector-effect="non-scaling-stroke"
   d="m 335.76544,-255.48535 -0.71997,-1.92225 c -0.34251,-1.06248 -0.77589,-2.20884 -1.36305,-3.50199 -1.48887,-3.6348 -3.29928,-7.03893 -5.57103,-10.21938 -20.78826,-34.02033 -78.0783,-101.39694 -98.41221,-121.46523 -41.91903,-41.35983 -118.46652,-91.19154 -147.23037,-102.37554 -0.18174,-0.0839 -0.35649,-0.18174 -0.54522,-0.26562 l -4.43166,-2.05506 h -3.83052 -1.06947 c -28.68696,0 -445.01835,0 -445.01835,0 v 958.3989 h 708.19185 c 0,0 0,-697.37832 0,-714.99312 0,-0.45435 -0.0909,-1.00656 -0.19572,-1.56576 0.11184,-0.021 0.19572,-0.0419 0.19572,-0.0419 z"
   stroke-linecap="round"
   id="path3"
   inkscape:label="colorpath3" /><path
   style="opacity:0.2;fill:url(#SVGID_aigrd1_3);fill-rule:nonzero;stroke:none;stroke-width:0;stroke-linecap:butt;stroke-linejoin:miter;stroke-miterlimit:4;stroke-dasharray:none;stroke-dashoffset:0"
   vector-effect="non-scaling-stroke"
   d="m -27.13439,-18.31684 c -137.32554,30.71406 -286.70184,223.16973 -286.70184,310.76142 0,0 0,61.89645 0,110.92431 61.5819,0 529.4226,0 590.99751,0 0,-63.52512 0,-667.30734 0,-692.69502 -3.48102,-1.20228 -31.55286,-2.03409 -40.60491,-3.62082 -20.9001,138.12939 -126.35124,243.91605 -263.69775,274.62312 z"
   stroke-linecap="round"
   id="path4" /><path
   style="fill:url(#SVGID_aigrd2_4);fill-rule:nonzero;stroke:none;stroke-width:0;stroke-linecap:butt;stroke-linejoin:miter;stroke-miterlimit:4;stroke-dasharray:none;stroke-dashoffset:0"
   vector-effect="non-scaling-stroke"
   d="m 72.71004,-475.76423 c 13.37187,6.18615 32.58039,27.30993 32.58039,189.59676 180.95013,0 201.73839,16.01409 208.62354,34.39779 0,0.43338 21.97656,-3.87246 21.97656,-3.87246 l -1.35606,-3.6348 c -12.02979,-32.17497 -45.98721,-47.23842 -207.40728,-48.46167 -1.50285,-139.29672 -17.80353,-175.0296 -45.07851,-187.66053 l -4.43166,-2.05506 h -4.89999 c 0,0 -0.6291,21.68298 0,21.68298 z"
   stroke-linecap="round"
   id="path15" /><path
   style="fill:url(#SVGID_linearGradient85_5);fill-rule:nonzero;stroke:none;stroke-width:0;stroke-linecap:butt;stroke-linejoin:miter;stroke-miterlimit:4;stroke-dasharray:none;stroke-dashoffset:0"
   vector-effect="non-scaling-stroke"
   d="m 335.76544,-255.48535 -0.71997,-1.92225 c -0.34251,-1.06248 -0.77589,-2.20884 -1.36305,-3.50199 -1.48887,-3.6348 -3.29928,-7.03893 -5.57103,-10.21938 -20.78826,-34.02033 -78.0783,-101.39694 -98.41221,-121.46523 -41.91903,-41.35983 -118.46652,-91.19154 -147.23037,-102.37554 -0.18174,-0.0839 -0.35649,-0.18174 -0.54522,-0.26562 l -4.43166,-2.05506 h -3.83052 -1.06947 c -28.68696,0 -445.01835,0 -445.01835,0 v 958.3989 h 708.19185 c 0,0 0,-697.37832 0,-714.99312 0,-0.45435 -0.0909,-1.00656 -0.19572,-1.56576 0.11184,-0.021 0.19572,-0.0419 0.19572,-0.0419 z m -51.96366,-40.18551 c -30.36456,-7.45833 -78.59556,-11.30982 -156.79968,-11.90397 -0.78987,-73.36005 -5.68986,-117.97023 -14.12679,-145.62966 30.03603,18.16002 70.31241,45.37209 101.2851,75.94635 15.91623,15.71352 46.44156,51.5862 69.64137,81.59427 z m 29.99409,735.09636 c -39.94785,0 -624.30486,0 -664.23873,0 0,-40.45812 0,-874.56783 0,-915.03294 39.71718,0 417.10728,0 423.04179,0 13.37187,6.18615 32.58039,27.30993 32.58039,189.59676 159.39297,0 194.50374,12.42123 205.30329,27.96 1.48188,2.53038 2.70513,4.80912 3.32025,6.43779 0,4.37574 0,650.40552 0,691.03839 z"
   stroke-linecap="round"
   id="path17" /><path
   style="fill:url(#SVGID_linearGradient57_6);fill-rule:nonzero;stroke:none;stroke-width:0;stroke-linecap:butt;stroke-linejoin:miter;stroke-miterlimit:4;stroke-dasharray:none;stroke-dashoffset:0"
   vector-effect="non-scaling-stroke"
   d="m 335.76544,-255.48535 -0.71997,-1.92225 c -0.34251,-1.06248 -0.77589,-2.20884 -1.36305,-3.50199 -1.48887,-3.6348 -3.29928,-7.03893 -5.57103,-10.21938 -20.78826,-34.02033 -78.0783,-101.39694 -98.41221,-121.46523 -41.91903,-41.35983 -118.46652,-91.19154 -147.23037,-102.37554 -0.18174,-0.0839 -0.35649,-0.18174 -0.54522,-0.26562 l -4.43166,-2.05506 h -3.83052 -1.06947 c -28.68696,0 -445.01835,0 -445.01835,0 v 958.3989 h 708.19185 c 0,0 0,-697.37832 0,-714.99312 0,-0.45435 -0.0909,-1.00656 -0.19572,-1.56576 0.11184,-0.021 0.19572,-0.0419 0.19572,-0.0419 z m -51.96366,-40.18551 c -30.36456,-7.45833 -78.59556,-11.30982 -156.79968,-11.90397 -0.78987,-73.36005 -5.68986,-117.97023 -14.12679,-145.62966 30.03603,18.16002 70.31241,45.37209 101.2851,75.94635 15.91623,15.71352 46.44156,51.5862 69.64137,81.59427 z m 29.99409,735.09636 c -39.94785,0 -624.30486,0 -664.23873,0 0,-40.45812 0,-874.56783 0,-915.03294 39.71718,0 417.10728,0 423.04179,0 13.37187,6.18615 32.58039,27.30993 32.58039,189.59676 159.39297,0 194.50374,12.42123 205.30329,27.96 1.48188,2.53038 2.70513,4.80912 3.32025,6.43779 0,4.37574 0,650.40552 0,691.03839 z"
   stroke-linecap="round"
   id="path19" /><g
   id="g26"
   transform="matrix(2.2917179,0,0,2.2917179,-422.23089,-169.02951)"><rect
     style="fill:#f8b50e;fill-opacity:1;fill-rule:evenodd;stroke-width:10.433"
     id="rect40"
     width="206.31389"
     height="184.03587"
     x="72.645737"
     y="-57.14798" /><path
     style="fill:#facd5d"
     d="m 115.03238,137.81077 58.25,-0.26627 58.25,0.26627 58.25,0.26628 h -116.5 -116.500001 z"
     id="path40" /><path
     style="fill:#f9c23b"
     d="m 57.764233,33.060616 8.2e-5,-105 0.267912,52.826502 0.267912,52.826502 -0.267994,52.173498 -0.267994,52.173502 z m 230.999997,0 9e-5,-105 0.26791,52.826502 0.26791,52.826502 -0.268,52.173498 -0.26799,52.173502 z"
     id="path39" /><path
     style="fill:#fac00f"
     d="m 87.687367,108.31062 -1.904988,-2.25 2.25,1.90498 2.25,1.90499 v 0.34501 0.34502 h -0.345012 -0.345013 z m 103.467453,0.5 -1.37244,-1.75 1.75,1.37244 1.75,1.37244 v 0.37756 0.37756 h -0.37756 -0.37755 z m 67.12756,1.37244 v -0.37756 l 1.75,-1.37244 1.75,-1.37244 -1.37245,1.75 -1.37244,1.75 h -0.37756 -0.37755 z m -106.84211,-2.62244 v -2.5 l 0.50439,1.25 0.50439,1.25 -0.50439,1.25 -0.50439,1.25 z m 33.2471,-4.25 -1.90499,-2.25 2.25,1.90498 2.25,1.90499 v 0.34501 0.34502 h -0.34501 -0.34502 z M 84.754869,34.560616 v -67.5 l 0.277057,33.74999954 0.277057,33.75000046 -0.277057,33.75 -0.277057,33.750004 z m 93.932501,63.75 -1.90499,-2.25 2.25,1.904987 2.25,1.904988 v 0.345009 0.34502 h -0.34501 -0.34502 z m 58.0321,-4 -2.93709,-3.25 3.495,3 3.49501,3 0.42166,0.25 0.42166,0.25 h -0.97957 -0.97958 z m -64.0321,-1 -1.90499,-2.25 2.25,1.904987 2.25,1.904988 v 0.345012 0.345013 h -0.34501 -0.34502 z m 67,-1 -1.90499,-2.25 2.25,1.904987 2.25,1.904988 v 0.345012 0.345013 h -0.34501 -0.34502 z m -73,-4 -1.90499,-2.25 2.25,1.904987 2.25,1.904988 v 0.345012 0.345013 h -0.34501 -0.34502 z m -28.53255,-0.5 -1.37244,-1.75 1.75,1.372444 1.75,1.372445 v 0.377555 0.377556 h -0.37756 -0.37755 z m 103.12756,-3.75 3.39233,-3.5 h 0.5 0.5 l -3.39233,3.5 -3.39233,3.5 h -0.5 -0.5 z m -7,2.187091 v -0.312909 l 3.25,-2.937091 3.25,-2.937091 -2.93709,3.25 -2.93709,3.25 h -0.31291 -0.31291 z m -74.59501,-3.937091 -1.90499,-2.25 2.25,1.904987 2.25,1.904988 v 0.345012 0.345013 h -0.34501 -0.34502 z m -6,-5 -1.90499,-2.25 2.25,1.904987 2.25,1.904988 v 0.345012 0.345013 h -0.34501 -0.34502 z m -6,-5 -1.90499,-2.25 2.25,1.904987 2.25,1.904988 v 0.345012 0.345013 h -0.34501 -0.34502 z m 79.59501,-2.656381 v -0.90638 l 2,0.523012 2,0.523011 v 0.383369 0.383369 h -2 -2 z m 15,0.04505 v -0.861328 l 2.5,0.477906 2.5,0.477905 v 0.383423 0.383423 h -2.5 -2.5 z m -100.59501,-2.388671 -1.90499,-2.25 2.25,1.904987 2.25,1.904988 v 0.345012 0.345013 h -0.34501 -0.34502 z m 92.85876,-0.467582 2.76375,-0.417917 2.23625,0.431567 2.23625,0.431567 -5,-0.01365 -5,-0.01365 z m -99.85876,-5.532418 -1.90499,-2.25 2.25,1.904987 2.25,1.904988 v 0.345012 0.345013 h -0.34501 -0.34502 z m -6,-5 -1.90499,-2.25 2.25,1.904987 2.25,1.904988 v 0.345012 0.345013 h -0.34501 -0.34502 z m 104.84589,-1.75 0.40314,-1.5 3.17299,-0.313359 3.17299,-0.313358 v 0.924686 0.924687 l -2.60637,-0.498239 -2.60637,-0.498239 -0.96976,1.386911 -0.96976,1.386911 z m -110.84589,-3.25 -1.90499,-2.25 2.25,1.904987 2.25,1.904988 v 0.345012 0.345013 h -0.34501 -0.34502 z m -13.53255,-3.5 -1.37244,-1.75 1.75,1.372444 1.75,1.372445 v 0.377555 0.377556 h -0.37756 -0.37755 z m 7.53255,-1.5 -1.90499,-2.25 2.25,1.904987 2.25,1.904988 v 0.345012 0.345013 h -0.34501 -0.34502 z m -7,-6 -1.90499,-2.25 2.25,1.904987 2.25,1.904988 v 0.345012 0.345013 h -0.34501 -0.34502 z m 131.67834,1.967032 0.41667,-0.282968 2,-1.467032 2,-1.467032 -1.37245,1.75 -1.37244,1.75 h -1.04422 -1.04422 z m 4.18903,-7.717032 v -4.5 l 0.43337,2.25 0.43337,2.25 -0.43337,2.25 -0.43337,2.25 z m -144.11447,0 v -2.5 l 0.50439,1.25 0.50439,1.25 -0.50439,1.25 -0.50439,1.25 z m 141.03706,-0.5 0.037,-3 0.46099,1.769031 0.46099,1.769032 -0.49804,1.230968 -0.49805,1.230969 z m -131.69495,-5.5 1.80997,-2 h 0.5 0.5 l -1.80997,2 -1.80998,2 h -0.5 -0.5 z m 120.22769,-2.721732 3.2277,-0.401658 3.7723,0.393591 3.77231,0.393592 -7,0.0081 -7,0.0081 z M 106.28238,25.18306 v -0.377555 l 1.75,-1.372445 1.75,-1.372444 -1.37245,1.75 -1.37244,1.75 h -0.37756 -0.37755 z m 11,-2.122444 2.34863,-2.5 h 0.5 0.5 l -2.34863,2.5 -2.34863,2.5 h -0.5 -0.5 z m 6.5,-5.5 1.80997,-2 h 0.5 0.5 l -1.80997,2 -1.80998,2 h -0.5 -0.5 z m 7,-6 1.80997,-2.0000005 h 0.5 0.5 l -1.80997,2.0000005 -1.80998,2 h -0.5 -0.5 z m 7,-6.0000005 1.80997,-2 h 0.5 0.5 l -1.80997,2 -1.80998,2 h -0.5 -0.5 z m 6.5,-5.49999996 2.34863,-2.50000004 h 0.5 0.5 l -2.34863,2.50000004 -2.34863,2.49999996 h -0.5 -0.5 z m -20,0.12244471 v -0.37755528 l 1.75,-1.37244467 1.75,-1.3724448 -1.37245,1.75 -1.37244,1.75000004 h -0.37756 -0.37755 z m 26.5,-5.62244475 1.80997,-2 h 0.5 0.5 l -1.80997,2 -1.80998,2 h -0.5 -0.5 z m -21.5,-1.3775552 V -7.194495 l 1.75,-1.3724447 1.75,-1.3724448 -1.37245,1.75 -1.37244,1.75 h -0.37756 -0.37755 z m 28.5,-4.6224443 1.80997,-2 h 0.5 0.5 l -1.80997,2 -1.80998,1.9999995 h -0.5 -0.5 z m 71.25,-0.662281 1.25,-0.504386 1.25,0.504386 1.25,0.504386 h -2.5 -2.5 z m 8.68709,-2.587719 -2.93709,-3.25 3,2.672598 3,2.672599 3,0.427569 3,0.427569 -3.06291,0.149832 -3.06291,0.149833 z m -73.43709,-2.25 2.34863,-2.5 h 0.5 0.5 l -2.34863,2.5 -2.34863,2.5 h -0.5 -0.5 z m 6.5,-5.5 1.80997,-2 h 0.5 0.5 l -1.80997,2 -1.80998,2 h -0.5 -0.5 z m 70.5,-2.5 3.39233,-3.5 h 0.5 0.5 l -3.39233,3.5 -3.39233,3.5 h -0.5 -0.5 z m -7,2.187091 v -0.312909 l 3.25,-2.937091 3.25,-2.937091 -2.93709,3.25 -2.93709,3.25 h -0.31291 -0.31291 z m -56.5,-5.687091 1.80997,-2 h 0.5 0.5 l -1.80997,2 -1.80998,2 h -0.5 -0.5 z m -30.5,-3.377556 v -0.377555 l 1.75,-1.372445 1.75,-1.372444 -1.37245,1.75 -1.37244,1.75 h -0.37756 -0.37755 z m 37.5,-2.622444 1.80997,-2 h 0.5 0.5 l -1.80997,2 -1.80998,2 h -0.5 -0.5 z m -33.42105,-4.583334 0.0789,-1.916666 0.52522,1.3125 0.52522,1.3125 -0.60416,0.604166 -0.60417,0.604167 z m 37.92105,1.205778 v -0.377555 l 1.75,-1.372445 1.75,-1.372444 -1.37245,1.75 -1.37244,1.75 h -0.37756 -0.37755 z m -102.000001,-1 v -0.377555 l 1.75,-1.372445 1.75,-1.372444 -1.372445,1.75 -1.372444,1.75 h -0.377556 -0.377555 z m 171.872441,-1.372444 -1.37244,-1.75 1.75,1.372444 1.75,1.372445 v 0.377555 0.377556 h -0.37756 -0.37755 z"
     id="path38" /><path
     style="fill:#f9bb0f"
     d="m 94.935944,112.81062 -0.464468,-0.75 26.531614,0.28234 26.53161,0.28235 2.62384,-1.5917 2.62384,-1.5917 -2.36078,2.05936 -2.36079,2.05935 h -26.3302 -26.330197 z m 104.000946,0 -0.46353,-0.75 h 27.80902 27.80902 l -0.46353,0.75 -0.46352,0.75 h -26.88197 -26.88197 z m -107.654511,-1.25 -1.5,-0.96938 1.190983,-0.0153 1.190983,-0.0153 0.618034,1 0.618034,1 -0.309017,-0.0153 -0.309017,-0.0153 z m 96.981001,-4.5229 -1.26389,-1.52289 1.64145,0.62988 1.64144,0.62988 v 0.89301 0.89302 h -0.37756 -0.37755 z m -103.522119,-3.54364 -0.659153,-1.06653 0.476597,-0.47659 0.476597,-0.4766 0.592154,1.54313 0.592154,1.54313 h -0.409599 -0.409598 z m 97.413559,-1.68346 -1.37244,-1.75 1.75,1.37244 1.75,1.37244 v 0.37756 0.37756 h -0.37756 -0.37755 z m 81.60079,-67.250004 v -69.5 l 0.27634,34.74999954 0.27635,34.75000046 -0.27635,34.75 -0.27634,34.750004 z m -87.97323,62 -0.61803,-1 h 1.05901 1.05902 v 1 1 h -0.44098 -0.44099 z m 52,-7.427759 V 80.95545 l 2.5,-0.08583 2.5,-0.08583 -1.75,0.461734 -1.75,0.461735 0.13164,7.676676 0.13164,7.676676 0.7776,-3.5 0.77761,-3.5 -0.15925,3.410553 -0.15924,3.410552 -1.5,0.214271 -1.5,0.214271 z m 14.25623,7.763401 1.25623,-0.506463 -0.66074,-1.069098 -0.66074,-1.069098 1.15451,0.713525 1.15451,0.713526 v 0.940983 0.940983 l -1.75,-0.07895 -1.75,-0.07895 z m -6.25623,-4.005161 -4,-3.586265 2,1.03607 2,1.036069 2.42431,2.591822 2.42432,2.591823 -0.42432,-0.04163 -0.42431,-0.04163 z m -93.5,0.610502 v -1.059017 l 1,0.618034 1,0.618034 v 0.440983 0.440983 h -1 -1 z m 27.5,-1.940983 -0.61803,-1 h 1.05901 1.05902 v 1 1 h -0.44098 -0.44099 z m 67.0427,-1.930902 -0.57532,-0.930902 0.84964,-0.525109 0.84965,-0.52511 v 1.456011 1.456012 h -0.27432 -0.27432 z m -0.42131,-5.028086 4.37861,-3.958987 2,0.07499 2,0.07499 -2,0.501117 -2,0.501117 -3.75288,3.382882 -3.75288,3.382882 h -0.62573 -0.62573 z m -73.14039,1.436095 -1.26389,-1.522892 1.64145,0.629881 1.64144,0.629881 v 0.893011 0.893012 h -0.37756 -0.37755 z m -28.981,-3.536124 v -1.059017 l 1,0.618034 1,0.618034 v 0.440983 0.440983 h -1 -1 z m 22.87244,-1.690983 -1.37244,-1.75 1.75,1.372444 1.75,1.372445 v 0.377555 0.377556 h -0.37756 -0.37755 z m -27.87244,-5.309017 v -1.059017 l 1,0.618034 1,0.618034 v 0.440983 0.440983 h -1 -1 z m 21.5,0.05902 -0.61803,-1 h 1.05901 1.05902 v 1 1 h -0.44098 -0.44099 z m -24.5,-4.059017 v -1.059017 l 1,0.618034 1,0.618034 v 0.440983 0.440983 h -1 -1 z m 18.5,-0.940983 -0.61803,-1 h 1.05901 1.05902 v 1 1 h -0.44098 -0.44099 z m -6.519,-5.522893 -1.26389,-1.522892 1.64145,0.629881 1.64144,0.629881 v 0.893011 0.893012 h -0.37756 -0.37755 z m 97.28803,-0.170098 1.76903,-0.460988 1.23097,0.498042 1.23097,0.498042 -3,-0.03705 -3,-0.03705 z M 118.28238,60.501599 v -1.059017 l 1,0.618034 1,0.618034 v 0.440983 0.440983 h -1 -1 z m 13.87244,-0.690983 -1.37244,-1.75 1.75,1.372444 1.75,1.372445 v 0.377555 0.377556 h -0.37756 -0.37755 z m -6.37244,-5.25 -0.61803,-1 h 1.05901 1.05902 v 1 1 h -0.44098 -0.44099 z m -6,-5 -0.61803,-1 h 1.05901 1.05902 v 1 1 h -0.44098 -0.44099 z m -6.519,-5.522893 -1.26389,-1.522892 1.64145,0.629881 1.64144,0.629881 v 0.893011 0.893012 h -0.37756 -0.37755 z m -7.981,-1.536124 v -1.059017 l 1,0.618034 1,0.618034 v 0.440983 0.440983 h -1 -1 z m 122.5,-7.994996 v -8.755004 l 0.75,0.463525 0.75,0.463526 v 8.029803 8.029804 l 5.90736,-0.338821 5.90735,-0.33882 -0.49722,0.799921 -0.49723,0.799921 -6.16013,-0.199425 -6.16013,-0.199425 z m 5.5,6.667512 v -0.386501 l 2.94719,-0.432555 2.94718,-0.432555 -0.5062,0.819056 -0.5062,0.819056 h -2.44099 -2.44098 z m -126.19291,-2.363499 -1.50288,-1.75 -0.71112,-1.25 -0.71112,-1.25 h 0.37095 0.37096 l 2.218,3 2.21799,3 h -0.37495 -0.37495 z m 124.47892,-4.75 0.0137,-5 0.41792,2.763749 0.41792,2.76375 -0.43157,2.23625 -0.43157,2.236251 z m -124.88102,-2.358347 1.90498,-2.141653 h 0.34502 0.34501 v 0.759453 0.759453 l -2.25,1.382201 -2.25,1.3822 z m 134.46745,-1.891653 -1.37244,-1.75 1.75,1.372444 1.75,1.372445 v 0.377555 0.377556 h -0.37756 -0.37755 z m -137.87244,-0.25 v -1 h 1.05902 1.05901 l -0.61803,1 -0.61803,1 h -0.44099 -0.44098 z m 130.76166,-1.707261 2.26166,-0.434897 1.73834,0.455077 1.73834,0.455078 -4,-0.02018 -4,-0.02018 z M 113.28238,26.18306 v -0.377555 l 1.75,-1.372445 1.75,-1.372444 -1.37245,1.75 -1.37244,1.75 h -0.37756 -0.37755 z m 7.5,-6.622444 0.61803,-1 h 0.44099 0.44098 v 1 1 h -1.05902 -1.05901 z m -9.5,-1 v -1 h 1.05902 1.05901 l -0.61803,1 -0.61803,1 h -0.44099 -0.44098 z m 124.8125,-2.683114 1.3125,-0.52522 0.60417,0.604167 0.60416,0.604167 -1.91666,-0.07895 -1.91667,-0.07895 z m -109.8125,-0.725827 v -0.34617 l 1.5,-1.244889 1.5,-1.24489 v 1.015456 1.015456 l -1.5,0.575604 -1.5,0.575604 z m 102.87244,-2.341059 -1.37244,-1.75 1.75,1.372444 1.75,1.372445 v 0.377555 0.377556 h -0.37756 -0.37755 z m 6.94006,0.06689 1.3125,-0.52522 0.60417,0.604167 0.60416,0.604167 -1.91666,-0.07895 -1.91667,-0.07895 z m 3.1875,0.274173 v -0.34617 l 1.5,-1.244889 1.5,-1.24489 v 1.015456 1.015456 l -1.5,0.575604 -1.5,0.575604 z m -123,-1.591059 v -1 h 1.05902 1.05901 l -0.61803,1 -0.61803,1 h -0.44099 -0.44098 z m 110.5064,-2.9798212 -0.62837,-1.9798207 0.86099,-1.5384913 0.86098,-1.5384913 v 3.518312 3.5183125 h -0.23261 -0.23262 z m 18.8936,-1.6372046 V 3.2899408 l 0.90707,2.032812 0.90706,2.0328119 -0.90706,1.6208374 -0.90707,1.6208379 z m -112.4,2.2080853 V 8.805505 l 1.5,-1.2448895 1.5,-1.2448894 V 7.331182 8.3466379 l -1.5,0.575604 -1.5,0.575604 z m 109.5,-2.09106 v -2.309017 l 0.75,0.4635255 0.75,0.4635255 v 1.381966 1.3819661 l -0.75,0.4635254 -0.75,0.4635255 z m -13.5,-0.440983 v -0.940983 l 0.98854,-0.6109548 0.98855,-0.6109547 -0.59553,1.5519378 -0.59554,1.5519377 h -0.39301 -0.39301 z m -108,-2.059017 v -1 h 1.05902 1.05901 l -0.61803,1 -0.61803,1 h -0.44099 -0.44098 z m 19.5,-2 0.61803,-1 h 0.44099 0.44098 v 1 1 h -1.05902 -1.05901 z m 90.5,0.1069888 V 1.7745931 l 1.64144,-0.6298809 1.64145,-0.62988103 -1.26389,1.52289223 -1.26389,1.5228921 h -0.37756 -0.37755 z m 8.981,-0.6298809 -1.26389,-1.52289223 1.64145,0.62988103 1.64144,0.6298809 v 0.8930112 0.8930112 h -0.37756 -0.37755 z m -6.981,-2.9604765 v -0.2833686 l 1.76597,-0.4618111 1.76597,-0.4618111 1.98403,0.7219966 1.98403,0.72199653 -3.75,0.0231831 -3.75,0.0231832 z m -85.5,-2.5166314 0.61803,-1 h 0.44099 0.44098 v 1 1 h -1.05902 -1.05901 z m 5.5,-4.40894 V -8.194495 l 1.5,-1.2448895 1.5,-1.2448895 v 1.015456 1.0154559 l -1.5,0.575604 -1.5,0.575604 z m 74.5,-12.1865515 v -8.404508 l 2.5,0.116001 2.5,0.116001 -1.75,0.457323 -1.75,0.457323 v 7.367659 7.367659 l -0.75,0.463525 -0.75,0.463526 z m -93.5,6.595492 v -1 h 1.05902 1.05901 l -0.61803,1 -0.61803,1 h -0.44099 -0.44098 z m 97.19495,-1.5 0.037,-3 0.46099,1.769031 0.46099,1.769032 -0.49804,1.230968 -0.49805,1.230969 z m 10.21004,0.25 -1.90499,-2.25 2.5,1.989343 2.5,1.989343 0.41667,0.260657 0.41666,0.260657 h -1.01168 -1.01168 z m -81.40499,0.872444 v -0.377555 l 1.75,-1.372445 1.75,-1.372444 -1.37245,1.75 -1.37244,1.75 h -0.37756 -0.37755 z m 73,-4.622444 -1.5,-0.969375 1.19098,-0.01531 1.19099,-0.01531 0.61803,1 0.61803,1 -0.30901,-0.01531 -0.30902,-0.01531 z m 3.5427,-0.930902 -0.57532,-0.930902 0.84964,-0.525109 0.84965,-0.52511 v 1.456011 1.456012 h -0.27432 -0.27432 z m -97.5427,-1.069098 v -1 h 1.05902 1.05901 l -0.61803,1 -0.61803,1 h -0.44099 -0.44098 z m 28.5,0 0.61803,-1 h 0.44099 0.44098 v 1 1 h -1.05902 -1.05901 z m 64.5,-0.429633 v -0.5 l 2,-1.070367 2,-1.070368 v 0.5 0.5 l -2,1.070368 -2,1.070367 z m -59,-3.979308 v -0.34617 l 1.5,-1.244889 1.5,-1.24489 v 1.015456 1.015456 l -1.5,0.575604 -1.5,0.575604 z m -29,-2.591059 v -1 h 1.05902 1.05901 l -0.61803,1 -0.61803,1 h -0.44099 -0.44098 z m 96.75,-0.662281 1.25,-0.504386 1.25,0.504386 1.25,0.504386 h -2.5 -2.5 z m -60.75,-2.74666 v -0.34617 l 1.5,-1.244889 1.5,-1.24489 v 1.015456 1.015456 l -1.5,0.575604 -1.5,0.575604 z m -96.000001,-2.532042 v -0.940983 l 0.988546,-0.610955 0.988545,-0.610955 -0.595534,1.551938 -0.595534,1.551938 H 84.67539 84.282379 Z M 187.28238,-36.81694 v -0.377555 l 1.52289,-1.263888 1.52289,-1.263889 -0.62988,1.641444 -0.62988,1.641444 h -0.89301 -0.89301 z m 5.5,-4.622444 0.61803,-1 h 0.44099 0.44098 v 1 1 h -1.05902 -1.05901 z m -71,-2 -28.000001,-0.547709 27.690981,-0.226146 27.69099,-0.226145 0.61803,1 0.61803,1 -0.30901,-0.226146 -0.30902,-0.226146 z m 90.25,-0.747719 14.25,-0.307195 14.25,0.307195 14.25,0.307195 h -28.5 -28.5 z m -96.5,-27.002121 57.75,-0.266407 57.75,0.266407 57.75,0.266407 h -115.5 -115.500001 z"
     id="path37" /><path
     style="fill:#f8b50e"
     d="m 58.282379,33.560616 v -104 h 115.000001 115 v 104 104.000004 h -115 -115.000001 z m 91.777491,78.443294 2.22251,-1.5567 v -2.26728 -2.26727 l -3.32819,-4.68117 -3.32819,-4.681165 -0.67181,0.505145 -0.67181,0.505146 0.46482,-0.631483 0.46481,-0.631483 -1.01499,-1.896526 -1.01499,-1.896525 -1.10433,0.682517 -1.10434,0.682517 0.62129,-1.005261 0.62128,-1.005261 -2.31353,-3.135821 -2.31354,-3.135822 -0.65324,0.486574 -0.65324,0.486574 0.46482,-0.631483 0.46481,-0.631483 -1.01499,-1.896526 -1.01499,-1.896525 -0.9746,0.602338 -0.9746,0.602338 0.14319,-0.82433 0.1432,-0.824329 -0.11842,-1.309017 -0.11842,-1.309017 -1.25,0.719342 -1.25,0.719342 0.71482,-0.791808 0.71481,-0.791808 -1.01499,-1.896526 -1.01499,-1.896525 -1.19982,0.688334 -1.19983,0.688333 0.71482,-0.791808 0.71481,-0.791808 -1.01499,-1.896526 -1.01499,-1.896525 -1.10433,0.682517 -1.10434,0.682517 0.62129,-1.005261 0.62128,-1.005261 -2.31353,-3.135821 -2.31354,-3.135822 -0.81357,0.736574 -0.81356,0.736574 0.63155,-1.107957 0.63156,-1.107956 -3.82284,-5.123765 -3.82285,-5.123765 -0.80871,0.731721 -0.80871,0.731722 0.6271,-1.100752 0.6271,-1.100753 -2.31353,-3.135821 -2.31354,-3.135822 -0.65324,0.486574 -0.65324,0.486574 0.46482,-0.631483 0.46481,-0.631483 -1.01499,-1.896526 -1.01499,-1.896525 -0.9746,0.602338 -0.9746,0.602338 0.14319,-0.82433 0.1432,-0.824329 -0.11842,-1.309017 -0.11842,-1.309017 -0.98855,0.610954 -0.98854,0.610955 0.65848,-1.715983 0.65849,-1.715982 -0.91994,0.568553 -0.91994,0.568554 v -2.821176 -2.821175 l 0.42472,0.424725 0.42473,0.424726 1.76834,-2.695676 1.76834,-2.695675 -0.60339,-1.062383 -0.60339,-1.062383 0.81356,0.736573 0.81357,0.736574 2.31354,-3.135822 2.31353,-3.135821 -0.62128,-1.005261 -0.62129,-1.00526 1.10434,0.682516 1.10433,0.682517 1.01499,-1.896525 1.01499,-1.896526 -0.71481,-0.791808 -0.71482,-0.791808 1.25,0.719342 1.25,0.719343 0.11842,-1.309017 0.11842,-1.309017 -0.1432,-0.82433 -0.14319,-0.82433 0.9746,0.602338 0.9746,0.602338 1.01499,-1.896525 1.01499,-1.8965256 -0.71481,-0.7918083 -0.71482,-0.7918082 1.25,0.7193423 1.25,0.7193423 0.11842,-1.309017 0.11842,-1.309017 -0.1432,-0.8243297 -0.14319,-0.8243298 0.9746,0.602338 0.9746,0.6023379 1.01499,-1.8965253 1.01499,-1.8965252 -0.46481,-0.631483 -0.46482,-0.63148286 0.65324,0.48657386 0.65324,0.4865738 2.31354,-3.1358218 2.31353,-3.1358218 -0.6271,-1.100752 -0.6271,-1.1007521 0.81356,0.7365739 0.81357,0.7365738 2.31354,-3.1358218 2.31353,-3.1358214 -0.62128,-1.005261 -0.62129,-1.00526 1.10434,0.682516 1.10433,0.682517 1.01499,-1.896525 1.01499,-1.896526 -0.71481,-0.791808 -0.71482,-0.791808 1.25,0.719342 1.25,0.719343 0.11842,-1.309017 0.11842,-1.309017 -0.1432,-0.82433 -0.14319,-0.82433 0.9746,0.602338 0.9746,0.602338 1.01499,-1.896525 1.01499,-1.896526 -0.46481,-0.631483 -0.46482,-0.631482 0.65324,0.486573 0.65324,0.486574 2.31354,-3.135822 2.31353,-3.135821 -0.6271,-1.100752 -0.6271,-1.100752 0.81356,0.736573 0.81357,0.736574 2.34676,-3.180853 2.34676,-3.180854 v -1.976979 -1.97698 l -1.65499,-1.828741 -1.65499,-1.82874 H 121.56837 94.164345 l 0.610955,0.988545 0.610955,0.988546 -1.546887,-0.593597 -1.546887,-0.593596 -3.610102,3.610102 -3.610101,3.610101 0.593596,1.546887 0.593596,1.546887 -0.988545,-0.610955 -0.988546,-0.610954 v 69.118034 69.118034 l 0.988546,-0.61096 0.988545,-0.61095 -0.595534,1.55194 -0.595534,1.55194 h 1.166005 1.166006 l -0.528197,0.85464 -0.528196,0.85464 2.219692,2.08529 2.219692,2.08529 2.499488,0.99668 2.499487,0.99668 26.027491,0.0634 26.0275,0.0634 z m -41.4677,-0.19125 13.80978,-0.30926 13.19022,0.31024 13.19021,0.31023 -27,-9.7e-4 -27.000001,-9.8e-4 z m 147.67028,-0.004 3.48006,-1.74844 2.26994,-3.39789 2.26993,-3.39788 -0.004,-68.602118 -0.004,-68.602116 -1.94852,-3.195666 -1.94852,-3.195666 -2.50376,-1.64053 -2.50377,-1.64053 -1.19848,0.740704 -1.19849,0.740705 0.71353,-1.154509 0.71352,-1.154508 h -28.11803 -28.11803 l 0.56039,0.906741 0.5604,0.906741 -2.15775,-0.564265 -2.15775,-0.564265 0.81088,1.312033 0.81088,1.312032 -1.14863,-0.709889 -1.14862,-0.709888 -3.49614,2.666637 -3.49614,2.666637 0.64476,1.043251 0.64477,1.043252 -0.92109,-0.569261 -0.92108,-0.56926 -3.48343,2.99895 -3.48342,2.99895 1.40451,-0.738707 1.40451,-0.738706 -0.72361,1.17082 -0.72361,1.17082 -0.69747,-0.431064 -0.69748,-0.431063 -3.48343,2.99895 -3.48342,2.99895 1.5,-0.744524 1.5,-0.744523 -0.83333,0.910325 -0.83334,0.910326 -0.66666,0.02599 -0.66667,0.02599 -2.74141,1.833393 -2.74142,1.833393 0.64592,1.045124 0.64593,1.045125 -0.92109,-0.569261 -0.92108,-0.56926 -3.48343,2.99895 -3.48342,2.99895 1.40451,-0.738707 1.40451,-0.738706 -0.72361,1.17082 -0.72361,1.17082 -0.69747,-0.431064 -0.69748,-0.431063 -3.48343,2.99895 -3.48342,2.9989498 1.40451,-0.7387066 1.40451,-0.7387067 -0.72361,1.1708204 -0.72361,1.1708204 -0.69747,-0.4310639 -0.69748,-0.4310639 -3.48343,2.9989501 -3.48342,2.9989502 1.5,-0.7445235 1.5,-0.7445234 -0.83333,0.9103253 -0.83334,0.91032534 -0.66666,0.0259911 -0.66667,0.0259911 -2.74141,1.833393 -2.74142,1.83339296 0.64592,1.0451244 0.64593,1.0451244 -0.92109,-0.5692605 -0.92108,-0.5692605 -3.48343,2.9989501 -3.48342,2.9989502 1.40451,-0.7387066 1.40451,-0.7387067 -0.72361,1.1708204 -0.72361,1.1708201 -0.69747,-0.431064 -0.69748,-0.4310635 -3.48343,2.9989505 -3.48342,2.99895 1.5,-0.744524 1.5,-0.744523 -0.83333,0.910325 -0.83334,0.910326 -0.66666,0.02599 -0.66667,0.02599 -2.74141,1.833393 -2.74142,1.833393 0.64592,1.045124 0.64593,1.045125 -0.92109,-0.569261 -0.92108,-0.56926 -3.48343,2.99895 -3.48342,2.99895 1.5,-0.744524 1.5,-0.744523 -0.66667,0.743659 -0.66666,0.743658 -0.83334,0.03064 -0.83333,0.03064 -3.7012,2.931406 -3.7012,2.931406 0.62114,1.618664 0.62114,1.618665 -1.26971,-0.784722 -1.26971,-0.784722 1.09774,2.051135 1.09773,2.051134 2.86491,2.039998 2.86492,2.039998 0.53698,-0.536987 0.53699,-0.536986 0.75464,1.22104 0.75465,1.22104 -1.40451,-0.726843 -1.40451,-0.726843 2.94178,2.512822 2.94179,2.512822 0.73911,-0.456799 0.73912,-0.4568 0.72361,1.17082 0.72361,1.170821 -1.40451,-0.738707 -1.40451,-0.738707 3.48342,2.99895 3.48343,2.998951 0.92108,-0.569261 0.92109,-0.56926 -0.64593,1.045124 -0.64592,1.045124 2.74142,1.833393 2.74141,1.833393 0.66667,0.02599 0.66666,0.02599 0.83334,0.910325 0.83333,0.910325 -1.5,-0.732659 -1.5,-0.73266 2.94178,2.512822 2.94179,2.512822 0.73911,-0.456799 0.73912,-0.4568 0.72361,1.17082 0.72361,1.170821 -1.40451,-0.726843 -1.40451,-0.726843 2.94178,2.512822 2.94179,2.512822 0.73911,-0.456799 0.73912,-0.4568 0.72361,1.17082 0.72361,1.170821 -1.40451,-0.738707 -1.40451,-0.738707 3.48342,2.99895 3.48343,2.998951 0.92108,-0.569261 0.92109,-0.56926 -0.64593,1.045124 -0.64592,1.045124 2.74142,1.833393 2.74141,1.833393 0.66667,0.02599 0.66666,0.02599 0.83334,0.910325 0.83333,0.910325 -1.5,-0.732659 -1.5,-0.73266 2.94178,2.512822 2.94179,2.512822 0.73911,-0.456799 0.73912,-0.4568 0.72361,1.17082 0.72361,1.170821 -1.40451,-0.738707 -1.40451,-0.738707 3.48342,2.99895 3.48343,2.998951 0.92108,-0.569261 0.92109,-0.56926 -0.64593,1.045124 -0.64592,1.045124 2.74142,1.831769 2.74141,1.831768 0.82433,-0.247161 0.82433,-0.247161 -0.56574,0.915393 -0.56575,0.915392 2.74142,1.833393 2.74141,1.833392 0.66667,0.026 0.66666,0.026 0.83334,0.91032 0.83333,0.91033 -1.5,-0.73266 -1.5,-0.73266 2.94178,2.51282 2.94179,2.51282 0.73911,-0.4568 0.73912,-0.4568 0.72361,1.17082 0.72361,1.17082 -1.40451,-0.7387 -1.40451,-0.73871 3.5,3.07826 3.5,3.07825 3,0.91576 3,0.91575 26.5,0.0886 26.5,0.0886 z m -43.73007,0.004 13.75,-0.30887 13.75,0.30887 13.75,0.30887 h -27.5 -27.5 z m 18.76855,-17.752434 -0.28183,-4 -0.73672,3.5 -0.73672,3.5 -0.13164,-7.75 -0.13164,-7.75 h 1.43963 1.43964 l 0.31036,3.732733 0.31037,3.732734 4.1212,-3.732734 4.1212,-3.732733 h 1.33175 1.33174 l -3.72002,3.809646 -3.72002,3.809647 2.34126,2.1995 2.34126,2.199499 0.51528,-0.515277 0.51528,-0.515277 1.62534,1.795978 1.62533,1.795978 -2.14718,0.161742 -2.14719,0.161743 -4.06761,-3.683298 -4.06762,-3.683298 -0.59981,4.481708 -0.5998,4.481709 z m -3.67574,-5 0.007,-8 0.38409,4.276433 0.38408,4.276433 -0.39069,3.723567 -0.39068,3.723567 z m 1.01298,-21.904041 0.14421,-2.404041 0.91994,0.568086 0.91994,0.568085 -0.65849,-1.715982 -0.65848,-1.715983 0.98854,0.610955 0.98855,0.610955 0.15753,-1.809017 0.15754,-1.809017 -0.0446,-1.239238 -0.0446,-1.239238 0.88709,0.548255 0.8871,0.548255 0.15753,-1.809017 0.15754,-1.809017 -0.014,-1.055748 -0.0141,-1.055748 2.85652,0.419247 2.85651,0.419247 v 0.945518 0.945518 l 0.98854,-0.610955 0.98855,-0.610955 -0.65848,1.715983 -0.65849,1.715982 1.05704,-0.653283 1.05703,-0.653282 -0.0446,1.239238 -0.0446,1.239238 0.15753,1.809017 0.15754,1.809017 0.88709,-0.548255 0.8871,-0.548255 -0.0446,1.239238 -0.0446,1.239238 0.15753,1.809017 0.15754,1.809017 0.98854,-0.610955 0.98855,-0.610955 -0.59553,1.551938 -0.59554,1.551938 h -0.89301 -0.89301 v -1.059017 -1.059017 l -1,0.618034 -1,0.618034 v -1.059017 -1.059017 h -4.37756 -4.37755 l -1.24489,1.5 -1.24489,1.5 h -0.77177 -0.77177 z m 10.65952,-3.345959 0.0153,-1.75 0.96938,1.5 0.96937,1.5 0.0153,-0.635191 0.0153,-0.63519 -1.25,-2.86481 -1.25,-2.864809 -2.33439,-0.126721 -2.3344,-0.126721 0.49114,1.878101 0.49113,1.8781 -1.07668,-0.665424 -1.07668,-0.665425 0.66994,1.745832 0.66994,1.745832 v 0.918213 0.918213 h 2.5 2.5 z m -4.26531,-20.988989 -5.75,-0.360819 V 34.596039 26.73127 l 6.40766,-0.335327 6.40766,-0.335327 -0.5717,0.919938 -0.57171,0.919939 1.49738,-0.574598 1.49738,-0.574598 0.15565,1.154659 0.15566,1.15466 0.82451,5.193756 0.82452,5.193757 -0.70872,-0.438013 -0.70872,-0.438013 -0.5734,1.494256 -0.5734,1.494257 h -1.5904 -1.5904 l 0.61803,1 0.61803,1 -0.30901,-0.189085 -0.30902,-0.189084 z m 5.61514,-3.333592 2.63486,-2.07258 v -3.370716 -3.370716 l -2.22251,-1.556703 -2.2225,-1.556704 -3.5275,0.141905 -3.52749,0.141905 4,0.71619 4,0.716189 -4.30479,0.141905 -4.30479,0.141906 0.30479,4.75 0.30479,4.75 3.5,0.410142 3.5,0.410142 -3,0.721543 -3,0.721543 2.61514,0.118315 2.61514,0.118315 z m -13.01573,-4.927419 v -8.5 l 0.38279,4.25 0.38279,4.25 -0.38279,4.25 -0.38279,4.25 z m 6.37155,-19.357524 0.59178,-0.957524 -2.25528,0.589771 -2.25529,0.58977 0.59024,-0.590237 0.59024,-0.590238 -1.10463,-1.330999 -1.10463,-1.330999 -0.79344,0.49037 -0.79343,0.490369 0.56426,-2.157751 0.56427,-2.1577522 -0.90753,0.5608803 -0.90752,0.5608804 v -2.309017 -2.309017 l 0.64333,0.3975977 0.64332,0.3975976 0.62573,-2.4930891 0.62572,-2.49308916 h 1.03997 1.03996 l -0.5062,-0.81905591 -0.50621,-0.81905593 3.19719,0.326628 3.19719,0.32662797 -2,-0.88438887 -2,-0.8843889 h 4 4 l -2,0.8843889 -2,0.88438887 3.19719,-0.32662797 3.19718,-0.326628 -0.5062,0.81905593 -0.5062,0.81905591 h 1.03996 1.03997 l 0.62572,2.49308916 0.62573,2.4930891 0.64332,-0.3975976 0.64333,-0.3975977 v 2.309017 2.309017 l -0.90752,-0.5608804 -0.90753,-0.5608803 0.56427,2.1577522 0.56426,2.157751 -0.65674,-0.396419 -0.65674,-0.396419 -1.18989,1.288484 -1.18989,1.288484 0.5388,0.538802 0.53881,0.538802 -2.25529,-0.58977 -2.25528,-0.589771 0.59178,0.957524 0.59178,0.957524 h -3.37082 -3.37082 z m 7.6421,-3.148396 1.50592,-1.50592 0.62091,-1.9563075 0.62091,-1.9563076 -1.20511,-2.2877727 -1.2051,-2.2877727 -1.10029,-0.7346872 -1.1003,-0.73468721 h -3 -3 l -1.1003,0.73468721 -1.10029,0.7346872 -1.14971,2.1842586 -1.1497,2.1842585 0.0153,0.8157415 0.0153,0.8157414 1.07144,-1.5 1.07143,-1.5 -0.54886,2.4631236 -0.54886,2.4631235 1.6171,1.7868764 1.6171,1.786877 h 3.27359 3.27358 z m 0.71589,-5.0774138 0.0789,-1.9166667 0.52522,1.3125 0.52522,1.3125 -0.60416,0.6041667 -0.60417,0.6041667 z m -6.24484,-22.2822812 -3.33411,-3.634385 4,3.480814 4,3.480815 -3.77838,-3.980815 -3.77838,-3.980814 -0.95631,1.5 -0.95631,1.5 -0.0153,2.25 -0.0153,2.25 h -1 -1 v -7.5 -7.5 h 1.43963 1.43964 l 0.31036,3.75 0.31037,3.75 3.434,-3.75 3.434,-3.75 h 2.01895 2.01894 l -3.749,3.83933 -3.74901,3.83933 1.54606,1.283115 1.54606,1.283114 v -0.796759 -0.796759 l 2.46918,2.319674 2.46918,2.319674 -0.4536,0.733934 -0.45359,0.733933 -1.93148,0.505092 -1.93147,0.505092 z m 7.16589,1.520602 v -0.345012 l -2.25,-1.904988 -2.25,-1.904987 1.90499,2.25 1.90498,2.25 h 0.34502 0.34501 z m -15.65719,-6.154987 0.007,-8 0.38409,4.276433 0.38408,4.276433 -0.39069,3.723567 -0.39068,3.723567 z m 0.92622,-9.192991 1.76903,-0.460988 1.23097,0.498042 1.23097,0.498042 -3,-0.03705 -3,-0.03705 z m 12.98097,0.0037 1.75,-0.457323 1.75,0.457323 1.75,0.457323 h -3.5 -3.5 z"
     id="path36" /><path
     style="fill:#f48f0d"
     d="m 262.75487,34.560616 v -67.5 l 0.27706,33.74999954 0.27705,33.75000046 -0.27705,33.75 -0.27706,33.750004 z m -34.20346,63.307009 1.76903,-0.460988 1.23097,0.498042 1.23097,0.498042 -3,-0.03705 -3,-0.03705 z m 13.49263,-0.01427 2.26166,-0.434897 1.73834,0.455077 1.73834,0.455078 -4,-0.02018 -4,-0.02018 z m -2.88922,-7.042739 -1.37244,-1.75 1.75,1.372444 1.75,1.372445 v 0.377555 0.377556 h -0.37756 -0.37755 z m -10.60341,-10.942991 1.76903,-0.460988 1.23097,0.498042 1.23097,0.498042 -3,-0.03705 -3,-0.03705 z m 12.98097,0.0037 1.75,-0.457323 1.75,0.457323 1.75,0.457323 h -3.5 -3.5 z m -5.98097,-16.003665 1.76903,-0.460988 1.23097,0.498042 1.23097,0.498042 -3,-0.03705 -3,-0.03705 z m 10.80992,-29.890343 0.0789,-1.916666 0.52522,1.3125 0.52522,1.3125 -0.60416,0.604166 -0.60417,0.604167 z m -17.80992,-45.109657 1.76903,-0.460988 1.23097,0.498042 1.23097,0.498042 -3,-0.03705 -3,-0.03705 z m 13.98097,0.0037 1.75,-0.457323 1.75,0.457323 1.75,0.457323 h -3.5 -3.5 z m -133.94021,-32.058629 13.80978,-0.309263 13.19022,0.310238 13.19021,0.310237 -27,-9.74e-4 -27.000001,-9.75e-4 z m 103.94021,3.89e-4 13.75,-0.308874 13.75,0.308874 13.75,0.308874 h -27.5 -27.5 z"
     id="path35" /><path
     style="fill:#f0720c"
     d="m 85.754869,34.560616 v -67.5 l 0.277057,33.74999954 0.277057,33.75000046 -0.277057,33.75 -0.277057,33.750004 z m 156.027511,50 3.90589,-4 h 0.5 0.5 l -3.90589,4 -3.9059,4 h -0.5 -0.5 z m -14.23097,-13.692991 1.76903,-0.460988 1.23097,0.498042 1.23097,0.498042 -3,-0.03705 -3,-0.03705 z m 16.48097,0.03071 1.25,-0.504386 1.25,0.504386 1.25,0.504386 h -2.5 -2.5 z m -2.59211,-36.337719 v -2.5 l 0.50439,1.25 0.50439,1.25 -0.50439,1.25 -0.50439,1.25 z m -11.4302,-9.721732 3.2277,-0.401658 3.7723,0.393591 3.77231,0.393592 -7,0.0081 -7,0.0081 z m 8.27231,-45.591177 v -0.312909 l 3.25,-2.937091 3.25,-2.937091 -2.93709,3.25 -2.93709,3.25 h -0.31291 -0.31291 z m -4,-3 v -0.312909 l 3.25,-2.937091 3.25,-2.937091 -2.93709,3.25 -2.93709,3.25 h -0.31291 -0.31291 z"
     id="path33" /><path
     style="fill:#ec4e0c"
     d="m 236.22855,94.810616 -3.44617,-3.75 3.75,3.446166 3.75,3.446167 v 0.303833 0.303834 h -0.30383 -0.30384 z m 0.0538,-11.75 3.39233,-3.5 h 0.5 0.5 l -3.39233,3.5 -3.39233,3.5 h -0.5 -0.5 z m -1.73625,-15.217582 2.76375,-0.417917 2.23625,0.431567 2.23625,0.431567 -5,-0.01365 -5,-0.01365 z m 0.98625,-15.971744 1.75,-0.457323 1.75,0.457323 1.75,0.457323 h -3.5 -3.5 z m -5.48209,-8.035406 3.26791,-0.404657 2.73209,0.414862 2.73209,0.414862 -6,-0.0102 -6,-0.0102 z m 2.42704,-57.775268 0.037,-3 0.46099,1.769031 0.46099,1.769032 -0.49804,1.230968 -0.49805,1.230969 z m 12.67749,0.75 -1.37244,-1.75 1.75,1.372444 1.75,1.372445 v 0.377555 0.377556 h -0.37756 -0.37755 z m -94.79349,-25.833334 0.0789,-1.916666 0.52522,1.3125 0.52522,1.3125 -0.60416,0.604166 -0.60417,0.604167 z"
     id="path31" /><path
     style="fill:#e82d0b"
     d="m 226.63733,89.060616 -0.006,-9 0.38132,4.219826 0.38132,4.219827 -0.37578,4.780173 -0.37577,4.780174 z m 16.08214,4.25 -2.93709,-3.25 3.25,2.937091 3.25,2.937091 v 0.312909 0.312909 h -0.31291 -0.31291 z m -10.18491,-10.25 0.0202,-4 0.4349,2.261659 0.4349,2.261659 -0.45508,1.738341 -0.45508,1.738341 z m -5.89168,-48.5 v -9.5 l 0.37454,4.75 0.37454,4.75 -0.37454,4.75 -0.37454,4.75 z m 6.04148,3.605161 -0.53525,-1.394839 0.39853,-3.855161 0.39853,-3.855161 0.16811,4.686641 0.1681,4.686642 3.25,0.403321 3.25,0.403321 -3.28139,0.160037 -3.28138,0.160038 z m 2.86705,-21.298152 1.76903,-0.460988 1.23097,0.498042 1.23097,0.498042 -3,-0.03705 -3,-0.03705 z m 0.54347,-4.990123 1.3125,-0.52522 0.60417,0.604167 0.60416,0.604167 -1.91666,-0.07895 -1.91667,-0.07895 z m 11.38245,-4.8168865 0.037,-3 0.46099,1.7690319 0.46099,1.7690319 -0.49804,1.2309681 -0.49805,1.2309686 z m -22.03706,-0.5 v -2.5 l 0.50439,1.25 0.50439,1.25 -0.50439,1.25 -0.50439,1.25 z m 10.11114,-9.6929907 1.76903,-0.460988 1.23097,0.498042 1.23097,0.498042 -3,-0.037054 -3,-0.037054 z m 0.49565,-10.8340668 -3.73531,-3.472942 h 0.78915 0.78915 l 3.39233,3.5 3.39233,3.5 -0.44616,-0.02706 -0.44617,-0.02706 z m -9.40418,-6.472942 v -9.5 l 0.37454,4.75 0.37454,4.75 -0.37454,4.75 -0.37454,4.75 z m 14.07659,2.75 -2.93709,-3.25 3.25,2.937091 3.25,2.937091 v 0.312909 0.312909 h -0.31291 -0.31291 z m -8.18491,-8.25 0.0202,-4 0.4349,2.261659 0.4349,2.261659 -0.45508,1.738341 -0.45508,1.738341 z"
     id="path28" /><path
     style="fill:#e2000a"
     d="m 92.597094,110.09696 -3.185286,-1.38538 -1.564714,-3.02582 -1.564715,-3.02582 v -68.099324 -68.09932 l 1.516927,-2.933413 1.516927,-2.933414 2.933413,-1.516927 2.933413,-1.516926 h 25.967871 25.96787 l 1.58179,0.606988 1.58179,0.606989 v 1.988106 1.988105 l -23.83704,33.1549058 -23.83704,33.1549062 -1.16296,2.184258 -1.16296,2.184259 v 1.881964 1.881964 l 24.64673,33.933777 24.64672,33.933782 0.4713,1.75532 0.4713,1.75533 -1.24047,1.49467 -1.24047,1.49468 -26.12756,-0.0392 -26.127551,-0.0391 z m 104.949286,0.37798 -3.236,-0.96425 -43.71983,-36.725039 -43.71983,-36.725035 -0.005,-0.996993 -0.004,-0.996992 42.46032,-36.3084389 42.46033,-36.3084381 4,-1.922607 4,-1.922607 26.28212,-0.02196 26.28212,-0.02196 3.50387,1.46401 3.50387,1.464011 1.46401,3.503871 1.46401,3.50387 v 66.882896 66.882892 l -1.07482,3.08324 -1.07483,3.08324 -2.67517,1.81598 -2.67518,1.81599 -27,0.18928 -27,0.18929 z m 34.736,-15.617272 V 91.15472 l 3.79216,3.702948 3.79216,3.702948 4.45784,-0.03812 4.45784,-0.03812 -5.16003,-4.815011 -5.16002,-4.81501 4.64687,-4.646868 4.64686,-4.646867 h -3.93923 -3.93924 l -3.2976,3.196166 -3.29761,3.196167 v -3.259525 -3.259525 l -3.25,0.313358 -3.25,0.313359 -0.29497,7.911609 -0.29498,7.911609 0.51359,1.338391 0.51359,1.338391 h 2.53138 2.53139 z m -0.36163,-24.797052 0.57561,-1.5 h 4.28602 4.28602 l 0.57561,1.5 0.5756,1.5 h 3.09877 3.09877 l -0.55653,-1.75 -0.55653,-1.75 -3.35964,-8 -3.35964,-8 -3.48125,-0.300233 -3.48124,-0.300232 -3.76176,8.800232 -3.76176,8.800233 -0.5152,1.25 -0.5152,1.25 h 3.13838 3.13837 z m 3.37694,-7.75 0.0153,-1.25 0.81125,-1.278378 0.81124,-1.278378 1.15201,2.528378 1.152,2.528378 h -1.97856 -1.97856 z m 9.59268,-21.08065 2.39201,-2.780878 v -4.489691 -4.489691 l -2.49667,-2.496669 -2.49667,-2.49667 -7.75333,0.292124 -7.75333,0.292125 -0.29313,8.41641 -0.29313,8.416411 0.55348,1.442366 0.55349,1.442366 7.59764,-0.383663 7.59763,-0.383663 z m -11.60799,-7.108985 v -4.560365 h 2.30887 2.30887 l 1.77692,1.299313 1.77691,1.299314 -0.33578,2.950686 -0.33579,2.950687 -3.75,0.310365 -3.75,0.310365 z m 10.97655,-19.380085 2.52345,-1.871932 0.88524,-3.4858445 0.88525,-3.485845 -1.38525,-2.9183295 -1.38524,-2.91832946 -3.79349,-1.85313304 -3.79348,-1.853133 -3.45257,0.6477061 -3.45257,0.6477061 -2.75395,2.36936254 -2.75394,2.36936256 0.095,4.54679 0.095,4.5467902 1.40465,1.692502 1.40465,1.692503 3.00039,1.355298 3.00039,1.355299 3.47655,-0.48242 3.47655,-0.482421 z m -11.8787,-5.4302805 -0.8377,-2.25 0.72818,-2 0.72818,-2 3.57634,-0.3064661 3.57634,-0.3064661 1.06555,1.9909912 1.06554,1.9909913 -0.97539,2.5654749 -0.97539,2.5654753 h -3.55697 -3.55698 z m 0.90215,-22.9461665 v -3.196167 l 3.29761,3.196167 3.2976,3.196167 h 4.4148 4.41481 l -4.92272,-4.997864 -4.92271,-4.997864 4.41851,-4.502136 4.41852,-4.502136 h -3.91061 -3.9106 l -3.2976,3.196166 -3.29761,3.196167 v -3.196167 -3.196166 h -3.5 -3.5 v 8.833333 8.833333 l 0.66667,0.666667 0.66666,0.666667 h 2.83334 2.83333 z"
     id="path26" /></g><path
   style="fill:url(#SVGID_aigrd5_7);fill-rule:nonzero;stroke:none;stroke-width:0;stroke-linecap:butt;stroke-linejoin:miter;stroke-miterlimit:4;stroke-dasharray:none;stroke-dashoffset:0"
   vector-effect="non-scaling-stroke"
   d="m 335.76544,-255.48535 -0.71997,-1.92225 c -0.34251,-1.06248 -0.77589,-2.20884 -1.36305,-3.50199 -1.48887,-3.6348 -3.29928,-7.03893 -5.57103,-10.21938 -20.78826,-34.02033 -78.0783,-101.39694 -98.41221,-121.46523 -41.91903,-41.35983 -118.46652,-91.19154 -147.23037,-102.37554 -0.18174,-0.0839 -0.35649,-0.18174 -0.54522,-0.26562 l -4.43166,-2.05506 h -3.83052 -1.06947 c -28.68696,0 -445.01835,0 -445.01835,0 v 958.3989 h 708.19185 c 0,0 0,-697.37832 0,-714.99312 0,-0.45435 -0.0909,-1.00656 -0.19572,-1.56576 0.11184,-0.021 0.19572,-0.0419 0.19572,-0.0419 z m -51.96366,-40.18551 c -30.36456,-7.45833 -78.59556,-11.30982 -156.79968,-11.90397 -0.78987,-73.36005 -5.68986,-117.97023 -14.12679,-145.62966 30.03603,18.16002 70.31241,45.37209 101.2851,75.94635 15.91623,15.71352 46.44156,51.5862 69.64137,81.59427 z m 29.99409,735.09636 c -39.94785,0 -624.30486,0 -664.23873,0 0,-40.45812 0,-874.56783 0,-915.03294 39.71718,0 417.10728,0 423.04179,0 13.37187,6.18615 32.58039,27.30993 32.58039,189.59676 159.39297,0 194.50374,12.42123 205.30329,27.96 1.48188,2.53038 2.70513,4.80912 3.32025,6.43779 0,4.37574 0,650.40552 0,691.03839 z"
   stroke-linecap="round"
   id="path21" /><path
   style="display:none;opacity:0.2;fill:url(#SVGID_aigrd6_8);fill-rule:nonzero;stroke:none;stroke-width:0;stroke-linecap:butt;stroke-linejoin:miter;stroke-miterlimit:4;stroke-dasharray:none;stroke-dashoffset:0"
   vector-effect="non-scaling-stroke"
   d="m 336.65923,459.78618 c -39.94785,0 -624.30486,0 -664.23873,0 0,-40.45812 0,-874.56781 0,-915.03292 39.71718,0 417.107279,0 423.041789,0 13.371871,6.18615 32.580391,27.30993 32.580391,189.59676 159.39297,0 194.50374,12.42123 205.30329,27.96 1.48188,2.53038 2.70513,4.80912 3.32025,6.43779 0,4.37574 0,650.4055 0,691.03837 z"
   stroke-linecap="round"
   id="path23" /><path
   style="opacity:0.39;fill:url(#SVGID_aigrd7_9);fill-rule:nonzero;stroke:none;stroke-width:0;stroke-linecap:butt;stroke-linejoin:miter;stroke-miterlimit:4;stroke-dasharray:none;stroke-dashoffset:0"
   vector-effect="non-scaling-stroke"
   d="m -350.44985,-475.62443 c 0,40.46511 0,874.57482 0,915.03294 39.93387,0 624.29787,0 664.23873,0 0,-40.63287 0,-686.66265 0,-691.03839 -6.87816,-18.3837 -73.29714,-99.65643 -99.63546,-125.65224 -51.26466,-50.60061 -128.1966,-92.15616 -141.56847,-98.34231 -5.93451,0 -383.32461,0 -423.04179,0 z m 416.42226,27.96 c 20.12421,10.35219 84.66987,46.98678 128.5461,90.28284 24.7446,24.42306 79.03593,91.50609 91.31037,112.30833 0,12.33036 0,605.5437 0,656.52177 -49.05582,0 -559.2699,0 -608.31873,0 0,-50.90118 0,-808.21176 0,-859.11294 47.94441,0 376.49538,0 388.46226,0 z"
   stroke-linecap="round"
   id="path25" /><path
   style="opacity:0.12;fill:url(#SVGID_aigrd8_10);fill-rule:nonzero;stroke:none;stroke-width:0;stroke-linecap:butt;stroke-linejoin:miter;stroke-miterlimit:4;stroke-dasharray:none;stroke-dashoffset:0"
   vector-effect="non-scaling-stroke"
   d="m 313.89767,439.4255 c 0,-222.02337 -129.42684,-678.84084 -208.62354,-725.43618 0,-136.61955 -51.18078,-189.32415 -89.58384,-189.32415 13.38585,0 26.00979,-0.27261 57.00345,-0.27261 139.84893,70.05378 197.77506,163.55901 237.88368,217.55676 1.48188,2.53038 2.70513,4.80912 3.32025,6.43779 0,4.37574 0,650.40552 0,691.03839 z"
   stroke-linecap="round"
   id="path27" /><path
   style="opacity:0.12;fill:url(#SVGID_aigrd9_11);fill-rule:nonzero;stroke:none;stroke-width:0;stroke-linecap:butt;stroke-linejoin:miter;stroke-miterlimit:4;stroke-dasharray:none;stroke-dashoffset:0"
   vector-effect="non-scaling-stroke"
   d="m 313.91807,82.28961 c 0,-60.01614 -15.28713,-115.79634 -37.13088,-164.90808 -50.25111,-112.98636 -135.22854,-190.65225 -148.68429,-203.31813 8.33907,0.0699 16.30068,0.16776 23.89182,0.32154 23.71008,0.44037 43.85526,1.25121 61.01571,2.36262 28.88967,1.87332 49.27251,4.60641 63.79074,7.9686 20.45973,4.73223 29.26713,10.70169 33.79665,17.22336 1.48188,2.53038 2.70513,4.80912 3.32025,6.43779 0,4.37574 0,293.28642 0,333.91929 z"
   stroke-linecap="round"
   id="path29" /><path
   style="fill:#ffffff;fill-opacity:1;fill-rule:nonzero;stroke:none;stroke-width:0;stroke-linecap:butt;stroke-linejoin:miter;stroke-miterlimit:4;stroke-dasharray:none;stroke-dashoffset:0"
   vector-effect="non-scaling-stroke"
   d="m 283.87178,-295.80066 c -30.36456,-7.45833 -78.59556,-11.30982 -156.79968,-11.90397 -0.78987,-73.36005 -5.68986,-117.97023 -14.12679,-145.62966 30.03603,18.16002 70.31241,45.37209 101.2851,75.94635 15.91623,15.71352 46.44156,51.5862 69.64137,81.59427 z"
   stroke-linecap="round"
   id="path30"
   inkscape:label="colorpath30" /><path
   style="opacity:0.29;fill:url(#SVGID_aigrd10_12);fill-rule:nonzero;stroke:none;stroke-width:0;stroke-linecap:butt;stroke-linejoin:miter;stroke-miterlimit:4;stroke-dasharray:none;stroke-dashoffset:0"
   vector-effect="non-scaling-stroke"
   d="m 283.87178,-295.80066 c -30.36456,-7.45833 -78.59556,-11.30982 -156.79968,-11.90397 -0.78987,-73.36005 -5.68986,-117.97023 -14.12679,-145.62966 30.03603,18.16002 70.31241,45.37209 101.2851,75.94635 15.91623,15.71352 46.44156,51.5862 69.64137,81.59427 z"
   stroke-linecap="round"
   id="path32" /><path
   style="opacity:0.25;fill:url(#SVGID_aigrd11_13);fill-rule:nonzero;stroke:none;stroke-width:0;stroke-linecap:butt;stroke-linejoin:miter;stroke-miterlimit:4;stroke-dasharray:none;stroke-dashoffset:0"
   vector-effect="non-scaling-stroke"
   d="m 283.87178,-295.80066 c -30.36456,-7.45833 -78.59556,-11.30982 -156.79968,-11.90397 -0.78987,-73.36005 -5.68986,-117.97023 -14.12679,-145.62966 30.03603,18.16002 70.31241,45.37209 101.2851,75.94635 15.91623,15.71352 46.44156,51.5862 69.64137,81.59427 z m -142.40727,-26.17755 c 45.13443,0.61512 80.09841,2.41155 107.26155,5.592 -17.30025,-20.97699 -34.54458,-40.63287 -44.85483,-50.78934 -21.14475,-20.88612 -46.44156,-39.7032 -69.37575,-55.0812 3.90042,25.70223 6.16518,58.6461 6.96903,100.27854 z"
   stroke-linecap="round"
   id="path34" />
</g>
<metadata
   id="metadata36"><rdf:RDF><cc:License
       rdf:about="http://creativecommons.org/publicdomain/zero/1.0/"><cc:permits
         rdf:resource="http://creativecommons.org/ns#Reproduction" /><cc:permits
         rdf:resource="http://creativecommons.org/ns#Distribution" /><cc:permits
         rdf:resource="http://creativecommons.org/ns#DerivativeWorks" /></cc:License><cc:Work
       rdf:about=""><cc:license
         rdf:resource="http://creativecommons.org/publicdomain/zero/1.0/" /></cc:Work></rdf:RDF></metadata><path
   style="font-weight:bold;font-size:64px;line-height:0.7;font-family:'Liberation Sans';-inkscape-font-specification:'Liberation Sans Bold';letter-spacing:0.96px;word-spacing:0px;fill-rule:evenodd;stroke-width:4.15748"
   d="m 75.126694,196.64626 v 13.625 h 22.53125 v 7.125 h -22.53125 v 16.15625 h -9.21875 v -44.03125 h 32.46875 v 7.125 z m 67.053746,6.8125 q 0,4.25 -1.9375,7.59375 -1.9375,3.34375 -5.5625,5.1875 -3.59375,1.8125 -8.5625,1.8125 h -10.9375 v 15.5 h -9.21875 v -44.03125 h 19.78125 q 7.90625,0 12.15625,3.65625 4.28125,3.625 4.28125,10.28125 z m -9.28125,0.15625 q 0,-6.9375 -8.1875,-6.9375 h -9.53125 v 14.28125 h 9.78125 q 3.8125,0 5.875,-1.875 2.0625,-1.90625 2.0625,-5.46875 z m 44.86625,29.9375 -11.0625,-17.53125 -11.0625,17.53125 h -9.75 l 15.25,-23.15625 -13.96875,-20.875 h 9.75 l 9.78125,15.5625 9.78125,-15.5625 h 9.6875 l -13.375,20.875 14.65625,23.15625 z"
   id="text1"
   aria-label="FPX" /></svg>
