<?xml version="1.0" encoding="UTF-8" standalone="no"?>
<!-- Created with Inkscape (http://www.inkscape.org/) -->

<svg
   width="256mm"
   height="256mm"
   viewBox="0 0 256 256"
   version="1.1"
   id="svg1"
   inkscape:version="1.3.2 (091e20ef0f, 2023-11-25)"
   sodipodi:docname="text-x-sagemath.svg"
   xml:space="preserve"
   xmlns:inkscape="http://www.inkscape.org/namespaces/inkscape"
   xmlns:sodipodi="http://sodipodi.sourceforge.net/DTD/sodipodi-0.dtd"
   xmlns:xlink="http://www.w3.org/1999/xlink"
   xmlns="http://www.w3.org/2000/svg"
   xmlns:svg="http://www.w3.org/2000/svg"
   xmlns:rdf="http://www.w3.org/1999/02/22-rdf-syntax-ns#"
   xmlns:cc="http://creativecommons.org/ns#"
   xmlns:a="http://ns.adobe.com/AdobeSVGViewerExtensions/3.0/"><sodipodi:namedview
     id="namedview1"
     pagecolor="#ffffff"
     bordercolor="#000000"
     borderopacity="0.25"
     inkscape:showpageshadow="2"
     inkscape:pageopacity="0.0"
     inkscape:pagecheckerboard="0"
     inkscape:deskcolor="#d1d1d1"
     inkscape:document-units="mm"
     inkscape:zoom="0.78741022"
     inkscape:cx="549.26897"
     inkscape:cy="527.04421"
     inkscape:current-layer="svg1" /><defs
     id="defs1"><linearGradient
   id="linearGradient398"
   gradientUnits="userSpaceOnUse"
   x1="54.349602"
   y1="43.6245"
   x2="240.2121"
   y2="328.12881"
   spreadMethod="pad">
			<stop
   offset="0"
   style="stop-color:#FFFFFF"
   id="stop397" />
			<stop
   offset="1"
   style="stop-color:#808080;stop-opacity:1;"
   id="stop398" />
		</linearGradient><linearGradient
   id="linearGradient386"
   gradientUnits="userSpaceOnUse"
   x1="81.009804"
   y1="52.612801"
   x2="147.9156"
   y2="-19.6299"
   spreadMethod="pad">
			<stop
   offset="0"
   style="stop-color:#fcfcfc;stop-opacity:1;"
   id="stop385" />
			<stop
   offset="1"
   style="stop-color:#000000"
   id="stop386" />
		</linearGradient><linearGradient
   id="linearGradient364"
   gradientUnits="userSpaceOnUse"
   x1="108.9707"
   y1="22.1313"
   x2="113.887"
   y2="17.215099"
   spreadMethod="pad">
			<stop
   offset="0"
   style="stop-color:#FFFFFF"
   id="stop362" />
			<stop
   offset="0.3976658"
   style="stop-color:#898989"
   id="stop363" />
			<stop
   offset="1"
   style="stop-color:#000000"
   id="stop364" />
		</linearGradient><linearGradient
   id="aigrd1"
   gradientUnits="userSpaceOnUse"
   x1="50.8936"
   y1="166.6958"
   x2="123.6106"
   y2="53.465199">
			<stop
   offset="0"
   style="stop-color:#FFFFFF"
   id="stop3-9" />
			<stop
   offset="1"
   style="stop-color:#8C8C8C"
   id="stop4-2" />
		</linearGradient><linearGradient
   id="aigrd2"
   gradientUnits="userSpaceOnUse"
   x1="114.9795"
   y1="16.8501"
   x2="90.170303"
   y2="38.863499">
			<stop
   offset="0"
   style="stop-color:#000000"
   id="stop5-8" />
			<stop
   offset="0.2872"
   style="stop-color:#FFFFFF"
   id="stop6-8" />
			<stop
   offset="0.4468"
   style="stop-color:#FFFFFF"
   id="stop7-8" />
			<stop
   offset="0.4893"
   style="stop-color:#DDDDDD"
   id="stop8-6" />
			<stop
   offset="0.5678"
   style="stop-color:#A3A3A3"
   id="stop9-8" />
			<stop
   offset="0.6465"
   style="stop-color:#717171"
   id="stop10-3" />
			<stop
   offset="0.7234"
   style="stop-color:#484848"
   id="stop11-8" />
			<stop
   offset="0.7983"
   style="stop-color:#292929"
   id="stop12-3" />
			<stop
   offset="0.8706"
   style="stop-color:#121212"
   id="stop13-3" />
			<stop
   offset="0.9392"
   style="stop-color:#050505"
   id="stop14-3" />
			<stop
   offset="1"
   style="stop-color:#000000"
   id="stop15-8" />
		</linearGradient><linearGradient
   inkscape:collect="always"
   xlink:href="#aigrd3"
   id="linearGradient57"
   gradientUnits="userSpaceOnUse"
   x1="-9.5752001"
   y1="-40.622601"
   x2="111.4338"
   y2="127.9071" /><linearGradient
   id="aigrd3"
   gradientUnits="userSpaceOnUse"
   x1="-9.5752001"
   y1="-40.622601"
   x2="111.4338"
   y2="127.9071">
			<stop
   offset="0"
   style="stop-color:#FFFFFF"
   id="stop16-0" />
			<stop
   offset="1"
   style="stop-color:#000000"
   id="stop17-4" />
		</linearGradient><linearGradient
   id="aigrd5"
   gradientUnits="userSpaceOnUse"
   x1="-11.9863"
   y1="-32.7383"
   x2="159.9639"
   y2="185.96539">
			<stop
   offset="0"
   style="stop-color:#FFFFFF"
   id="stop18-9" />
			<stop
   offset="1"
   style="stop-color:#000000"
   id="stop19-0" />
		</linearGradient><linearGradient
   id="aigrd6"
   gradientUnits="userSpaceOnUse"
   x1="54.349602"
   y1="43.6245"
   x2="240.2121"
   y2="328.12881"
   xlink:href="#linearGradient398"
   gradientTransform="translate(3.2690505,2.9058226)">
			<stop
   offset="0"
   style="stop-color:#FFFFFF"
   id="stop20-6" />
			<stop
   offset="1"
   style="stop-color:#000000"
   id="stop21-8" />
		</linearGradient><linearGradient
   id="aigrd7"
   gradientUnits="userSpaceOnUse"
   x1="-21.0117"
   y1="-56.939899"
   x2="129.0739"
   y2="151.3105">
			<stop
   offset="0"
   style="stop-color:#FFFFFF"
   id="stop22-7" />
			<stop
   offset="1"
   style="stop-color:#000000"
   id="stop23-9" />
		</linearGradient><linearGradient
   id="aigrd8"
   gradientUnits="userSpaceOnUse"
   x1="164.51559"
   y1="191.96629"
   x2="101.1341"
   y2="1.1619999">
			<stop
   offset="0"
   style="stop-color:#FFFFFF"
   id="stop24-0" />
			<stop
   offset="1"
   style="stop-color:#000000"
   id="stop25-3" />
		</linearGradient><linearGradient
   id="aigrd9"
   gradientUnits="userSpaceOnUse"
   x1="140.9277"
   y1="109.0835"
   x2="114.0488"
   y2="28.167">
			<stop
   offset="0"
   style="stop-color:#FFFFFF"
   id="stop26-3" />
			<stop
   offset="1"
   style="stop-color:#000000"
   id="stop27-3" />
		</linearGradient><linearGradient
   id="aigrd10"
   gradientUnits="userSpaceOnUse"
   x1="108.9707"
   y1="22.1313"
   x2="113.887"
   y2="17.215099"
   xlink:href="#linearGradient364">
			<stop
   offset="0"
   style="stop-color:#FFFFFF"
   id="stop28-7" />
			<stop
   offset="0.4715"
   style="stop-color:#898989"
   id="stop29-3" />
			<stop
   offset="1"
   style="stop-color:#000000"
   id="stop30-2" />
		</linearGradient><linearGradient
   id="aigrd11"
   gradientUnits="userSpaceOnUse"
   x1="81.009804"
   y1="52.612801"
   x2="147.9156"
   y2="-19.6299"
   xlink:href="#linearGradient386">
			<stop
   offset="0"
   style="stop-color:#FFFFFF"
   id="stop31-6" />
			<stop
   offset="1"
   style="stop-color:#000000"
   id="stop32-5" />
		</linearGradient><linearGradient
   inkscape:collect="always"
   xlink:href="#aigrd3"
   id="linearGradient85"
   gradientUnits="userSpaceOnUse"
   x1="-9.5752001"
   y1="-40.622601"
   x2="111.4338"
   y2="127.9071" /><inkscape:path-effect
   effect="bend_path"
   id="path-effect4"
   is_visible="true"
   lpeversion="1"
   bendpath="M 34.558214,17.538595 80.922629,17.016208"
   prop_scale="1"
   scale_y_rel="false"
   vertical="false"
   hide_knot="false"
   bendpath-nodetypes="cc" /><inkscape:path-effect
   effect="fillet_chamfer"
   id="path-effect3"
   is_visible="true"
   lpeversion="1"
   nodesatellites_param="F,0,0,1,0,0,0,1 @ F,0,0,1,0,0,0,1 @ F,0,0,1,0,0,0,1 @ F,0,0,1,0,0,0,1 @ F,0,0,1,0,0,0,1 @ F,0,0,1,0,0,0,1 @ F,0,0,1,0,0,0,1 @ F,0,0,1,0,0,0,1 @ F,0,0,1,0,0,0,1 @ F,0,0,1,0,0,0,1 @ F,0,0,1,0,0,0,1 @ F,0,0,1,0,0,0,1 @ F,0,0,1,0,0,0,1 @ F,0,0,1,0,0,0,1 @ F,0,0,1,0,0,0,1 @ F,0,0,1,0,0,0,1 @ F,0,0,1,0,0,0,1 @ F,0,0,1,0,0,0,1 @ F,0,0,1,0,0,0,1 @ F,0,0,1,0,0,0,1 @ F,0,0,1,0,0,0,1 @ F,0,0,1,0,0,0,1 | F,0,0,1,0,0,0,1 @ F,0,0,1,0,0,0,1 @ F,0,0,1,0,0,0,1 @ F,0,0,1,0,0,0,1 @ F,0,0,1,0,0,0,1 @ F,0,0,1,0,0,0,1 @ F,0,0,1,0,0,0,1 @ F,0,0,1,0,0,0,1 | F,0,0,1,0,0,0,1 @ F,0,0,1,0,0,0,1 @ F,0,0,1,0,0,0,1 @ F,0,0,1,0,0,0,1 @ F,0,0,1,0,0,0,1 @ F,0,0,1,0,0,0,1 @ F,0,0,1,0,0,0,1 @ F,0,0,1,0,0,0,1 @ F,0,0,1,0,0,0,1 @ F,0,0,1,0,0,0,1 @ F,0,0,1,0,0,0,1 @ F,0,0,1,0,0,0,1 | F,0,0,1,0,0,0,1 @ F,0,0,1,0,0,0,1 @ F,0,0,1,0,0,0,1 @ F,0,0,1,0,0,0,1 @ F,0,0,1,0,0,0,1 @ F,0,0,1,0,0,0,1 @ F,0,0,1,0,0,0,1 @ F,0,0,1,0,0,0,1 @ F,0,0,1,0,0,0,1 @ F,0,0,1,0,0,0,1 @ F,0,0,1,0,0,0,1 @ F,0,0,1,0,0,0,1 @ F,0,0,1,0,0,0,1 @ F,0,0,1,0,0,0,1 @ F,0,0,1,0,0,0,1 @ F,0,0,1,0,0,0,1 @ F,0,0,1,0,0,0,1 @ F,0,0,1,0,0,0,1 @ F,0,0,1,0,0,0,1 @ F,0,0,1,0,0,0,1 @ F,0,0,1,0,0,0,1 @ F,0,0,1,0,0,0,1 | F,0,0,1,0,0,0,1 @ F,0,0,1,0,0,0,1 @ F,0,0,1,0,0,0,1 @ F,0,0,1,0,0,0,1 @ F,0,0,1,0,0,0,1 @ F,0,0,1,0,0,0,1 @ F,0,0,1,0,0,0,1 @ F,0,0,1,0,0,0,1 @ F,0,0,1,0,0,0,1 @ F,0,0,1,0,0,0,1 @ F,0,0,1,0,0,0,1 @ F,0,0,1,0,0,0,1 @ F,0,0,1,0,0,0,1 @ F,0,0,1,0,0,0,1 @ F,0,0,1,0,0,0,1 @ F,0,0,1,0,0,0,1 @ F,0,0,1,0,0,0,1 @ F,0,0,1,0,0,0,1 @ F,0,0,1,0,0,0,1 @ F,0,0,1,0,0,0,1 @ F,0,0,1,0,0,0,1 @ F,0,0,1,0,0,0,1 @ F,0,0,1,0,0,0,1 @ F,0,0,1,0,0,0,1 @ F,0,0,1,0,0,0,1 @ F,0,0,1,0,0,0,1 @ F,0,0,1,0,0,0,1 @ F,0,0,1,0,0,0,1 @ F,0,0,1,0,0,0,1"
   radius="0"
   unit="px"
   method="auto"
   mode="F"
   chamfer_steps="1"
   flexible="false"
   use_knot_distance="true"
   apply_no_radius="true"
   apply_with_radius="true"
   only_selected="false"
   hide_knots="false" /><linearGradient
   id="SVGID_XMLID_1__3-3"
   gradientUnits="userSpaceOnUse"
   x1="63.271"
   y1="34.585899"
   x2="63.271"
   y2="71.583801"
   gradientTransform="matrix(1.99,0,0,1.99,-127.3656,-127.3929)">
<stop
   offset="0%"
   style="stop-color:rgb(0,61,199);stop-opacity: 1"
   id="stop1-2" />
<stop
   offset="100%"
   style="stop-color:rgb(76,164,255);stop-opacity: 1"
   id="stop2-0" />
</linearGradient><linearGradient
   id="SVGID_XMLID_2__4-6"
   gradientUnits="userSpaceOnUse"
   x1="68.250999"
   y1="-3.418"
   x2="68.250999"
   y2="58.083199"
   gradientTransform="matrix(1.99,0,0,1.99,-127.3476,-127.4195)">
<stop
   offset="0%"
   style="stop-color:rgb(0,0,81);stop-opacity: 1"
   id="stop3-1" />
<stop
   offset="100%"
   style="stop-color:rgb(88,177,255);stop-opacity: 1"
   id="stop4-5" />
</linearGradient><radialGradient
   id="SVGID_XMLID_3__5-5"
   gradientUnits="userSpaceOnUse"
   cx="73.426804"
   cy="136.78419"
   r="53.151699"
   fx="73.426804"
   fy="136.78419"
   gradientTransform="matrix(1.99,0,0,1.99,-127.3502,-127.3601)">
<stop
   offset="0%"
   style="stop-color:rgb(255,255,255);stop-opacity: 1"
   id="stop5-4" />
<stop
   offset="100%"
   style="stop-color:rgb(0,106,202);stop-opacity: 1"
   id="stop6-7" />
</radialGradient><radialGradient
   id="SVGID_XMLID_4__6-5"
   gradientUnits="userSpaceOnUse"
   cx="80.670898"
   cy="122.6865"
   r="116.7806"
   fx="80.670898"
   fy="122.6865"
   gradientTransform="matrix(1.99,0,0,1.99,-127.3573,-127.3843)">
<stop
   offset="0%"
   style="stop-color:rgb(202,255,255);stop-opacity: 1"
   id="stop7-4" />
<stop
   offset="100%"
   style="stop-color:rgb(0,144,255);stop-opacity: 1"
   id="stop8-7" />
</radialGradient><radialGradient
   id="SVGID_XMLID_5__7-4"
   gradientUnits="userSpaceOnUse"
   cx="69.948196"
   cy="120.5879"
   r="95.497902"
   fx="69.948196"
   fy="120.5879"
   gradientTransform="matrix(1.99,0,0,1.99,-127.3573,-127.3843)">
<stop
   offset="0%"
   style="stop-color:rgb(255,255,255);stop-opacity: 1"
   id="stop9-5" />
<stop
   offset="100%"
   style="stop-color:rgb(0,149,255);stop-opacity: 1"
   id="stop10-2" />
</radialGradient><linearGradient
   id="SVGID_XMLID_6__8-9"
   gradientUnits="userSpaceOnUse"
   x1="63.9995"
   y1="59.084499"
   x2="63.9995"
   y2="145.0817"
   gradientTransform="matrix(1.99,0,0,1.99,-127.36,-127.36)">
<stop
   offset="0%"
   style="stop-color:rgb(0,61,199);stop-opacity: 1"
   id="stop11-3" />
<stop
   offset="100%"
   style="stop-color:rgb(76,164,255);stop-opacity: 1"
   id="stop12-7" />
</linearGradient><radialGradient
   id="SVGID_XMLID_7__9-6"
   gradientUnits="userSpaceOnUse"
   cx="-11.0435"
   cy="-11.376"
   r="103.4305"
   fx="-11.0435"
   fy="-11.376"
   gradientTransform="matrix(1.99,0,0,1.99,-127.4193,-127.4422)">
<stop
   offset="0%"
   style="stop-color:rgb(255,255,255);stop-opacity: 1"
   id="stop13-5" />
<stop
   offset="100%"
   style="stop-color:rgb(139,206,255);stop-opacity: 1"
   id="stop14-6" />
</radialGradient><marker
   orient="auto"
   refY="0"
   refX="0"
   id="marker4405"
   style="overflow:visible"><path
     id="path4403"
     d="M 0,0 5,-5 -12.5,0 5,5 Z"
     style="fill:#000000;fill-opacity:1;fill-rule:evenodd;stroke:#000000;stroke-width:1pt;stroke-opacity:1"
     transform="matrix(-0.8,0,0,-0.8,-10,0)" /></marker><marker
   orient="auto"
   refY="0"
   refX="0"
   id="Arrow1Lstart"
   style="overflow:visible"><path
     id="path2389"
     d="M 0,0 5,-5 -12.5,0 5,5 Z"
     style="fill:#000000;fill-opacity:1;fill-rule:evenodd;stroke:#000000;stroke-width:1pt;stroke-opacity:1"
     transform="matrix(0.8,0,0,0.8,10,0)" /></marker><marker
   orient="auto"
   refY="0"
   refX="0"
   id="Arrow1Lend"
   style="overflow:visible"><path
     id="path2392"
     d="M 0,0 5,-5 -12.5,0 5,5 Z"
     style="fill:#000000;fill-opacity:1;fill-rule:evenodd;stroke:#000000;stroke-width:1pt;stroke-opacity:1"
     transform="matrix(-0.8,0,0,-0.8,-10,0)" /></marker>
























		
		
		
		
		
		
		
		
		
		
		
		


<linearGradient
   id="XMLID_9_"
   gradientUnits="userSpaceOnUse"
   x1="88.084999"
   y1="92.3545"
   x2="40.494202"
   y2="44.763699"><stop
     offset="0"
     style="stop-color:#744426"
     id="stop20" /><stop
     offset="1"
     style="stop-color:#DE972B"
     id="stop21" /><a:midPointStop
     offset="0"
     style="stop-color:#744426" /><a:midPointStop
     offset="0.5"
     style="stop-color:#744426" /><a:midPointStop
     offset="1"
     style="stop-color:#DE972B" /></linearGradient><linearGradient
   id="XMLID_8_"
   gradientUnits="userSpaceOnUse"
   x1="85.301804"
   y1="89.571297"
   x2="41.845001"
   y2="46.114498"
   gradientTransform="matrix(2.9143816,0,0,1.1318945,-62.099733,14.567947)"><stop
     offset="0"
     style="stop-color:#FFE692"
     id="stop18" /><stop
     offset="1"
     style="stop-color:#FFFFDC"
     id="stop19" /><a:midPointStop
     offset="0"
     style="stop-color:#FFE692" /><a:midPointStop
     offset="0.5"
     style="stop-color:#FFE692" /><a:midPointStop
     offset="1"
     style="stop-color:#FFFFDC" /></linearGradient><linearGradient
   id="XMLID_10_"
   gradientUnits="userSpaceOnUse"
   x1="53.900398"
   y1="108.3457"
   x2="32.1115"
   y2="36.188702"
   gradientTransform="matrix(2.9143816,0,0,1.1408852,-62.099733,14.347703)"><stop
     offset="0"
     style="stop-color:#FFB82D"
     id="stop22" /><stop
     offset="1"
     style="stop-color:#FFFFDC"
     id="stop23" /><a:midPointStop
     offset="0"
     style="stop-color:#FFB82D" /><a:midPointStop
     offset="0.5"
     style="stop-color:#FFB82D" /><a:midPointStop
     offset="1"
     style="stop-color:#FFFFDC" /></linearGradient><linearGradient
   id="XMLID_12_"
   gradientUnits="userSpaceOnUse"
   x1="62.387699"
   y1="74.371101"
   x2="62.387699"
   y2="36.490002"
   gradientTransform="matrix(2.9143816,0,0,1.1408852,-62.099733,14.347703)"><stop
     offset="0"
     style="stop-color:#FFAC2D"
     id="stop26" /><stop
     offset="1"
     style="stop-color:#FFFFDC"
     id="stop27" /><a:midPointStop
     offset="0"
     style="stop-color:#FFAC2D" /><a:midPointStop
     offset="0.5"
     style="stop-color:#FFAC2D" /><a:midPointStop
     offset="1"
     style="stop-color:#FFFFDC" /></linearGradient><linearGradient
   id="XMLID_14_"
   gradientUnits="userSpaceOnUse"
   x1="66.589424"
   y1="29.623716"
   x2="59.824772"
   y2="65.770927"
   gradientTransform="matrix(2.9143816,0,0,1.1408852,-62.099733,14.347703)"><stop
     offset="0"
     style="stop-color:#744426"
     id="stop30" /><stop
     offset="1"
     style="stop-color:#DE972B"
     id="stop31" /><a:midPointStop
     offset="0"
     style="stop-color:#744426" /><a:midPointStop
     offset="0.5"
     style="stop-color:#744426" /><a:midPointStop
     offset="1"
     style="stop-color:#DE972B" /></linearGradient><linearGradient
   id="XMLID_11_"
   gradientUnits="userSpaceOnUse"
   x1="37.746269"
   y1="124.71779"
   x2="92.718666"
   y2="143.35857"
   gradientTransform="matrix(2.9143816,0,0,1.1408852,-62.099733,14.347703)"><stop
     offset="0"
     style="stop-color:#FFA221"
     id="stop24" /><stop
     offset="1"
     style="stop-color:#FFE192"
     id="stop25" /><a:midPointStop
     offset="0"
     style="stop-color:#FFA221" /><a:midPointStop
     offset="0.5"
     style="stop-color:#FFA221" /><a:midPointStop
     offset="1"
     style="stop-color:#FFE192" /></linearGradient><linearGradient
   id="linearGradient16"
   gradientUnits="userSpaceOnUse"
   x1="85.301804"
   y1="89.571297"
   x2="41.845001"
   y2="46.114498"
   gradientTransform="matrix(1,0,0,0.99211958,0,0.19304653)"><stop
     offset="0"
     style="stop-color:#ffd43c;stop-opacity:1;"
     id="stop15" /><stop
     offset="1"
     style="stop-color:#FFFFDC"
     id="stop16" /><a:midPointStop
     offset="0"
     style="stop-color:#FFE692" /><a:midPointStop
     offset="0.5"
     style="stop-color:#FFE692" /><a:midPointStop
     offset="1"
     style="stop-color:#FFFFDC" /></linearGradient><linearGradient
   id="a"><stop
     stop-color="#2a7fff"
     offset="0"
     id="stop3-56" /><stop
     stop-color="#0cf"
     offset="1"
     id="stop4-29" /></linearGradient><linearGradient
   inkscape:collect="always"
   xlink:href="#linearGradient5"
   id="linearGradient37"
   x1="98.398003"
   y1="121.34563"
   x2="113.73383"
   y2="152.16232"
   gradientUnits="userSpaceOnUse" /><linearGradient
   id="linearGradient5"
   inkscape:collect="always"><stop
     style="stop-color:#ffffff;stop-opacity:0.17885102;"
     offset="0"
     id="stop37" /><stop
     style="stop-color:#313131;stop-opacity:0.82536584;"
     offset="1"
     id="stop38" /></linearGradient><linearGradient
   id="XMLID_1_-1"
   gradientUnits="userSpaceOnUse"
   x1="36.714008"
   y1="84.322861"
   x2="102.72586"
   y2="104.17506">
				<stop
   offset="0"
   style="stop-color:rgb(255,255,255)"
   id="stop1-7-6" />
				<stop
   offset="0.2477"
   style="stop-color:rgb(212,212,212)"
   id="stop2-2" />
				<stop
   offset="0.5974"
   style="stop-color:rgb(157,157,157)"
   id="stop3-4" />
				<stop
   offset="0.8587"
   style="stop-color:rgb(123,123,123)"
   id="stop4-3" />
				<stop
   offset="1"
   style="stop-color:rgb(110,110,110)"
   id="stop5-1" />
			</linearGradient><linearGradient
   id="XMLID_2_-4"
   gradientUnits="userSpaceOnUse"
   x1="81.513702"
   y1="113.87"
   x2="50.601002"
   y2="67.083">
				<stop
   offset="0"
   style="stop-color:rgb(255,255,255)"
   id="stop6-69" />
				<stop
   offset="1"
   style="stop-color:rgb(117,117,117)"
   id="stop7-4-7" />
			</linearGradient><linearGradient
   id="XMLID_3_-2"
   gradientUnits="userSpaceOnUse"
   x1="33.742901"
   y1="87.935234"
   x2="68.651871"
   y2="24.848707">
				<stop
   offset="0"
   style="stop-color:rgb(209,209,209)"
   id="stop8-26" />
				<stop
   offset="1"
   style="stop-color:rgb(107,107,107)"
   id="stop9-41" />
			</linearGradient><linearGradient
   id="XMLID_4_-2"
   gradientUnits="userSpaceOnUse"
   x1="73.198929"
   y1="45.250046"
   x2="2.9898825"
   y2="9.1737127">
				<stop
   offset="0"
   style="stop-color:rgb(255,255,255)"
   id="stop11-8-6" />
				<stop
   offset="1"
   style="stop-color:rgb(82,82,82)"
   id="stop12-8" />
				<a:midPointStop
   offset="0"
   style="stop-color:#FFFFFF" />
				<a:midPointStop
   offset="0.5"
   style="stop-color:#FFFFFF" />
				<a:midPointStop
   offset="1"
   style="stop-color:#525252" />
			</linearGradient><linearGradient
   id="XMLID_5_-9"
   gradientUnits="userSpaceOnUse"
   x1="51.885994"
   y1="104.01463"
   x2="73.303352"
   y2="10.764806">
				<stop
   offset="0"
   style="stop-color:rgb(255,255,255)"
   id="stop13-28" />
				<stop
   offset="1"
   style="stop-color:rgb(117,117,117)"
   id="stop14-8" />
				<a:midPointStop
   offset="0"
   style="stop-color:#FFFFFF" />
				<a:midPointStop
   offset="0.5"
   style="stop-color:#FFFFFF" />
				<a:midPointStop
   offset="1"
   style="stop-color:#757575" />
			</linearGradient><linearGradient
   id="XMLID_6_-8"
   gradientUnits="userSpaceOnUse"
   x1="42.681408"
   y1="45.651379"
   x2="87.871315"
   y2="71.36483">
					<stop
   offset="0"
   style="stop-color:rgb(255,255,255)"
   id="stop15-6" />
					<stop
   offset="1"
   style="stop-color:rgb(117,117,117)"
   id="stop16-8" />
					<a:midPointStop
   offset="0"
   style="stop-color:#FFFFFF" />
					<a:midPointStop
   offset="0.5"
   style="stop-color:#FFFFFF" />
					<a:midPointStop
   offset="1"
   style="stop-color:#757575" />
				</linearGradient><linearGradient
   id="XMLID_7_-3"
   gradientUnits="userSpaceOnUse"
   x1="52.332767"
   y1="66.938622"
   x2="57.737179"
   y2="41.743221"
   gradientTransform="translate(5.4834887,7.196017)">
					<stop
   offset="0%"
   style="stop-color:rgb(255,255,255)"
   id="stop17-8" />
					<stop
   offset="100%"
   style="stop-opacity:0;stop-color:rgb(255,255,255)"
   id="stop18-3" />
				</linearGradient></defs><g
     id="g54"
     style="clip-rule:nonzero;display:inline;fill:#000000;fill-rule:nonzero;stroke:#ffffff;stroke-width:0;stroke-miterlimit:4"
     inkscape:label="Gray Letter"
     transform="matrix(1.8501729,0,0,1.8501729,-34.305896,-0.0749907)"><path
       style="display:none;opacity:0.15;fill:#000000;stroke:none"
       d="m 137.525,40.665 -0.104,-0.275 c -0.049,-0.152 -0.11,-0.316 -0.194,-0.501 -0.212,-0.52 -0.472,-1.007 -0.797,-1.462 C 133.456,33.559 125.261,23.921 122.351,21.05 116.353,15.133 105.404,8.003 101.287,6.404 101.262,6.392 101.236,6.378 101.211,6.366 l -0.635,-0.293 h -0.548 -0.153 c -4.105,0 -63.664,0 -63.664,0 v 137.109 h 101.314 c 0,0 0,-99.767 0,-102.288 0,-0.064 -0.012,-0.143 -0.027,-0.223 0.014,-0.003 0.027,-0.006 0.027,-0.006 z"
       id="path2" /><path
       style="display:inline;fill:#293eff;stroke:none;fill-opacity:1"
       d="m 132.286,35.495 -0.103,-0.275 c -0.049,-0.152 -0.111,-0.316 -0.195,-0.501 -0.213,-0.52 -0.472,-1.007 -0.797,-1.462 C 128.217,28.39 120.021,18.751 117.112,15.88 111.115,9.963 100.164,2.834 96.049,1.234 96.023,1.222 95.998,1.208 95.971,1.196 L 95.337,0.902 h -0.548 -0.153 c -4.104,0 -63.665,0 -63.665,0 v 137.11 h 101.315 c 0,0 0,-99.768 0,-102.288 0,-0.065 -0.013,-0.144 -0.028,-0.224 0.016,-0.003 0.028,-0.006 0.028,-0.006 z"
       id="path3" /><path
       style="display:inline;opacity:0.2;fill:url(#aigrd1);stroke:none"
       d="m 80.369,69.414 c -19.646,4.394 -41.016,31.927 -41.016,44.458 0,0 0,8.855 0,15.869 8.81,0 75.74,0 84.549,0 0,-9.088 0,-95.466 0,-99.098 -0.498,-0.172 -4.514,-0.291 -5.809,-0.518 -2.99,19.761 -18.076,34.895 -37.725,39.288 z"
       id="path4" /><path
       style="display:inline;fill:url(#aigrd2);stroke:none"
       d="m 94.636,4.003 c 1.913,0.885 4.661,3.907 4.661,27.124 25.887,0 28.861,2.291 29.846,4.921 0,0.062 3.144,-0.554 3.144,-0.554 l -0.194,-0.52 C 130.372,30.371 125.514,28.216 102.421,28.041 102.206,8.113 99.874,3.001 95.972,1.194 L 95.338,0.9 h -0.701 c 0,0 -0.09,3.102 0,3.102 z"
       id="path15" /><g
       id="g11"
       transform="matrix(0.54049003,0,0,0.54049003,18.541995,0.04053173)"
       style="stroke:none;fill:#a3a3a3;fill-opacity:0.70915031"><rect
         style="fill:#a3a3a3;fill-rule:evenodd;stroke-width:1.29;stroke-linecap:round;stroke-linejoin:round;stroke-miterlimit:2.1;fill-opacity:0.70915031;stroke:none"
         id="rect1"
         width="92.663994"
         height="7.6032"
         x="42.055199"
         y="41.104797" /><rect
         style="fill:#a3a3a3;fill-opacity:0.70915031;fill-rule:evenodd;stroke-width:1.59471;stroke-linecap:round;stroke-linejoin:round;stroke-miterlimit:2.1;stroke:none"
         id="rect3"
         width="141.60959"
         height="7.6032"
         x="42.055199"
         y="76.507195" /><rect
         style="fill:#a3a3a3;fill-opacity:0.70915031;fill-rule:evenodd;stroke-width:1.59471;stroke-linecap:round;stroke-linejoin:round;stroke-miterlimit:2.1;stroke:none"
         id="rect4"
         width="141.60959"
         height="7.6032"
         x="42.055199"
         y="94.802399" /><rect
         style="fill:#a3a3a3;fill-opacity:0.70915031;fill-rule:evenodd;stroke-width:1.59471;stroke-linecap:round;stroke-linejoin:round;stroke-miterlimit:2.1;stroke:none"
         id="rect5"
         width="141.60959"
         height="7.6032"
         x="42.055199"
         y="111.90959" /><rect
         style="fill:#a3a3a3;fill-opacity:0.70915031;fill-rule:evenodd;stroke-width:1.59471;stroke-linecap:round;stroke-linejoin:round;stroke-miterlimit:2.1;stroke:none"
         id="rect6"
         width="141.60959"
         height="7.6032"
         x="42.055199"
         y="130.9176" /><rect
         style="fill:#a3a3a3;fill-opacity:0.70915031;fill-rule:evenodd;stroke-width:1.59471;stroke-linecap:round;stroke-linejoin:round;stroke-miterlimit:2.1;stroke:none"
         id="rect7"
         width="141.60959"
         height="7.6032"
         x="42.055199"
         y="148.0248" /><rect
         style="fill:#a3a3a3;fill-opacity:0.70915031;fill-rule:evenodd;stroke-width:1.59471;stroke-linecap:round;stroke-linejoin:round;stroke-miterlimit:2.1;stroke:none"
         id="rect8"
         width="141.60959"
         height="7.6032"
         x="42.055199"
         y="166.31999" /><rect
         style="fill:#a3a3a3;fill-opacity:0.70915031;fill-rule:evenodd;stroke-width:1.59471;stroke-linecap:round;stroke-linejoin:round;stroke-miterlimit:2.1;stroke:none"
         id="rect9"
         width="141.60959"
         height="7.6032"
         x="42.055199"
         y="183.42719" /><rect
         style="fill:#a3a3a3;fill-opacity:0.70915031;fill-rule:evenodd;stroke-width:1.59471;stroke-linecap:round;stroke-linejoin:round;stroke-miterlimit:2.1;stroke:none"
         id="rect10"
         width="141.60959"
         height="7.6032"
         x="42.055199"
         y="201.0096" /><rect
         style="fill:#a3a3a3;fill-opacity:0.70915031;fill-rule:evenodd;stroke-width:1.59471;stroke-linecap:round;stroke-linejoin:round;stroke-miterlimit:2.1;stroke:none"
         id="rect11"
         width="141.60959"
         height="7.6032"
         x="42.055199"
         y="219.30479" /></g><path
       style="display:inline;fill:url(#linearGradient85);stroke:none"
       d="m 132.286,35.495 -0.103,-0.275 c -0.049,-0.152 -0.111,-0.316 -0.195,-0.501 -0.213,-0.52 -0.472,-1.007 -0.797,-1.462 C 128.217,28.39 120.021,18.751 117.112,15.88 111.115,9.963 100.164,2.834 96.049,1.234 96.023,1.222 95.998,1.208 95.971,1.196 L 95.337,0.902 h -0.548 -0.153 c -4.104,0 -63.665,0 -63.665,0 v 137.11 h 101.315 c 0,0 0,-99.768 0,-102.288 0,-0.065 -0.013,-0.144 -0.028,-0.224 0.016,-0.003 0.028,-0.006 0.028,-0.006 z m -7.434,-5.749 c -4.344,-1.067 -11.244,-1.618 -22.432,-1.703 -0.113,-10.495 -0.814,-16.877 -2.021,-20.834 4.297,2.598 10.059,6.491 14.49,10.865 2.277,2.248 6.644,7.38 9.963,11.673 z m 4.291,105.164 c -5.715,0 -89.314,0 -95.027,0 0,-5.788 0,-125.117 0,-130.906 5.682,0 59.672,0 60.521,0 1.913,0.885 4.661,3.907 4.661,27.124 22.803,0 27.826,1.777 29.371,4 0.212,0.362 0.387,0.688 0.475,0.921 0,0.626 0,93.048 0,98.861 z"
       id="path17-8" /><path
       style="display:inline;fill:url(#linearGradient57);stroke:none"
       d="m 132.286,35.495 -0.103,-0.275 c -0.049,-0.152 -0.111,-0.316 -0.195,-0.501 -0.213,-0.52 -0.472,-1.007 -0.797,-1.462 C 128.217,28.39 120.021,18.751 117.112,15.88 111.115,9.963 100.164,2.834 96.049,1.234 96.023,1.222 95.998,1.208 95.971,1.196 L 95.337,0.902 h -0.548 -0.153 c -4.104,0 -63.665,0 -63.665,0 v 137.11 h 101.315 c 0,0 0,-99.768 0,-102.288 0,-0.065 -0.013,-0.144 -0.028,-0.224 0.016,-0.003 0.028,-0.006 0.028,-0.006 z m -7.434,-5.749 c -4.344,-1.067 -11.244,-1.618 -22.432,-1.703 -0.113,-10.495 -0.814,-16.877 -2.021,-20.834 4.297,2.598 10.059,6.491 14.49,10.865 2.277,2.248 6.644,7.38 9.963,11.673 z m 4.291,105.164 c -5.715,0 -89.314,0 -95.027,0 0,-5.788 0,-125.117 0,-130.906 5.682,0 59.672,0 60.521,0 1.913,0.885 4.661,3.907 4.661,27.124 22.803,0 27.826,1.777 29.371,4 0.212,0.362 0.387,0.688 0.475,0.921 0,0.626 0,93.048 0,98.861 z"
       id="path18" /><path
       style="display:inline;fill:url(#aigrd5);stroke:none"
       d="m 132.286,35.495 -0.103,-0.275 c -0.049,-0.152 -0.111,-0.316 -0.195,-0.501 -0.213,-0.52 -0.472,-1.007 -0.797,-1.462 C 128.217,28.39 120.021,18.751 117.112,15.88 111.115,9.963 100.164,2.834 96.049,1.234 96.023,1.222 95.998,1.208 95.971,1.196 L 95.337,0.902 h -0.548 -0.153 c -4.104,0 -63.665,0 -63.665,0 v 137.11 h 101.315 c 0,0 0,-99.768 0,-102.288 0,-0.065 -0.013,-0.144 -0.028,-0.224 0.016,-0.003 0.028,-0.006 0.028,-0.006 z m -7.434,-5.749 c -4.344,-1.067 -11.244,-1.618 -22.432,-1.703 -0.113,-10.495 -0.814,-16.877 -2.021,-20.834 4.297,2.598 10.059,6.491 14.49,10.865 2.277,2.248 6.644,7.38 9.963,11.673 z m 4.291,105.164 c -5.715,0 -89.314,0 -95.027,0 0,-5.788 0,-125.117 0,-130.906 5.682,0 59.672,0 60.521,0 1.913,0.885 4.661,3.907 4.661,27.124 22.803,0 27.826,1.777 29.371,4 0.212,0.362 0.387,0.688 0.475,0.921 0,0.626 0,93.048 0,98.861 z"
       id="path19" /><path
       style="display:none;opacity:0.2;fill:url(#aigrd6);stroke:none"
       d="m 132.41205,137.81582 c -5.715,0 -89.314,0 -95.027,0 0,-5.788 0,-125.116997 0,-130.9059974 5.682,0 59.672,0 60.521,0 1.913,0.885 4.661,3.9070004 4.661,27.1240004 22.803,0 27.826,1.777 29.371,4 0.212,0.362 0.387,0.688 0.475,0.921 0,0.626 0,93.047997 0,98.860997 z"
       id="path21" /><path
       style="display:inline;opacity:0.39;fill:url(#aigrd7);stroke:none"
       d="m 34.115,4.003 c 0,5.789 0,125.118 0,130.906 5.713,0 89.313,0 95.027,0 0,-5.813 0,-98.235 0,-98.861 -0.984,-2.63 -10.486,-14.257 -14.254,-17.976 -7.334,-7.239 -18.34,-13.184 -20.253,-14.069 -0.849,0 -54.839,0 -60.521,0 z m 59.574,4 c 2.879,1.481 12.113,6.722 18.39,12.916 3.54,3.494 11.307,13.091 13.063,16.067 0,1.764 0,86.63 0,93.923 -7.018,0 -80.01,0 -87.027,0 0,-7.282 0,-115.624 0,-122.906 6.859,0 53.862,0 55.574,0 z"
       id="path23" /><path
       style="display:inline;opacity:0.12;fill:url(#aigrd8);stroke:none"
       d="m 129.143,134.91 c 0,-31.763 -18.516,-97.116 -29.846,-103.782 0,-19.545 -7.322,-27.085 -12.816,-27.085 1.915,0 3.721,-0.039 8.155,-0.039 20.007,10.022 28.294,23.399 34.032,31.124 0.212,0.362 0.387,0.688 0.475,0.921 0,0.626 0,93.048 0,98.861 z"
       id="path25" /><path
       style="display:inline;opacity:0.12;fill:url(#aigrd9);stroke:none"
       d="m 129.143,83.819 c 0,-8.586 -2.187,-16.566 -5.312,-23.592 -7.189,-16.164 -19.346,-27.275 -21.271,-29.087 1.193,0.01 2.332,0.024 3.418,0.046 3.392,0.063 6.274,0.179 8.729,0.338 4.133,0.268 7.049,0.659 9.126,1.14 2.927,0.677 4.187,1.531 4.835,2.464 0.212,0.362 0.387,0.688 0.475,0.921 0,0.626 0,41.958 0,47.771 z"
       id="path27-7" /><path
       style="display:inline;fill:#ffffff;stroke:none"
       d="m 124.852,29.746 c -4.344,-1.067 -11.244,-1.618 -22.432,-1.703 -0.113,-10.495 -0.814,-16.877 -2.021,-20.834 4.297,2.598 10.059,6.491 14.49,10.865 2.277,2.248 6.644,7.38 9.963,11.673 z"
       id="path28" /><path
       style="display:inline;opacity:0.29;fill:url(#aigrd10);stroke:none"
       d="m 124.852,29.746 c -4.344,-1.067 -11.244,-1.618 -22.432,-1.703 -0.113,-10.495 -0.814,-16.877 -2.021,-20.834 4.297,2.598 10.059,6.491 14.49,10.865 2.277,2.248 6.644,7.38 9.963,11.673 z"
       id="path30" /><path
       style="display:inline;opacity:0.25;fill:url(#aigrd11);stroke:none"
       d="m 124.852,29.746 c -4.344,-1.067 -11.244,-1.618 -22.432,-1.703 -0.113,-10.495 -0.814,-16.877 -2.021,-20.834 4.297,2.598 10.059,6.491 14.49,10.865 2.277,2.248 6.644,7.38 9.963,11.673 z m -20.373,-3.745 c 6.457,0.088 11.459,0.345 15.345,0.8 -2.475,-3.001 -4.942,-5.813 -6.417,-7.266 -3.025,-2.988 -6.644,-5.68 -9.925,-7.88 0.558,3.677 0.882,8.39 0.997,14.346 z"
       id="path32" /></g><metadata
     id="metadata1"><rdf:RDF><cc:Work
         rdf:about=""><cc:license
           rdf:resource="http://creativecommons.org/publicdomain/zero/1.0/" /></cc:Work><cc:License
         rdf:about="http://creativecommons.org/publicdomain/zero/1.0/"><cc:permits
           rdf:resource="http://creativecommons.org/ns#Reproduction" /><cc:permits
           rdf:resource="http://creativecommons.org/ns#Distribution" /><cc:permits
           rdf:resource="http://creativecommons.org/ns#DerivativeWorks" /></cc:License></rdf:RDF></metadata><text
     xml:space="preserve"
     style="font-style:italic;font-size:31.75px;line-height:1;font-family:'Source Code Pro';-inkscape-font-specification:'Source Code Pro Italic';letter-spacing:0.928688px;word-spacing:0px;display:none;fill:#ffffff;fill-opacity:0.60179;fill-rule:evenodd;stroke-width:4.2;stroke-linecap:round;stroke-linejoin:round;stroke-miterlimit:2.1"
     x="61.566872"
     y="173.2263"
     id="text1"><tspan
       sodipodi:role="line"
       style="font-style:normal;font-variant:normal;font-weight:bold;font-stretch:normal;font-size:31.75px;font-family:'Liberation Sans';-inkscape-font-specification:'Liberation Sans Bold';fill:#000000;fill-opacity:1;stroke-width:4.2"
       x="61.566872"
       y="173.2263"
       id="tspan3">c-code</tspan></text><style
     type="text/css"
     id="style1">
	.st0{fill:#ABD038;}
	.st1{fill:#EE332D;}
	.st2{fill:#F2BA1A;}
	.st3{fill:#3DAE2B;}
	.st4{fill:#010101;}
</style><g
     id="g67"
     style="fill:#ffffff;fill-opacity:1;stroke:none"
     transform="translate(0,4.0322057)"><g
       id="g66"
       style="fill:#ffffff;fill-opacity:1;stroke:none;stroke-opacity:1"
       transform="matrix(0.58125146,0,0,0.58125146,-65.998736,166.46435)"><path
         style="fill:#ffffff;fill-opacity:1;stroke:none;stroke-opacity:1"
         d="m 386.99024,85.145143 c -3.90515,-0.319446 -6.11117,-1.681259 -6.60891,-4.079777 -0.18939,-0.912676 -0.25708,-10.302329 -0.20902,-28.998665 l 0.0711,-27.648959 0.59948,-0.96402 c 1.15626,-1.85936 -0.79059,-1.759105 30.66841,-1.579305 28.10152,0.160612 28.36407,0.166998 29.08782,0.70759 0.40169,0.300033 0.97582,0.874201 1.27586,1.275929 0.53459,0.715791 0.54715,1.049158 0.62741,16.652402 0.0545,10.589275 -0.0112,16.239872 -0.19615,16.871101 -0.58473,1.995897 1.51629,1.843529 -25.29916,1.83472 -18.88914,-0.0062 -24.0786,-0.07846 -24.24312,-0.337531 -0.3555,-0.559834 -0.25919,-6.393611 0.1133,-6.862691 0.29375,-0.369918 2.57528,-0.433425 20.40524,-0.567978 18.39043,-0.138783 20.11619,-0.189212 20.57135,-0.601132 0.46943,-0.424828 0.49685,-1.003154 0.49685,-10.480194 0,-6.036862 -0.10312,-10.223237 -0.259,-10.514497 -0.14245,-0.266168 -0.63647,-0.615529 -1.09781,-0.776356 -1.20279,-0.419295 -42.27868,-0.41108 -43.19986,0.0086 -0.36341,0.165579 -0.78573,0.659596 -0.93849,1.097816 -0.18545,0.531983 -0.27776,8.208491 -0.27776,23.099819 V 75.58511 l 0.63853,0.742359 0.63852,0.742358 34.81144,0.06904 34.81144,0.06904 0.42412,0.647293 c 0.34214,0.522173 0.40688,1.235201 0.33493,3.688751 -0.0598,2.038213 -0.20263,3.15468 -0.43312,3.384707 -0.27808,0.277536 -7.06577,0.348726 -35.45416,0.371851 -19.31063,0.01573 -36.12227,-0.05419 -37.3592,-0.155368 z"
         id="path66" /><path
         style="fill:#ffffff;fill-opacity:1;stroke:none;stroke-opacity:1"
         d="m 176.56192,85.158283 c -0.70136,-0.09865 -1.37453,-0.340098 -1.49594,-0.536544 -0.37003,-0.598721 -0.59044,-3.150261 -0.39713,-4.597406 0.33893,-2.53735 -2.83217,-2.293048 29.76423,-2.293048 h 28.76289 l 0.708,-0.556913 0.708,-0.556914 -0.077,-8.032959 c -0.07,-7.297372 -0.12027,-8.076191 -0.54945,-8.505066 -0.44259,-0.442273 -1.7273,-0.480466 -20.33039,-0.604398 l -19.85796,-0.132292 -0.47778,-0.590349 c -0.68818,-0.850306 -0.85356,-5.50379 -0.75091,-21.128431 l 0.0853,-12.98753 0.74688,-1.077416 c 0.41078,-0.592579 1.12515,-1.237097 1.5875,-1.432262 0.68107,-0.287497 5.17075,-0.354847 23.65488,-0.354847 h 22.81425 l 0.73366,0.733194 c 0.682,0.68156 0.74016,0.910845 0.82585,3.255778 0.10215,2.795283 -0.20083,3.941498 -1.10604,4.184306 -0.3155,0.08463 -9.16816,0.155498 -19.67257,0.157485 -12.00165,0.0023 -19.35588,0.101308 -19.7904,0.266513 -1.40925,0.535797 -1.51105,1.325115 -1.41481,10.970413 0.0789,7.911166 0.13402,8.837982 0.56433,9.494271 0.26227,0.400007 0.77603,0.841034 1.1417,0.980059 0.40025,0.152175 8.27203,0.252774 19.77934,0.252774 16.08762,0 19.19583,0.05945 19.62809,0.375426 0.49685,0.363189 0.51601,0.883701 0.58777,15.968061 0.0718,15.10168 0.058,15.612615 -0.43961,16.227179 l -0.51378,0.634544 -31.97185,0.03287 c -17.58452,0.01808 -32.5457,-0.04784 -33.24706,-0.1465 z"
         id="path65" /><path
         id="path63"
         style="fill:#ffffff;fill-opacity:1;stroke:none;stroke-opacity:1"
         d="m 271.632,21.767147 c -18.92231,0.01353 -18.24955,-0.03969 -19.42311,1.545642 l -0.55293,0.746724 v 29.151193 c 0,24.300669 0.0612,29.29575 0.36793,30.022973 0.72204,1.711653 0.45964,1.683881 15.73186,1.663981 16.88319,-0.022 28.54192,-0.253296 29.89275,-0.593245 0.55739,-0.140275 1.41864,-0.634973 1.91409,-1.099158 0.98665,-0.924378 4.87815,-7.63076 7.95197,-13.705106 2.65526,-5.247174 3.49299,-6.062354 4.79919,-4.667416 0.30659,0.327422 1.6185,2.500315 2.91559,4.828646 4.64477,8.337575 8.30486,13.693032 9.83299,14.388269 0.8267,0.376116 2.84358,0.438019 16.55196,0.507979 8.58572,0.04381 15.99418,0.0095 16.46308,-0.07648 0.71768,-0.131677 0.89018,-0.311632 1.09037,-1.137915 0.32858,-1.356203 0.33724,-3.173498 0.0212,-4.355806 -0.51983,-1.944698 0.14078,-1.875483 -15.79594,-1.65623 -16.04346,0.220721 -15.38747,0.288539 -17.07337,-1.768884 -1.03237,-1.259869 -5.3203,-8.154612 -8.68888,-13.970724 -1.57379,-2.717273 -2.07026,-3.810258 -2.07326,-4.568713 -0.006,-1.296617 1.63375,-4.560591 6.03788,-12.017354 1.87471,-3.174127 4.61985,-7.825092 6.1004,-10.335287 1.56734,-2.657351 2.98729,-4.757452 3.39876,-5.027083 0.65145,-0.426899 1.84486,-0.463021 15.27038,-0.463021 8.01009,0 14.89937,0.09394 15.30915,0.208256 1.57301,0.43885 1.50378,-1.254284 1.50378,36.838062 0,38.59465 0.13175,35.85588 -1.77457,36.80292 -0.95872,0.47624 -2.12376,0.50214 -25.92141,0.57154 l -24.91734,0.0724 -0.46664,1.22266 c -0.31354,0.82098 -0.47216,1.99868 -0.48266,3.5879 -0.0144,2.17673 0.0346,2.40627 0.60927,2.87217 0.60693,0.49209 1.4622,0.50643 30.21934,0.50643 h 29.59458 l 0.91932,-0.80718 c 0.684,-0.60055 0.99719,-1.15923 1.22318,-2.18282 0.22342,-1.01237 0.28016,-12.171211 0.21446,-42.253746 l -0.0894,-40.878125 -0.66146,-1.3224 c -1.24326,-2.485796 -0.87241,-2.409465 -12.51448,-2.582788 -5.59779,-0.08334 -14.62668,-0.08833 -20.06441,-0.01137 -9.75326,0.138036 -9.90168,0.148324 -10.97039,0.75861 -1.322,0.754934 -1.74828,1.388003 -7.38198,10.963155 -8.38749,14.255557 -9.08441,15.345833 -9.81077,15.345833 -0.58612,0 -1.69152,-1.623294 -6.30556,-9.260416 -7.53671,-12.47474 -9.90703,-16.105982 -10.97452,-16.812411 -0.63714,-0.421644 -1.57555,-0.705152 -2.80862,-0.848527 -1.01844,-0.118423 -9.65016,-0.209888 -19.18177,-0.203088 z m 4.29069,7.55096 c 11.59668,0.0054 12.58762,0.04175 13.56868,0.494544 1.27097,0.586589 1.87792,1.239157 3.10266,3.33623 2.69272,4.610653 10.55806,17.567023 12.14034,19.998263 2.22494,3.418687 2.31536,4.09754 0.86145,6.475573 -0.52859,0.864564 -2.77923,4.629761 -5.00125,8.366931 -4.02641,6.771955 -5.58819,9.107147 -6.42751,9.609233 h -5.2e-4 c -0.69952,0.418451 -31.41675,0.477413 -32.57992,0.06253 -0.5134,-0.183123 -1.18289,-0.722363 -1.52136,-1.225765 l -0.60461,-0.89917 0.006,-21.193539 c 0.005,-19.998458 0.0334,-21.25374 0.49196,-22.252388 0.57806,-1.258838 1.16792,-1.822714 2.47995,-2.370915 0.83063,-0.347055 2.81538,-0.406526 13.48393,-0.401526 z" /></g><path
       style="fill:#ffffff;fill-opacity:1;stroke:none;stroke-opacity:1"
       d="m 103.45571,159.99833 c -1.39458,-0.6903 -2.15741,-1.7296 -2.54415,-3.46623 l -0.29754,-1.33609 -6.578244,-3.53909 c -6.55202,-3.52498 -6.58234,-3.53786 -7.60677,-3.23093 -2.04804,0.6136 -4.22668,-0.73311 -4.62554,-2.85924 -0.15123,-0.80613 -2.07356,-2.89555 -12.59006,-13.6844 -11.35276,-11.64678 -12.49792,-12.74542 -13.42376,-12.87853 -1.45759,-0.20955 -2.28914,-0.85958 -2.79539,-2.1852 -0.55657,-1.45735 -0.22805,-2.95396 0.86153,-3.92477 l 0.73864,-0.65813 0.89135,-16.947486 0.89136,-16.94748 -0.90031,-1.12031 c -0.82662,-1.02861 -0.90031,-1.2681 -0.90031,-2.92579 0,-2.01491 0.41342,-2.82745 1.98168,-3.8948 0.98255,-0.66872 2.95915,-0.80427 4.35701,-0.29879 0.78751,0.28476 1.01504,0.16912 5.74052,-2.91778 l 4.9205,-3.21429 0.12595,-1.31078 c 0.26276,-2.73454 2.91489,-4.91327 5.74434,-4.71898 l 1.33035,0.0913 5.56891,-6.46868 c 3.87678,-4.503153 5.51666,-6.593406 5.39695,-6.879166 -0.89944,-2.147033 -0.67713,-3.845961 0.70999,-5.425803 0.96496,-1.099031 2.28341,-1.57381 3.8729,-1.394651 1.37352,0.154816 2.33368,0.779668 3.18677,2.073886 l 0.60253,0.914102 17.711624,0.600523 17.71162,0.600524 0.74459,-0.5505 c 2.26184,-1.672246 5.6176,-0.168926 5.6209,2.518058 8.3e-4,0.667957 1.94928,3.189704 11.44827,14.816667 11.28641,13.8148 11.46254,14.01375 12.53339,14.15723 1.45326,0.19471 2.437,0.88315 2.92257,2.04528 0.48134,1.15201 0.31324,2.52888 -0.43176,3.53655 l -0.53066,0.71776 1.7303,5.77328 c 3.47086,11.58078 3.13905,10.72874 4.41207,11.32953 3.72653,1.75869 3.11618,7.290776 -0.92359,8.371256 l -1.18904,0.31802 -7.87132,17.34755 -7.87132,17.34755 0.42797,1.19427 c 0.56621,1.57999 0.5382,2.71397 -0.0978,3.96066 -0.77969,1.5283 -1.92481,2.22537 -3.8312,2.33216 -1.60486,0.0899 -1.79482,0.0215 -3.61423,-1.30096 -0.3853,-0.28007 -12.31453,3.05813 -35.72558,9.99722 -0.98204,0.29108 -1.2649,0.50977 -1.40966,1.08988 -0.44417,1.7799 -2.64007,3.48467 -4.50553,3.49783 -0.43656,0.003 -1.30093,-0.24544 -1.92081,-0.55228 z m 3.00468,-13.87149 c 0.96935,-2.98868 1.70601,-5.4904 1.63702,-5.55938 -0.2015,-0.20151 -12.658904,2.87527 -12.581084,3.10733 0.17496,0.52168 8.322204,7.8814 8.727164,7.88357 0.35811,0.002 0.82812,-1.1496 2.2169,-5.43152 z m 21.3434,0.12195 c 10.08001,-2.93862 15.64343,-4.67758 15.34583,-4.79665 -0.25677,-0.10273 -4.18451,-0.97869 -8.72832,-1.94657 l -8.26147,-1.75977 -0.68522,0.81434 c -1.36678,1.62432 -3.8915,1.60583 -5.32514,-0.039 l -0.75003,-0.86051 -2.84712,0.6604 -2.84712,0.6604 -1.98153,6.13169 c -1.08984,3.37244 -1.98153,6.1971 -1.98153,6.27704 0,0.0799 0.50602,-0.007 1.12448,-0.19307 0.61847,-0.18613 8.24019,-2.41286 16.93717,-4.94829 z m -36.711854,-0.2412 c -0.8375,-0.87415 -1.55641,-1.19538 -2.02589,-0.90523 -0.18762,0.11595 0.25079,0.47955 1.12211,0.93064 1.79918,0.93145 1.81994,0.93087 0.90378,-0.0254 z m 10.655614,-5.65052 c 3.82491,-0.92992 7.01185,-1.74824 7.08209,-1.81849 0.0702,-0.0702 1.67508,-4.91419 3.5663,-10.76431 l 3.43858,-10.6366 -0.86337,-1.03991 c -0.53922,-0.64948 -1.09071,-1.04171 -1.46885,-1.04469 -0.333,-0.003 -10.00226,1.00726 -21.487244,2.24419 -11.48498,1.23693 -21.06494,2.24896 -21.2888,2.24896 -0.22387,0 -0.39767,0.14883 -0.38623,0.33073 0.0114,0.1819 5.32521,5.30469 11.80837,11.38399 8.08994,7.58597 11.92202,11.01148 12.21618,10.92008 0.23573,-0.0732 3.55807,-0.89402 7.382974,-1.82395 z m -16.326284,1.14956 c 0.69105,0 -0.35851,-1.07208 -9.19531,-9.3927 -8.42934,-7.93696 -10.09546,-9.39271 -10.75003,-9.39271 -0.87134,0 -1.10899,-0.26155 11.69382,12.87024 5.68038,5.82635 6.28257,6.36717 6.84967,6.15156 0.34197,-0.13001 0.9728,-0.23639 1.40185,-0.23639 z m 61.963424,-1.98437 c 0.59503,-0.50932 1.2201,-0.92604 1.38904,-0.92604 0.35847,0 0.65591,-7.75028 0.65591,-17.09046 0,-5.63441 -0.0229,-5.8999 -0.52229,-6.0584 -0.62013,-0.19682 -1.45196,-1.31905 -1.68057,-2.26726 -0.39385,-1.6336 0.84254,-3.53505 2.51629,-3.8698 0.53476,-0.10695 0.80318,-0.38376 1.02558,-1.05763 0.16568,-0.50201 0.2596,-0.94803 0.20872,-0.99115 -0.0987,-0.0836 -22.82839,5.18783 -23.52266,5.45536 -0.22627,0.0872 -0.58086,0.67719 -0.78799,1.31112 -0.69952,2.1409 -3.73969,4.45988 -5.84689,4.45988 -0.38323,0 -0.98617,1.59538 -3.27479,8.66511 -1.54279,4.76581 -2.91374,8.99934 -3.04654,9.40784 -0.20676,0.63598 -0.17613,0.72505 0.21307,0.61964 0.24999,-0.0677 1.32449,-0.32712 2.38778,-0.57648 1.85283,-0.43453 1.95034,-0.49611 2.34423,-1.48052 0.62212,-1.55484 1.71814,-2.34809 3.24432,-2.34809 1.64669,0 2.90635,0.82754 3.42974,2.25317 0.21284,0.57977 0.41982,1.09812 0.45994,1.15189 0.0811,0.10864 18.80766,4.21482 19.37042,4.24735 0.19515,0.0113 0.84166,-0.39621 1.43669,-0.90553 z m 10.7421,-19.92552 c 3.91738,-8.61351 7.04566,-15.66252 6.95174,-15.66444 -0.52183,-0.0107 -11.8612,2.75263 -12.11018,2.95115 -0.16376,0.13057 -0.44723,0.77129 -0.62993,1.42383 -0.32027,1.1439 -0.30755,1.20581 0.35478,1.72681 1.78227,1.40193 1.26867,4.65241 -0.87544,5.54053 l -0.80062,0.33163 -6.1e-4,3.60592 c -3.3e-4,1.98326 -0.0764,6.40389 -0.16905,9.82363 -0.0926,3.41974 -0.0953,6.15115 -0.006,6.0698 0.0894,-0.0813 3.36775,-7.19534 7.28513,-15.80886 z m -96.538814,-0.31511 c 0,-0.14552 -0.12609,-0.26458 -0.2802,-0.26458 -0.15411,0 -0.20661,0.11906 -0.11668,0.26458 0.0899,0.14552 0.21603,0.26459 0.2802,0.26459 0.0642,0 0.11668,-0.11907 0.11668,-0.26459 z m 1.17221,-4.2141 c 0.40812,-0.42599 1.08675,-0.91732 1.50807,-1.09183 0.42132,-0.17452 0.82726,-0.57012 0.9021,-0.87912 0.42438,-1.75231 7.49706,-39.179946 7.41864,-39.258376 -0.11215,-0.11215 -8.90026,0.90115 -8.96921,1.03418 -0.0261,0.0503 -0.34509,0.68685 -0.7089,1.41445 -0.54285,1.08571 -0.90836,1.44152 -2.03851,1.98438 -0.75737,0.3638 -1.38764,0.84005 -1.40059,1.05833 -0.0129,0.21828 -0.41914,7.65969 -0.90265,16.53646 l -0.87911,16.139586 0.89098,0.8904 c 0.49004,0.48972 0.98671,1.25981 1.1037,1.71132 0.14187,0.5475 0.42816,0.88104 0.85956,1.00145 1.15226,0.32161 1.46165,0.24605 2.21592,-0.54123 z m 28.32883,-2.39506 c 23.950324,-2.54851 22.405644,-2.35587 22.305394,-2.78165 -0.10954,-0.4652 -26.990324,-30.859336 -27.150534,-30.699126 -0.0701,0.0701 -0.44053,1.5257 -0.82312,3.2346 l -0.69561,3.10709 0.97967,0.97967 c 2.19462,2.19462 0.99243,5.60507 -2.11639,6.00395 l -1.35611,0.174 -6.98967,10.715616 -6.98966,10.71564 0.5701,0.46433 c 0.3971,0.32343 0.85111,0.42384 1.49614,0.33087 0.50932,-0.0734 9.85573,-1.08365 20.76979,-2.24499 z m -16.79387,-10.58876 c 2.8024,-4.292866 5.44502,-8.369636 5.8725,-9.059486 l 0.77724,-1.25428 -0.55033,-0.69963 c -0.38074,-0.48403 -0.55033,-1.08427 -0.55033,-1.94774 0,-1.66327 0.84122,-2.91839 2.29568,-3.42521 l 1.08782,-0.37906 0.84301,-3.92119 0.84301,-3.92119 -1.93945,-2.27057 -1.93945,-2.27057 -2.38125,0.16875 c -1.30968,0.0928 -2.4631,0.25171 -2.56315,0.35311 -0.15012,0.15215 -7.09414,35.838076 -7.09414,36.457396 0,0.29455 -0.14439,0.50793 5.29884,-7.83033 z m 64.815744,3.03761 c 6.6212,-1.53805 12.46601,-2.90972 12.98848,-3.04815 l 0.94993,-0.25169 2.0702,-5.888156 c 1.13862,-3.23848 2.11646,-6.02029 2.17299,-6.18178 0.0725,-0.20713 -15.42474,-20.37463 -21.00363,-27.33329 -0.0486,-0.0606 -0.13707,-0.0606 -0.19658,0 -0.0595,0.0606 -2.63432,9.95895 -5.72181,21.99626 l -5.61362,21.886006 0.76087,0.91175 c 0.41849,0.50147 0.93947,0.86535 1.15776,0.80863 0.21828,-0.0567 5.81421,-1.36154 12.43541,-2.89958 z m -20.51338,-0.37855 c 0.19863,-0.3214 11.25077,-43.421776 11.25203,-43.879906 0.002,-0.60436 -1.67668,-0.10467 -10.05323,2.99314 -11.35259,4.19841 -11.13449,4.1114 -10.97051,4.37672 0.3007,0.48655 -0.22361,2.1324 -0.91514,2.87268 -1.40512,1.50418 -3.59139,1.54956 -5.09833,0.10582 l -0.75195,-0.72041 -5.750264,0.61396 c -3.16265,0.33768 -6.20251,0.68928 -6.75524,0.78134 l -1.00498,0.16739 9.70386,10.98021 c 18.152054,20.539586 19.433814,21.960406 19.811124,21.960406 0.20751,0 0.44719,-0.11311 0.53263,-0.25135 z m 41.52475,-4.5118 c 2.4612,-0.580666 4.52777,-1.108616 4.59238,-1.173226 0.0961,-0.0961 -4.80884,-6.56199 -5.89429,-7.77004 -0.24283,-0.27026 -0.69164,0.73662 -2.07221,4.6488 -0.96924,2.74657 -1.76225,5.074686 -1.76225,5.173606 0,0.30074 0.49299,0.21636 5.13637,-0.87914 z m 4.78159,-13.260916 c -1.10496,-3.69296 -2.10344,-6.80937 -2.21886,-6.92536 -0.3365,-0.33818 -2.23879,5.34426 -1.97207,5.89085 0.28807,0.59033 6.02106,7.90948 6.12343,7.81762 0.0421,-0.0377 -0.82755,-3.09015 -1.9325,-6.78311 z m -4.67915,-5.35441 0.87317,-2.47541 -0.57751,-0.97881 c -0.45902,-0.77799 -0.5469,-1.23727 -0.42831,-2.23852 l 0.14919,-1.25971 -10.99416,-13.47568 c -6.0468,-7.41162 -11.15406,-13.513357 -11.34948,-13.559406 -0.19541,-0.04605 -0.41812,0.192076 -0.49491,0.529167 -0.76233,3.346789 -0.76712,3.391019 -0.36729,3.391019 0.60618,0 2.09238,1.37657 2.65883,2.46272 0.557,1.06801 0.63763,2.04449 0.40297,4.8801 -0.0493,0.59574 1.67276,2.95197 9.46473,12.95024 5.23875,6.7221 9.58454,12.22824 9.6573,12.23585 0.0728,0.008 0.52522,-1.10009 1.00547,-2.46156 z m -90.977154,-9.04655 c 1.95719,-0.22039 3.60772,-0.4499 3.66784,-0.51002 0.13828,-0.13827 0.82169,-3.30367 0.83413,-3.86347 0.005,-0.23007 -0.28617,-0.57644 -0.6473,-0.7697 -0.62074,-0.33222 -0.9024,-0.1881 -5.15937,2.63999 -2.47653,1.64526 -4.50279,3.04072 -4.50279,3.10102 0,0.0603 0.50602,0.0406 1.12448,-0.0437 0.61846,-0.0844 2.72582,-0.33369 4.68301,-0.55409 z m 9.75652,-1.08439 c 0.59778,-0.16008 0.58324,-0.19712 -0.51811,-1.31931 -0.62324,-0.63503 -1.27138,-1.1546 -1.44033,-1.1546 -0.26646,0 -0.62928,1.31641 -0.63807,2.3151 -0.003,0.35495 1.51687,0.44792 2.59651,0.15881 z m 16.18599,-1.81245 c 3.1287,-0.35886 5.896904,-0.6545 6.151564,-0.65697 0.341,-0.003 0.46302,-0.22187 0.46302,-0.82937 0,-0.60541 0.2733,-1.09817 1.02721,-1.85208 0.90375,-0.90376 1.17766,-1.02721 2.27908,-1.02721 0.78866,0 1.62437,0.20936 2.25857,0.56579 l 1.00669,0.5658 6.35071,-2.35049 c 3.4929,-1.29277 6.32319,-2.37801 6.28955,-2.41166 -0.0725,-0.0725 -31.720694,3.61156 -31.796874,3.70133 -0.0287,0.0338 -0.24981,0.95449 -0.49131,2.0459 -0.2415,1.0914 -0.50176,2.19273 -0.57835,2.44739 -0.18333,0.60953 0.0545,0.60283 7.04014,-0.19843 z m -7.68376,-3.91863 c 0.0105,-0.20706 -3.61926,0.0322 -4.02586,0.26538 -0.11013,0.0632 0.54472,0.94731 1.45521,1.96479 l 1.65545,1.84996 0.45218,-1.93284 c 0.24869,-1.06305 0.45705,-2.02934 0.46302,-2.14729 z m 1.42535,-6.81339 c 0.18055,-0.20337 2.30871,-10.106924 2.19606,-10.21957 -0.10137,-0.101368 -9.48339,10.61224 -9.63265,10.99981 -0.0726,0.18866 7.25935,-0.58061 7.43659,-0.78024 z m 21.942834,-2.45732 c 17.78235,-2.08281 18.74783,-2.22303 19.13755,-2.77944 0.69135,-0.98705 1.77975,-1.88529 2.68163,-2.21311 0.92273,-0.33541 0.93614,-0.36103 1.39163,-2.65859 0.28861,-1.455827 0.27239,-1.561683 -0.35335,-2.305329 -0.36072,-0.428689 -0.70025,-0.912631 -0.75451,-1.075426 -0.0684,-0.205276 -4.51578,-0.446455 -14.51125,-0.78694 -7.92692,-0.270023 -15.74298,-0.547708 -17.36903,-0.61708 l -2.956464,-0.12613 -0.65795,0.994236 c -0.7178,1.08466 -1.90695,1.770826 -3.35061,1.93337 l -0.92564,0.10422 -1.2477,5.671239 c -0.68624,3.11918 -1.25197,5.76053 -1.25718,5.86967 -0.0161,0.33771 0.91737,0.24466 20.172874,-2.01069 z"
       id="path1-2"
       sodipodi:nodetypes="sscssssssscccssssscsscssssscccsssssscssscccsssssscssssscsssscsscccsscsssssssssscscsssscsssssssssssssssssssssssssssscssssscsccccsssssssssssssscsssssssscsscccssssscssscccccsssssscssssscsssscsssscsscssssssssssssssscsscssssssssssscsssssssscssssssscssssssssscsssssssssssssscsscsss" /></g></svg>
